<?xml version="1.0" encoding="utf-8"?>
<!-- Generator: Adobe Illustrator 25.2.0, SVG Export Plug-In . SVG Version: 6.00 Build 0)  -->
<svg version="1.1" xmlns="http://www.w3.org/2000/svg" xmlns:xlink="http://www.w3.org/1999/xlink" x="0px" y="0px"
	 viewBox="0 0 1648.71 1747.87" style="enable-background:new 0 0 1648.71 1747.87;" xml:space="preserve">
<style type="text/css">
	.st0{fill:#E28B00;}
	.st1{fill:#F2CD36;}
	.st2{fill:#FFF4CC;}
	.st3{fill:none;stroke:#994200;stroke-width:11.364;stroke-miterlimit:10;}
	.st4{fill:none;stroke:#994200;stroke-width:4.7259;stroke-miterlimit:10;}
	.st5{fill:#969696;}
	.st6{fill:#C7C7C7;}
	.st7{fill:#F3F3F3;}
	.st8{fill:none;stroke:#555555;stroke-width:11.364;stroke-miterlimit:10;}
	.st9{fill:none;stroke:#555555;stroke-width:4.7259;stroke-miterlimit:10;}
	.st10{fill:none;stroke:#555555;stroke-width:10.3165;stroke-miterlimit:10;}
	.st11{fill:none;stroke:#994200;stroke-width:10.3165;stroke-miterlimit:10;}
	.st12{fill:#787878;}
	.st13{fill:#C47956;}
	.st14{fill:#4345C4;}
	.st15{fill:#566DD6;}
	.st16{fill:#AD523B;}
	.st17{fill:#FFB531;}
	.st18{fill:#161616;}
	.st19{fill:#FFFEFD;}
	.st20{fill:#B4C3D1;}
	.st21{fill:#BA5D00;}
	.st22{fill:#587737;}
	.st23{fill:#366125;}
	.st24{fill:#BA5E47;}
	.st25{fill:#D99C6A;}
	.st26{fill:#DD283E;}
	.st27{fill:#E83A4F;}
	.st28{opacity:0.4;fill:#E85A6C;}
	.st29{fill:#4331D4;}
	.st30{fill:#3222B3;}
	.st31{fill:#DD5A3C;}
	.st32{fill:#F2DC80;}
	.st33{fill:#241670;}
	.st34{fill:#E8BB80;}
	.st35{fill:#E8D09B;}
	.st36{opacity:0.5;fill:#AD523B;}
	.st37{opacity:0.5;fill:#96422D;}
	.st38{fill:#403F3E;}
	.st39{opacity:0.7;fill:#D99C6A;}
	.st40{opacity:0.7;fill:#E8BB80;}
	.st41{opacity:0.7;fill:#E8D09B;}
	.st42{fill:#C7715C;}
	.st43{opacity:0.6;fill:#E8BB80;}
	.st44{fill:#C46750;}
	.st45{fill:#789650;}
	.st46{fill:#A9BD6E;}
	.st47{fill:#FFD64F;}
	.st48{fill:#FFFF82;}
	.st49{fill:#392994;}
	.st50{fill:#73261F;}
	.st51{fill:#F26D5C;}
	.st52{fill:#F2A096;}
	.st53{fill:#8C0424;}
	.st54{fill:#F2DCDA;}
	.st55{fill:#C4986C;}
	.st56{fill:#FFEDA5;}
	.st57{fill:#940F13;}
	.st58{fill:#BF7B22;}
	.st59{fill:#2F5E27;}
	.st60{fill:#18401F;}
	.st61{opacity:0.5;fill:#93944E;}
	.st62{fill:#93944E;}
	.st63{fill:#CF631B;}
	.st64{fill:#FFC661;}
	.st65{fill:#FFF9F0;}
	.st66{fill:#630B16;}
	.st67{fill:#941341;}
	.st68{fill:none;stroke:#1B4D18;stroke-width:5;stroke-linecap:round;stroke-miterlimit:10;}
	.st69{fill:#873C2F;}
	.st70{fill:none;stroke:#752517;stroke-width:10;stroke-linecap:round;stroke-miterlimit:10;}
	.st71{fill:none;stroke:#000000;stroke-width:12;stroke-miterlimit:10;}
	.st72{fill:none;stroke:#000000;stroke-width:12;stroke-linecap:round;stroke-miterlimit:10;}
	.st73{fill:#752517;}
	.st74{fill:none;stroke:#000000;stroke-width:10;stroke-linecap:round;stroke-miterlimit:10;}
	.st75{fill:#B35D36;}
	.st76{fill:none;stroke:#000000;stroke-width:7;stroke-linecap:round;stroke-miterlimit:10;}
	.st77{fill:none;stroke:#000000;stroke-width:7;stroke-linecap:round;stroke-linejoin:round;stroke-miterlimit:10;}
	.st78{fill:#FFFFFF;}
	.st79{fill:none;stroke:#000000;stroke-width:6;stroke-miterlimit:10;}
	.st80{fill:none;stroke:#000000;stroke-width:12.7093;stroke-miterlimit:10;}
	.st81{fill:none;stroke:#000000;stroke-width:11.5038;stroke-miterlimit:10;}
	.st82{fill:none;stroke:#000000;stroke-width:11.7275;stroke-miterlimit:10;}
	.st83{fill:none;stroke:#000000;stroke-width:7;stroke-miterlimit:10;}
	.st84{fill:none;stroke:#000000;stroke-width:6;stroke-linecap:round;stroke-miterlimit:10;}
	.st85{fill:none;stroke:#000000;stroke-width:6.54;stroke-linecap:round;stroke-miterlimit:10;}
	.st86{fill:none;stroke:#000000;stroke-width:13.08;stroke-linecap:round;stroke-miterlimit:10;}
	.st87{fill:none;stroke:#000000;stroke-width:9.5713;stroke-linecap:round;stroke-miterlimit:10;}
	.st88{fill:none;stroke:#000000;stroke-width:5;stroke-linecap:round;stroke-miterlimit:10;}
	.st89{fill:none;stroke:#000000;stroke-width:9;stroke-linejoin:round;stroke-miterlimit:10;}
	.st90{fill:none;stroke:#000000;stroke-width:5.0843;stroke-linecap:round;stroke-miterlimit:10;}
	.st91{fill:none;stroke:#000000;stroke-width:3.1513;stroke-linecap:round;stroke-miterlimit:10;}
	.st92{fill:none;stroke:#000000;stroke-width:7.9157;stroke-linejoin:round;stroke-miterlimit:10;}
	.st93{fill:none;stroke:#000000;stroke-width:4;stroke-linejoin:round;stroke-miterlimit:10;}
	.st94{fill:none;stroke:#000000;stroke-width:6;stroke-linecap:round;stroke-linejoin:round;stroke-miterlimit:10;}
	.st95{fill:#303030;}
	.st96{fill:#8F3E00;}
	.st97{opacity:0.6;fill:#FF9D00;}
	.st98{fill:#FCCE3A;}
	.st99{fill:none;stroke:#FCCE3A;stroke-width:0.181;stroke-miterlimit:10;}
	.st100{fill:none;stroke:#FCCE3A;stroke-width:1.5134;stroke-miterlimit:10;}
	.st101{clip-path:url(#SVGID_2_);}
	.st102{fill:none;stroke:#8F3E00;stroke-width:1.6205;stroke-linecap:round;stroke-miterlimit:10;}
	.st103{fill:none;stroke:#8F3E00;stroke-width:1.7829;stroke-linecap:round;stroke-miterlimit:10;}
	.st104{fill:none;stroke:#8F3E00;stroke-width:1.4657;stroke-linecap:round;stroke-miterlimit:10;}
	.st105{fill:#4F4F4F;}
	.st106{opacity:0.6;fill:#A9A9A9;}
	.st107{fill:#969696;stroke:#555555;stroke-miterlimit:10;}
	.st108{fill:#CCCCCC;}
	.st109{fill:none;stroke:#CCCCCC;stroke-width:0.1665;stroke-miterlimit:10;}
	.st110{fill:none;stroke:#CCCCCC;stroke-width:1.3928;stroke-miterlimit:10;}
	.st111{fill:none;}
	.st112{fill:none;stroke:#303030;stroke-width:1.6408;stroke-linecap:round;stroke-miterlimit:10;}
	.st113{fill:none;stroke:#303030;stroke-width:1.3489;stroke-linecap:round;stroke-miterlimit:10;}
	.st114{clip-path:url(#SVGID_4_);}
	.st115{fill:none;stroke:#FCCE3A;stroke-width:0.2516;stroke-miterlimit:10;}
	.st116{fill:none;stroke:#FCCE3A;stroke-width:2.1039;stroke-miterlimit:10;}
	.st117{clip-path:url(#SVGID_6_);}
	.st118{fill:none;stroke:#8F3E00;stroke-width:2.2526;stroke-linecap:round;stroke-miterlimit:10;}
	.st119{fill:none;stroke:#8F3E00;stroke-width:2.0375;stroke-linecap:round;stroke-miterlimit:10;}
	.st120{clip-path:url(#SVGID_8_);}
	.st121{clip-path:url(#SVGID_10_);}
	.st122{clip-path:url(#SVGID_12_);}
	.st123{clip-path:url(#SVGID_14_);}
	.st124{clip-path:url(#SVGID_16_);}
	.st125{clip-path:url(#SVGID_18_);}
	.st126{fill:none;stroke:#FCCE3A;stroke-width:0.1365;stroke-miterlimit:10;}
	.st127{fill:none;stroke:#FCCE3A;stroke-width:1.1418;stroke-miterlimit:10;}
	.st128{fill:none;stroke:#8F3E00;stroke-width:1.2226;stroke-linecap:round;stroke-miterlimit:10;}
	.st129{fill:none;stroke:#8F3E00;stroke-width:1.3451;stroke-linecap:round;stroke-miterlimit:10;}
	.st130{fill:none;stroke:#8F3E00;stroke-width:1.1058;stroke-linecap:round;stroke-miterlimit:10;}
	.st131{fill:none;stroke:#FCCE3A;stroke-width:0.1004;stroke-miterlimit:10;}
	.st132{fill:none;stroke:#FCCE3A;stroke-width:0.8394;stroke-miterlimit:10;}
	.st133{fill:none;stroke:#8F3E00;stroke-width:0.8988;stroke-linecap:round;stroke-miterlimit:10;}
	.st134{fill:none;stroke:#8F3E00;stroke-width:0.9889;stroke-linecap:round;stroke-miterlimit:10;}
	.st135{fill:none;stroke:#8F3E00;stroke-width:0.8129;stroke-linecap:round;stroke-miterlimit:10;}
	.st136{fill:none;stroke:#CCCCCC;stroke-width:0.2394;stroke-miterlimit:10;}
	.st137{fill:none;stroke:#CCCCCC;stroke-width:2.0024;stroke-miterlimit:10;}
	.st138{fill:none;stroke:#303030;stroke-width:1.9392;stroke-linecap:round;stroke-miterlimit:10;}
	.st139{fill:none;stroke:#CCCCCC;stroke-width:0.2035;stroke-miterlimit:10;}
	.st140{fill:none;stroke:#CCCCCC;stroke-width:1.7023;stroke-miterlimit:10;}
	.st141{fill:none;stroke:#303030;stroke-width:2.0054;stroke-linecap:round;stroke-miterlimit:10;}
	.st142{fill:none;stroke:#303030;stroke-width:1.6487;stroke-linecap:round;stroke-miterlimit:10;}
	.st143{clip-path:url(#SVGID_20_);}
	.st144{clip-path:url(#SVGID_22_);}
	.st145{clip-path:url(#SVGID_24_);}
	.st146{clip-path:url(#SVGID_26_);}
	.st147{clip-path:url(#SVGID_28_);}
	.st148{clip-path:url(#SVGID_30_);}
	.st149{clip-path:url(#SVGID_32_);}
	.st150{fill:#E28B00;stroke:#8F3E00;stroke-width:8;stroke-miterlimit:10;}
	.st151{fill:#969696;stroke:#555555;stroke-width:8;stroke-miterlimit:10;}
	.st152{clip-path:url(#SVGID_34_);}
	.st153{clip-path:url(#SVGID_36_);}
	.st154{clip-path:url(#SVGID_38_);}
	.st155{clip-path:url(#SVGID_40_);}
	.st156{clip-path:url(#SVGID_42_);}
	.st157{clip-path:url(#SVGID_44_);}
	.st158{clip-path:url(#SVGID_46_);}
	.st159{clip-path:url(#SVGID_48_);}
	.st160{clip-path:url(#SVGID_50_);}
	.st161{clip-path:url(#SVGID_52_);}
	.st162{clip-path:url(#SVGID_54_);}
	.st163{clip-path:url(#SVGID_56_);}
	.st164{clip-path:url(#SVGID_58_);}
	.st165{clip-path:url(#SVGID_60_);}
	.st166{clip-path:url(#SVGID_62_);}
	.st167{clip-path:url(#SVGID_64_);}
	.st168{fill:none;stroke:#873C2F;stroke-width:7;stroke-linecap:round;stroke-miterlimit:10;}
</style>
<g id="Capa_2">
	<g>
		<path d="M924.78,1607.34c-1.43-0.02-2.84-0.06-4.26-0.09c-0.76-0.02-5.55-0.15-5.55-0.15l-3.32-0.2
			c-0.76-0.05-1.52-0.09-2.28-0.14c-1.42-0.08-2.84-0.17-4.26-0.28l-6.52-0.64c-1.73-0.14-3.49-0.38-5.18-0.62l-1.36-0.19
			c-0.77-0.11-1.52-0.21-2.27-0.31c-1.4-0.18-2.84-0.37-4.28-0.64l-2.16-0.38c-3.53-0.62-7.18-1.27-10.76-2.13l-4.75-1.06
			l-7.97-2.15c-1.9-0.48-4.12-1.19-6.55-2.08c-1.1-0.41-2.2-0.85-3.26-1.3c-0.69-0.3-1.33-0.6-1.97-0.9l-1.04-0.48
			c-16.27-7.27-31.66-15.84-45.7-25.47c-14.04-9.61-27.62-20.84-40.33-33.38c-8.26-8.19-16.55-17.25-25.33-27.66
			c-25.5,14.26-50.84,17.29-67.74,17.29c-10.58,0-17.42-1.2-18.16-1.34l-4-0.73l-1.76-3.66c-0.83-1.73-20.34-43.01-12.93-98.59
			l0.53-3.96l3.48-1.96c25.49-14.34,46.46-16.51,56.73-16.51c-0.36-3.9-0.71-7.79-1.04-11.69c-55.72-47.14-77.37-103.07-66.2-170.97
			l0.35-2.15l1.4-1.67c5.97-7.16,13.92-13.87,23.67-19.97c-2.64-8.82-6.88-26.14-8.86-51.36c-2.29-29.22-1.79-76.32,13.41-135.41
			l-96.15-31.73l-100.64-32.95l-50.36-16.29l-25.21-8.04l-13.4-4.24l-0.56-0.19l-0.81-0.3c-1.27-0.54-2.37-1.19-3.35-1.97
			c-1.95-1.57-3.48-3.71-4.33-6.04c-0.79-2.11-1.08-4.38-0.86-6.72c0.25-2.45,1.04-4.68,2.34-6.64c1.39-2.15,3.58-3.96,5.99-4.95
			c0.65-0.26,1.26-0.47,1.84-0.61l0.88-0.2l2.27-0.37c2.17-0.34,4.49-0.61,7.11-0.83c4.18-0.35,8.56-0.54,13.8-0.59
			c0.84-0.01,1.67-0.01,2.51-0.01c3.37,0,6.99,0.07,11.06,0.21c5.18,0.18,9.46,0.41,13.47,0.71c4.7,0.34,9.54,0.75,14.63,1.24
			c-3.04-1.51-6.07-3.02-9.11-4.52c-23.53-11.69-50.91-25.28-78.1-38.48c-8.39-4.11-16.95-8.21-25.23-12.17
			c-4.66-2.23-9.32-4.46-13.98-6.71l-19.66-9.27c-2.33-1.09-4.66-2.19-6.99-3.29c-4.15-1.96-8.45-3.99-12.69-5.91l-25.95-11.88
			l-0.72-0.34l-0.22-0.11c-0.3-0.15-0.6-0.3-0.9-0.47c-1.44-0.8-2.82-1.88-3.99-3.12c-2.23-2.37-3.75-5.36-4.38-8.65
			c-0.6-3.11-0.4-6.32,0.58-9.31c1.06-3.24,3.09-6.13,5.73-8.13c1.34-1.03,2.9-1.88,4.5-2.44l0.86-0.29
			c0.7-0.23,1.38-0.46,2.08-0.66c3.64-1.1,7.53-2,11.54-2.66c7.06-1.18,14.56-1.78,22.91-1.82l1.12,0c6.64,0,13.37,0.34,20.54,1.03
			c-19.13-10.72-45.04-24.79-72.03-38.13l-9.37-4.63l9.13-5.1c12.63-7.06,29.09-10.64,48.94-10.64c18.03,0,35.79,2.94,49.28,5.97
			c-53.15-50.13-90.47-88.69-110.98-114.69l-13.92-17.64l21.84,5.31c38.2,9.29,76.42,25.59,116.61,49.78
			c-17.4-31.07-43.85-81.43-51.98-113.95l-3.32-13.28l11.59,7.3c20.7,13.03,52.16,37.84,74.92,56.38l13.04,9.24
			c-1.19-2.18-2.36-4.35-3.5-6.48c-11.02-20.57-20.26-39.35-28.25-57.44c-10.01-22.76-17.09-41.98-22.27-60.49l-2.15-7.79
			l-1.86-7.96l-0.91-3.95c-0.19-0.91-0.35-1.79-0.51-2.67c-0.08-0.47-1.71-9.41-1.71-9.41c-1.76-12.16-2.47-22.97-2.2-33.12
			l0.18-6.52l6.29-0.85c0.7-0.09,1.4-0.14,2.04-0.14l0.29,0.01c0.47,0.03,0.95,0.08,1.42,0.14c0.38,0.05,0.66,0.11,0.94,0.17
			l0.5,0.11c0.35,0.08,0.71,0.16,0.99,0.25c1.03,0.29,2.09,0.66,3.35,1.16c1.96,0.78,3.69,1.62,5.69,2.65
			c3.16,1.64,6.4,3.49,10.19,5.84c5.93,3.69,12.1,7.89,18.87,12.84c11.31,8.27,22.81,17.54,35.14,28.33
			c8.33,7.31,16.75,15.12,25.1,23.27c-3.41-21.89-7.38-55.62-3.13-74.22l1.75-7.67l6.6,4.28c19.65,12.74,45.54,39.51,61.72,57.22
			c-3.95-24.67-6.81-47.79-8.73-70.56c-1.15-13.73-1.83-26.01-2.09-37.54c-0.15-7.03-0.13-13.24,0.06-18.99
			c0.12-3.54,0.31-6.7,0.56-9.65c0.26-2.89,0.62-6.34,1.36-10.04c0.35-1.64,0.78-3.56,1.63-5.71l0.04-0.1
			c0.45-1.06,0.95-2.25,2.13-3.77c0.33-0.4,0.7-0.84,1.23-1.31c0.26-0.24,0.54-0.47,0.85-0.69c0.28-0.2,0.4-0.27,0.52-0.34l0.1-0.06
			c0.75-0.47,1.39-0.8,2.01-1.06c2.21-0.98,4.64-1.46,7.39-1.46c2.13,0.01,4.19,0.27,6.38,0.81c3.38,0.83,6.75,2.15,10.32,4.04
			c2.88,1.53,5.73,3.32,8.72,5.47c4.93,3.56,9.81,7.8,14.93,12.95c4.35,4.39,8.55,9.11,12.85,14.43
			c7.41,9.17,14.56,19.37,21.84,31.19c5.18,8.42,10.14,17.17,15.08,26.6c3-22.38,7.9-48.18,15.19-56.8l3.86-4.56l4.23,4.23
			c14,14,26.08,30.84,34.67,44.19c-1.19-47.6,0.64-123.53,22.34-150.97c5.56-7.03,12.18-10.81,19.67-11.23
			c0.43-0.02,0.85-0.04,1.28-0.04c13.17,0,25.79,11.33,38.58,34.64c10.34,18.87,20.72,45.35,30.83,78.7c0.4,1.31,0.8,2.64,1.2,4
			c2.56-15.38,5.14-24.88,7.69-28.27l4.83-6.45l4.24,6.85c2.8,4.53,5.45,9.23,7.9,14.04c2.67-22.64,6.19-43.18,10.72-62.6
			c4.29-18.08,8.85-32.6,14.37-45.71c3.68-8.65,7.34-15.61,11.54-21.91c2.61-3.9,5.25-7.23,8.07-10.2c3.53-3.67,7.09-6.5,10.89-8.66
			c4.55-2.6,9.54-4.13,14.4-4.42c0.68-0.05,1.39-0.07,2.1-0.07c1.84,0,3.7,0.16,5.54,0.47c2.63,0.41,5.44,1.3,7.67,2.41
			c4.09,2.01,7.75,4.92,11.48,9.16c2.67,3.09,5.14,6.61,7.55,10.77c3.66,6.36,6.89,13.5,10.18,22.47
			c2.53,6.95,4.87,14.44,7.17,22.88c3.73,13.79,6.96,28.47,10.17,46.2c2.68,14.9,5.08,30.53,7.14,46.47
			c0.04,0.29,0.07,0.58,0.11,0.87l7.95-25.43l9.37,16.97c5.35-25.07,11.55-45.79,19.38-64.84c5.86-14.06,11.76-25.11,18.58-34.77
			c4.7-6.54,9.1-11.46,13.88-15.47c2.16-1.77,5.5-4.33,9.81-6.19c2.3-0.97,4.48-1.55,6.66-1.79c0.79-0.07,1.41-0.1,2.01-0.1
			c0.73,0,1.41,0.04,2.08,0.14c0.61,0.06,1.34,0.2,2.16,0.43l0.12,0.03c0.13,0.03,0.26,0.06,0.54,0.16
			c0.38,0.13,0.74,0.27,1.05,0.41c0.64,0.29,1.14,0.6,1.54,0.87c1.68,1.16,2.54,2.2,3.3,3.12c0.71,0.9,1.3,1.74,1.91,2.73
			c0.89,1.45,1.7,2.95,2.62,4.88c1.29,2.73,2.48,5.62,3.87,9.38c1.98,5.42,3.84,11.32,5.88,18.58c3.1,11.11,5.99,23.32,8.84,37.32
			c4.81,23.76,8.67,48.4,11.79,75.34c0.75,6.51,1.45,13.19,2.09,19.93c9.18-15.97,20.77-34.62,29.27-43.11l7.52-7.52l1.79,10.48
			c3.58,20.98,5.51,47.54,6.54,68.41c10.76-21.63,22.68-42.74,35.5-62.87c14.53-22.81,30.3-44.31,44.42-60.54
			c20.79-23.91,27.23-24.59,29.65-24.85l6.31-0.67l1.99,6.02c14.88,45,11.73,111.25-9.64,202.35
			c14.76-16.03,29.22-30.79,37.93-34.27l6.71-2.68l0.8,7.18c3.04,27.4-2.67,66.44-7.26,91.29c41.18-47.53,82.44-82.89,122.74-105.18
			l20.2-11.17l-9.18,21.18c-11.94,27.55-33.36,70.02-63.68,126.29c4.35,0.69,8.69,1.41,12.93,2.15c5.44-2.14,10.06-3.42,13.73-3.83
			l7.12-0.79l-1.07,7.08c-2.86,18.86-10.38,38.61-16.9,53.15c21.11-8.23,41.25-12.24,61.42-12.24c2.58,0,5.21,0.07,7.8,0.2
			c7.13,0.36,13.19,5.08,15.46,12.02c2.29,7.01,0.15,14.49-5.46,19.05c-39.22,31.87-86.67,76.64-141.12,133.15
			c14.51-4.84,27.69-7.84,39.29-8.95c0.46-0.04,0.91-0.06,1.36-0.06c6.03,0,11.23,3.79,13.24,9.65c2.21,6.43-0.07,13.16-5.69,16.75
			c-89.68,57.19-189.24,159.74-219.22,191.56c16.87,32.12,24.58,76.46,28.09,108.19c3.34,30.23,3.9,57.84,3.3,74.42
			c0.24,0.01,0.47,0.02,0.71,0.04c3.88,0.25,7.62,0.83,11.13,1.7c4.1,1.13,7.83,2.71,11.14,4.72l1.95,1.13l1.01,2.15
			c7.72,16.47,13.08,33.32,15.96,50.08c2.94,16.73,3.33,34.36,1.15,52.42l-0.92,6.46c-0.1,0.63-0.18,1.25-0.27,1.86
			c-0.21,1.54-0.43,3.13-0.82,4.71l-1.99,9.42c-0.23,1.11-0.46,2.21-0.79,3.3l-3.47,12.43l-4.23,12.21
			c-5.44,14.45-12.42,29.18-21.35,45.04c0.29,1.87,0.58,3.73,0.87,5.6c6.19-1.65,16.97-3.83,30.78-3.83
			c10.92,0,22.01,1.35,32.96,4.01l3.88,0.94l1.58,3.67c22.17,51.49,14.58,96.52,14.24,98.41l-0.71,4l-3.65,1.79
			c-0.96,0.47-23.97,11.56-55.78,11.56c-10.71,0-21.36-1.28-31.69-3.8c-0.33,0.75-0.67,1.49-1.01,2.23
			c-6.6,14.26-14.8,29.16-25.06,45.55c-4.18,6.65-8.85,13.72-14.29,21.61l-1.14,1.62c-2.06,2.95-4.2,5.99-6.36,8.95l-1.88,2.61
			c-0.43,0.59-0.88,1.17-1.33,1.75l-0.68,0.89c-0.4,0.51-0.77,1-1.14,1.49c-0.95,1.25-1.93,2.54-3,3.76
			c-11.05,13.52-24.42,25.24-39.69,34.8c-7.48,4.68-15.39,8.79-23.53,12.23c-7.88,3.34-16.36,6.12-25.21,8.27
			c-7.87,1.89-16.24,3.55-25.61,5.07c-8.54,1.33-17.25,2.38-25.92,3.11c-8.39,0.64-16.8,0.96-25.02,0.96L924.78,1607.34z"/>
		<path d="M866.8,139.17c1.75,0,3.5,0.15,5.2,0.44c2.23,0.35,4.91,1.13,7.11,2.23c4.51,2.21,7.97,5.4,10.88,8.69
			c2.88,3.33,5.24,6.86,7.32,10.45c4.14,7.2,7.28,14.65,10.03,22.15c2.73,7.51,5.05,15.1,7.12,22.72
			c4.12,15.25,7.34,30.62,10.13,46.03c2.77,15.42,5.12,30.88,7.12,46.37c0.43,3.34,0.84,6.69,1.25,10.04l9.31-29.78l9.71,17.6
			c4.83-23.66,11.08-47.15,20.38-69.77c4.96-11.89,10.73-23.56,18.36-34.38c3.86-5.38,8.15-10.57,13.53-15.09
			c2.72-2.23,5.7-4.32,9.31-5.88c1.82-0.76,3.81-1.39,6.09-1.64c0.59-0.05,1.18-0.09,1.79-0.09c0.59,0,1.19,0.03,1.81,0.12
			c0.62,0.06,1.27,0.2,1.91,0.38c0.19,0.05,0.25,0.06,0.55,0.16c0.29,0.1,0.58,0.21,0.83,0.32c0.52,0.23,0.92,0.48,1.29,0.73
			c1.43,0.99,2.18,1.9,2.89,2.76c0.68,0.85,1.23,1.67,1.72,2.47c0.99,1.6,1.78,3.15,2.52,4.69c1.46,3.09,2.67,6.14,3.79,9.21
			c2.23,6.13,4.1,12.27,5.83,18.43c3.44,12.32,6.27,24.73,8.81,37.18c5.04,24.9,8.84,49.99,11.76,75.17
			c1,8.73,1.89,17.46,2.67,26.21c8.27-14.69,22.39-38.52,32.08-48.21l4.79-4.79l1.14,6.67c4.12,24.11,6.02,55.84,6.87,75.96
			c13.25-27.42,26.88-50.93,38.83-69.68c14.48-22.73,30.19-44.14,44.24-60.3c20.27-23.32,26.35-23.96,28.35-24.17l4.7-0.5l1.48,4.49
			c15.16,45.85,11.4,114.19-11.48,208.76c17.28-18.95,33.33-35.82,42.4-39.45l4.27-1.71l0.51,4.57c3.33,30.01-3.95,74.19-8.64,98.07
			c48.74-57.41,91.9-90.98,127.08-110.43l15.07-8.33l-6.85,15.79c-13.18,30.39-36.67,76.22-64.95,128.62
			c5.48,0.85,10.9,1.74,16.24,2.67c5.07-2.02,9.83-3.48,13.74-3.91l4.53-0.5l-0.68,4.51c-3.23,21.35-12.68,44.04-18.84,57.19
			c22.81-9.5,44.15-13.98,65.33-13.98c2.57,0,5.14,0.07,7.7,0.2c6.29,0.32,11.65,4.5,13.66,10.64c2.03,6.22,0.14,12.84-4.82,16.87
			c-45.99,37.37-98.11,88.23-147.11,139.36c13.45-4.94,30.57-10.08,46.73-11.62c0.39-0.04,0.78-0.06,1.17-0.06
			c5.13,0,9.6,3.22,11.35,8.3c1.91,5.54-0.05,11.33-4.88,14.41c-90.99,58.03-191.93,162.44-220.58,192.92
			c17.14,31.84,24.98,76.51,28.54,108.74c3.56,32.19,3.91,60.38,3.21,76.14c0.89,0.02,1.79,0.05,2.68,0.1
			c3.55,0.23,7.15,0.75,10.75,1.65c3.6,0.99,7.19,2.43,10.58,4.49l0,0l1.44,0.84l0.74,1.59c7.37,15.73,12.86,32.42,15.8,49.57
			c3.02,17.14,3.21,34.7,1.14,51.84l-0.92,6.41c-0.33,2.13-0.54,4.28-1.05,6.38l-1.33,6.32l-0.67,3.16
			c-0.21,1.05-0.44,2.11-0.75,3.14l-3.47,12.41l-4.21,12.15c-5.92,15.73-13.33,30.78-21.54,45.32c0.44,2.84,0.88,5.67,1.31,8.51
			c5.86-1.73,17.24-4.36,32.42-4.36c9.49,0,20.46,1.03,32.49,3.95l2.91,0.71l1.18,2.75c21.95,50.96,14.44,95.4,14.11,97.27l-0.53,3
			l-2.74,1.34c-1.25,0.61-23.66,11.36-54.9,11.36c-10.15,0-21.24-1.16-32.83-4.14c-0.56,1.25-1.12,2.5-1.69,3.75
			c-7.27,15.7-15.8,30.72-24.94,45.32c-4.58,7.29-9.36,14.45-14.24,21.54c-2.47,3.52-4.93,7.05-7.46,10.53l-1.89,2.62
			c-0.64,0.87-1.32,1.74-1.98,2.6c-1.34,1.72-2.62,3.5-4.06,5.14c-11.06,13.53-24.43,25.15-39.25,34.43
			c-7.41,4.64-15.19,8.68-23.25,12.09c-8.05,3.41-16.41,6.1-24.9,8.16c-8.46,2.03-16.91,3.65-25.46,5.05
			c-8.54,1.33-17.14,2.36-25.77,3.09c-8.26,0.63-16.55,0.96-24.85,0.96c-0.37,0-0.75,0-1.12,0c-2.17-0.02-4.34-0.1-6.5-0.15
			l-3.25-0.09l-3.25-0.2c-2.17-0.14-4.33-0.24-6.5-0.42l-6.49-0.63c-2.17-0.18-4.32-0.51-6.47-0.8c-2.15-0.32-4.31-0.54-6.45-0.94
			c-4.28-0.77-8.58-1.47-12.81-2.49l-3.19-0.71l-1.59-0.36l-1.58-0.43l-6.31-1.71c-2.08-0.53-4.28-1.26-6.39-2.03
			c-1.06-0.39-2.11-0.81-3.16-1.26c-1.03-0.45-1.98-0.91-2.97-1.36c-15.81-7.07-31.08-15.48-45.4-25.3
			c-14.33-9.8-27.72-20.98-40.06-33.15c-9.25-9.18-17.94-18.86-26.27-28.79c-25.82,14.87-51.67,17.85-68.2,17.85
			c-10.4,0-17.1-1.18-17.8-1.3l-3-0.55l-1.32-2.75c-0.82-1.71-20.08-42.46-12.75-97.45l0.4-2.97l2.61-1.47
			c24.9-14.01,45.29-16.26,55.82-16.26c0.76,0,1.48,0.01,2.14,0.03c-0.05-0.52-0.1-1.04-0.15-1.56c-0.41-4.38-0.8-8.77-1.17-13.15
			c-55.59-46.74-77.24-102.25-66.15-169.65l0.26-1.61l1.05-1.26c7.16-8.59,16.36-15.4,24.5-20.36c-2.35-7.54-7.12-25.45-9.23-52.41
			c-2.36-30.13-1.63-77.42,13.83-136.57l-97.93-32.32L458.4,937.83l-50.37-16.29l-25.21-8.04l-12.61-4l-0.79-0.25l-0.53-0.18
			l-0.74-0.28c-0.99-0.42-1.94-0.98-2.81-1.66c-1.73-1.39-3-3.24-3.69-5.15c-0.72-1.92-0.93-3.89-0.75-5.85
			c0.2-1.95,0.82-3.92,2.02-5.72c1.16-1.8,3.02-3.36,5.08-4.21c0.51-0.21,1.04-0.39,1.56-0.52l0.78-0.18l0.44-0.07l1.76-0.28
			c2.35-0.36,4.66-0.62,6.96-0.81c4.6-0.39,9.14-0.54,13.65-0.58c0.83-0.01,1.66-0.01,2.48-0.01c3.68,0,7.34,0.08,11,0.21
			c4.48,0.16,8.94,0.37,13.38,0.71c8.55,0.61,17.07,1.43,25.56,2.38c-6.33-3.16-12.66-6.31-19-9.45c-26-12.92-52-25.81-78.11-38.49
			c-13.03-6.38-26.15-12.58-39.21-18.88l-19.68-9.28c-6.57-3.07-13.11-6.21-19.71-9.21l-19.77-9.05l-4.94-2.26l-1.24-0.57
			l-0.71-0.33c-0.33-0.16-0.66-0.32-0.98-0.5c-1.29-0.72-2.49-1.67-3.52-2.75c-2.06-2.19-3.35-4.91-3.88-7.66
			c-0.53-2.76-0.38-5.59,0.51-8.3c0.88-2.7,2.6-5.31,5.04-7.16c1.21-0.93,2.57-1.65,3.96-2.15c0.97-0.32,1.88-0.64,2.83-0.91
			c3.75-1.13,7.54-1.99,11.31-2.61c7.56-1.26,15.11-1.75,22.6-1.8c0.37,0,0.74,0,1.11,0c7.12,0,14.18,0.4,21.2,1.1
			c2.99,0.3,5.97,0.65,8.94,1.04c-19.07-10.82-49.15-27.43-80.73-43.04l-5.96-2.95l5.81-3.25c13.86-7.75,31.02-10.38,47.96-10.38
			c21.43,0,42.5,4.22,56.11,7.65c-50.11-47.05-92.9-90.03-116.24-119.61l-10.33-13.09l16.2,3.94c39.8,9.67,80.31,27.34,122.6,53.55
			c-16.74-29.47-46.84-85.27-55.56-120.15l-2.11-8.45l7.37,4.64c20.19,12.71,50.59,36.59,74.78,56.28l20.2,14.32
			c-2.6-4.68-5.16-9.38-7.69-14.09c-10.04-18.73-19.56-37.78-28.18-57.3c-8.59-19.52-16.37-39.49-22.17-60.22l-2.15-7.78l-1.84-7.88
			l-0.91-3.94c-0.28-1.32-0.5-2.66-0.75-3.99l-1.46-8c-1.55-10.76-2.47-21.67-2.17-32.7l0.13-4.82l4.61-0.62l0.02,0
			c0.58-0.08,1.19-0.12,1.76-0.12c0.05,0,0.09,0,0.14,0c0.44,0.03,0.88,0.08,1.32,0.13c0.45,0.05,0.71,0.14,1.08,0.21
			c0.33,0.08,0.7,0.15,0.97,0.24c1.2,0.34,2.24,0.72,3.23,1.12c1.99,0.79,3.77,1.67,5.53,2.57c3.5,1.81,6.8,3.75,10.04,5.76
			c6.47,4.03,12.67,8.31,18.74,12.75c12.14,8.88,23.74,18.37,35.01,28.22c10.08,8.85,19.86,18.03,29.37,27.48
			c-3.66-21.94-8.68-59.58-4.13-79.49l1.12-4.88l4.2,2.72c21.43,13.9,50.49,44.77,65.89,61.92c-0.17-0.99-0.34-1.99-0.5-2.98
			c-4.02-24.57-7.22-49.27-9.31-74.12c-1.04-12.43-1.8-24.89-2.08-37.42c-0.14-6.27-0.15-12.55,0.06-18.87
			c0.11-3.16,0.28-6.34,0.55-9.55c0.28-3.21,0.65-6.43,1.33-9.81c0.36-1.7,0.76-3.42,1.53-5.38c0.42-1,0.85-2.04,1.89-3.37
			c0.28-0.34,0.58-0.68,0.99-1.05c0.2-0.18,0.42-0.36,0.68-0.55c0.3-0.22,0.34-0.22,0.51-0.33c0.56-0.35,1.14-0.67,1.72-0.91
			c2.3-1.02,4.57-1.31,6.62-1.31c0.03,0,0.05,0,0.08,0c2.09,0.01,4.02,0.31,5.82,0.75c3.62,0.89,6.85,2.27,9.86,3.87
			c3.01,1.6,5.82,3.4,8.49,5.33c5.34,3.86,10.16,8.19,14.68,12.74c4.52,4.55,8.73,9.34,12.71,14.27
			c7.97,9.87,15.1,20.28,21.69,30.98c6.45,10.49,12.4,21.24,17.96,32.17c2.34-19.09,7.46-52.57,15.55-62.13l2.46-2.9l2.69,2.69
			c16.26,16.26,29.91,36.42,38.29,50.06c-2.41-72.77,3.67-134.21,21.7-157c5.19-6.56,11.32-10.09,18.21-10.47
			c0.39-0.02,0.78-0.03,1.17-0.03c12.38,0,24.43,11.01,36.82,33.61c10.28,18.74,20.6,45.09,30.67,78.32
			c1.25,4.12,2.48,8.33,3.71,12.62c2.07-14.18,5.22-31.63,8.7-36.26l3.08-4.1l2.7,4.36c4.58,7.4,8.16,14.34,10.82,20.03
			c2.52-23.2,6.12-46.32,11.45-69.19c3.64-15.34,8.03-30.59,14.27-45.39c3.14-7.39,6.76-14.67,11.36-21.58
			c2.31-3.45,4.88-6.8,7.86-9.92c2.99-3.11,6.4-6.02,10.43-8.3c4-2.28,8.69-3.87,13.53-4.17
			C865.49,139.19,866.14,139.17,866.8,139.17 M866.8,135.17c-0.75,0-1.5,0.02-2.24,0.07c-5.14,0.31-10.43,1.93-15.25,4.68
			c-3.96,2.25-7.67,5.19-11.33,9c-2.92,3.06-5.63,6.48-8.3,10.47c-4.27,6.41-7.99,13.48-11.71,22.24
			c-5.57,13.22-10.17,27.84-14.48,46.03c-4.13,17.68-7.41,36.27-9.99,56.52c-1.6-2.9-3.27-5.75-4.99-8.54l-2.7-4.36l-3.08-4.98
			l-3.52,4.69l-3.08,4.1c-0.93,1.24-3.36,4.48-6.58,20.94c-9.77-31.64-19.78-56.9-29.78-75.14c-13.17-24.01-26.36-35.68-40.33-35.68
			c-0.46,0-0.93,0.01-1.39,0.04c-8.08,0.45-15.19,4.49-21.12,11.98c-21.04,26.6-23.75,97.27-22.92,145.3
			c-8.26-12.3-18.96-26.55-31.11-38.7l-2.69-2.69l-3.07-3.07l-2.81,3.32l-2.46,2.9c-6.91,8.17-11.69,30.65-14.79,51.72
			c-4.01-7.43-8.07-14.46-12.26-21.27c-7.32-11.88-14.51-22.15-21.99-31.4c-4.33-5.37-8.58-10.14-12.98-14.57
			c-5.19-5.23-10.16-9.53-15.17-13.16c-3.07-2.21-6-4.05-8.96-5.62c-3.71-1.97-7.24-3.35-10.77-4.22c-2.35-0.58-4.56-0.86-6.76-0.87
			l-0.1,0c-3.01,0-5.69,0.53-8.19,1.63c-0.71,0.3-1.43,0.68-2.25,1.19l-0.03,0.02l-0.03,0.02c-0.21,0.12-0.4,0.24-0.71,0.47
			c-0.34,0.24-0.68,0.52-1.02,0.83c-0.61,0.55-1.07,1.08-1.39,1.48l-0.03,0.04l-0.03,0.04c-1.33,1.72-1.92,3.1-2.39,4.21l-0.02,0.05
			l-0.02,0.05l-0.02,0.05c-0.9,2.3-1.36,4.31-1.72,6.01c-0.77,3.82-1.14,7.34-1.4,10.28c-0.26,3-0.44,6.19-0.57,9.76
			c-0.2,5.8-0.21,12.05-0.06,19.1c0.26,11.57,0.95,23.89,2.1,37.66c1.75,20.79,4.29,41.88,7.73,64.19
			c-16.28-17.53-39.54-40.95-57.63-52.69l-4.2-2.72l-4.8-3.11l-1.28,5.58l-1.12,4.88c-3.85,16.84-1.32,44.99,2.21,69.1
			c-6.97-6.69-13.97-13.12-20.91-19.21c-12.39-10.83-23.93-20.14-35.28-28.44c-6.8-4.97-13.01-9.2-18.99-12.92
			c-3.84-2.38-7.11-4.26-10.32-5.91c-2.07-1.06-3.86-1.92-5.88-2.73c-1.3-0.52-2.4-0.9-3.56-1.23c-0.38-0.12-0.75-0.2-1.09-0.28
			l-0.16-0.04l-0.05-0.01l-0.05-0.01c-0.08-0.02-0.15-0.03-0.22-0.05c-0.27-0.06-0.64-0.14-1.15-0.21c-0.48-0.06-1-0.11-1.5-0.15
			l-0.12-0.01l-0.12,0l-0.19,0c-0.73,0-1.52,0.05-2.29,0.16l-4.63,0.62l-3.37,0.45l-0.09,3.4l-0.13,4.82
			c-0.28,10.26,0.45,21.18,2.21,33.38l0.01,0.07l0.01,0.07l1.46,8c0.09,0.48,0.17,0.94,0.26,1.4c0.16,0.88,0.32,1.78,0.51,2.7
			l0.01,0.04l0.01,0.04l0.91,3.94l1.84,7.89l0.02,0.08l0.02,0.08l2.15,7.78c5.21,18.62,12.32,37.92,22.37,60.77
			c7.87,17.83,16.95,36.33,27.75,56.53l-6-4.25c-22.81-18.57-54.31-43.41-75.07-56.48l-7.37-4.64l-8.43-5.31l2.42,9.66l2.11,8.45
			c7.64,30.56,31.27,76.63,48.58,107.97c-38.04-22.22-74.41-37.39-110.79-46.23l-16.2-3.94l-11.27-2.74l7.18,9.1l10.33,13.09
			c19.9,25.22,55.54,62.2,106.02,110.03c-12.47-2.46-27.51-4.54-42.75-4.54c-20.19,0-36.98,3.66-49.91,10.89l-5.81,3.25l-6.64,3.71
			l6.82,3.37l5.96,2.95c23.37,11.55,45.93,23.65,63.97,33.64c-3.94-0.22-7.79-0.33-11.6-0.33c-0.38,0-0.75,0-1.13,0
			c-8.46,0.05-16.06,0.65-23.23,1.85c-4.08,0.68-8.04,1.59-11.79,2.72c-0.75,0.22-1.46,0.45-2.14,0.68
			c-0.26,0.09-0.53,0.18-0.8,0.27l-0.04,0.01l-0.04,0.01c-1.8,0.63-3.55,1.58-5.06,2.74c-2.94,2.24-5.22,5.47-6.41,9.1
			c-1.08,3.3-1.31,6.86-0.64,10.31c0.71,3.66,2.4,6.99,4.89,9.64c1.32,1.41,2.83,2.59,4.48,3.51c0.29,0.17,0.63,0.33,0.96,0.5
			l0.19,0.09l0.04,0.02l0.05,0.02l0.71,0.33l1.26,0.58l4.94,2.26l19.77,9.05c4.24,1.93,8.53,3.95,12.68,5.91
			c2.33,1.1,4.66,2.2,7,3.29l19.66,9.27c4.61,2.22,9.25,4.45,13.9,6.67c8.29,3.97,16.87,8.08,25.26,12.19
			c26.99,13.11,54.23,26.62,77.7,38.28c-1.38-0.11-2.75-0.21-4.1-0.31c-4.02-0.31-8.32-0.53-13.53-0.72
			c-4.1-0.14-7.74-0.21-11.14-0.21c-0.84,0-1.68,0-2.53,0.01c-5.29,0.05-9.72,0.24-13.95,0.6c-2.67,0.23-5.03,0.5-7.24,0.84
			l-1.79,0.29l-0.44,0.07l-0.13,0.02l-0.13,0.03l-0.78,0.18l-0.03,0.01l-0.03,0.01c-0.66,0.16-1.37,0.4-2.11,0.7
			c-2.78,1.14-5.29,3.22-6.91,5.71c-1.48,2.23-2.37,4.75-2.65,7.51c-0.25,2.69,0.08,5.25,0.98,7.66c0.96,2.63,2.72,5.08,4.93,6.86
			c1.15,0.91,2.4,1.65,3.75,2.23l0.09,0.04l0.09,0.03l0.74,0.28l0.06,0.02l0.06,0.02l0.53,0.18l0.03,0.01l0.03,0.01l0.79,0.25
			l12.61,4l25.21,8.04l50.35,16.28l100.63,32.94l94.37,31.14c-14.82,58.51-15.28,105.18-13.01,134.25
			c1.88,24.08,5.83,41.04,8.51,50.32c-9.35,5.99-17.03,12.57-22.87,19.57l-1.05,1.25l-0.7,0.84l-0.18,1.08l-0.26,1.61
			c-11.26,68.39,10.42,124.77,66.25,172.28c0.26,3.04,0.52,5.92,0.77,8.73c-11.09,0.32-31.33,3.13-55.52,16.74l-2.61,1.47
			l-1.74,0.98l-0.26,1.98l-0.4,2.97c-7.49,56.17,12.27,97.97,13.11,99.72l1.32,2.75l0.88,1.83l2,0.37l3,0.55
			c0.76,0.14,7.76,1.37,18.52,1.37c16.82,0,41.88-2.96,67.27-16.74c8.42,9.93,16.42,18.63,24.38,26.53
			c12.81,12.63,26.47,23.94,40.62,33.61c14.14,9.69,29.63,18.32,46.03,25.65c0.31,0.14,0.65,0.3,0.99,0.46
			c0.66,0.31,1.31,0.61,2,0.91c1.11,0.48,2.24,0.93,3.37,1.35c2.5,0.92,4.77,1.64,6.76,2.15l6.28,1.7l1.58,0.43l0.08,0.02l0.08,0.02
			l1.59,0.36l3.16,0.7c3.63,0.88,7.31,1.53,10.86,2.15c0.72,0.13,1.43,0.25,2.15,0.38c1.46,0.27,2.94,0.47,4.36,0.65
			c0.74,0.1,1.48,0.19,2.22,0.3l0.03,0l0.03,0c0.45,0.06,0.91,0.12,1.36,0.19c1.71,0.24,3.48,0.48,5.28,0.63l6.46,0.63l0.03,0
			l0.03,0c1.45,0.12,2.9,0.2,4.3,0.28c0.75,0.04,1.51,0.09,2.26,0.14l3.27,0.2l0.07,0l0.07,0l3.25,0.09
			c0.77,0.02,1.53,0.04,2.29,0.06c1.4,0.04,2.84,0.08,4.28,0.1l1.17,0c8.27,0,16.73-0.33,25.16-0.97
			c8.75-0.74,17.52-1.79,26.08-3.13c9.45-1.54,17.87-3.21,25.78-5.11c8.97-2.18,17.55-4.99,25.53-8.37
			c8.23-3.48,16.24-7.64,23.81-12.38c15.44-9.67,28.96-21.52,40.18-35.24c1.1-1.26,2.08-2.56,3.04-3.81
			c0.37-0.49,0.74-0.97,1.12-1.46l0.02-0.02l0.02-0.02c0.22-0.29,0.45-0.59,0.68-0.88c0.46-0.59,0.91-1.19,1.35-1.78l1.9-2.64
			c2.15-2.94,4.27-5.98,6.33-8.91l1.16-1.66c5.46-7.94,10.15-15.03,14.35-21.71c10.31-16.46,18.55-31.43,25.18-45.77
			c0.12-0.25,0.23-0.5,0.34-0.76c9.98,2.3,20.23,3.47,30.54,3.47c32.27,0,55.68-11.29,56.66-11.77l2.74-1.34l1.83-0.89l0.35-2
			l0.53-3c0.34-1.92,8.04-47.5-14.37-99.55l-1.18-2.75l-0.79-1.83l-1.94-0.47l-2.91-0.71c-11.1-2.7-22.35-4.06-33.43-4.06
			c-12.54,0-22.63,1.77-29.14,3.35c-0.14-0.91-0.28-1.83-0.42-2.74c8.82-15.72,15.73-30.35,21.12-44.67l0.02-0.05l0.02-0.05
			l4.21-12.15l0.04-0.12l0.03-0.12l3.45-12.37c0.35-1.17,0.6-2.31,0.83-3.46l0.66-3.13l1.32-6.27c0.4-1.66,0.62-3.28,0.84-4.85
			c0.08-0.6,0.17-1.2,0.26-1.8l0.93-6.46l0.01-0.04l0.01-0.04c2.2-18.25,1.81-36.09-1.17-53.01c-2.9-16.91-8.32-33.93-16.11-50.57
			l-0.74-1.59l-0.53-1.13l-1.08-0.63l-1.41-0.82c-3.46-2.09-7.34-3.74-11.56-4.9l-0.05-0.01l-0.05-0.01
			c-3.26-0.81-6.7-1.37-10.26-1.67c0.49-16.82-0.16-43.58-3.38-72.77c-3.48-31.5-11.09-75.35-27.64-107.63
			c31.07-32.91,129.32-133.75,217.87-190.22c6.41-4.09,9.03-11.76,6.51-19.08c-2.3-6.68-8.24-11-15.13-11
			c-0.51,0-1.03,0.02-1.55,0.07c-9.7,0.92-20.47,3.15-32.18,6.65c52.1-53.78,97.62-96.57,135.46-127.31
			c6.26-5.09,8.65-13.42,6.1-21.22c-2.53-7.73-9.3-12.99-17.26-13.39c-2.63-0.13-5.29-0.2-7.9-0.2c-18.99,0-37.95,3.51-57.67,10.69
			c6.07-14.12,12.52-32.06,15.14-49.3l0.68-4.51l0.78-5.15l-5.18,0.58l-4.53,0.5c-3.78,0.42-8.27,1.65-13.71,3.75
			c-3.16-0.55-6.38-1.09-9.63-1.61c29.64-55.08,50.63-96.77,62.42-123.96l6.85-15.79l4.67-10.77l-10.28,5.68l-15.07,8.33
			c-38.95,21.54-78.78,55.21-118.54,100.19c4.3-24.87,8.81-59.62,6.01-84.78l-0.51-4.57l-0.58-5.23l-4.88,1.95l-4.27,1.71
			c-7.56,3.03-18.32,13.05-33.55,29.29c19.92-87.73,22.5-151.99,7.91-196.14l-1.48-4.49l-1.01-3.06l-3.21,0.34l-4.7,0.5
			c-2.89,0.31-9.65,1.02-30.95,25.52c-14.17,16.3-30.01,37.88-44.59,60.77c-11.53,18.09-22.33,36.98-32.21,56.33
			c-1.11-19.53-2.99-42.51-6.17-61.13l-1.14-6.67l-1.3-7.62l-5.47,5.47l-4.79,4.79c-7.7,7.7-17.81,23.45-26.47,38.17
			c-0.47-4.65-0.97-9.26-1.49-13.79c-3.13-27.01-7-51.71-11.82-75.51c-2.87-14.07-5.77-26.32-8.88-37.46
			c-2.05-7.31-3.93-13.26-5.93-18.72c-1.41-3.83-2.62-6.77-3.94-9.55c-0.96-2.01-1.8-3.57-2.73-5.08c-0.64-1.04-1.29-1.97-1.99-2.85
			l-0.03-0.04l-0.03-0.04c-0.83-0.99-1.82-2.19-3.68-3.48l-0.04-0.03l-0.04-0.02c-0.43-0.29-1.03-0.66-1.81-1.02
			c-0.37-0.17-0.79-0.34-1.24-0.49c-0.36-0.12-0.53-0.16-0.7-0.2l-0.02-0.01l-0.06-0.02c-0.9-0.24-1.71-0.4-2.47-0.49
			c-0.74-0.1-1.49-0.15-2.29-0.15c-0.66,0-1.34,0.03-2.14,0.1l-0.04,0l-0.04,0c-2.38,0.26-4.74,0.89-7.21,1.93
			c-4.57,1.97-8.07,4.64-10.3,6.48c-4.94,4.15-9.45,9.18-14.24,15.85c-6.92,9.81-12.89,20.98-18.81,35.17
			c-7.33,17.84-13.24,37.12-18.36,59.99l-4.53-8.22l-4.53-8.2l-2.79,8.94l-3.85,12.31c-1.81-13.17-3.84-26.07-6.07-38.45
			c-3.22-17.79-6.46-32.52-10.21-46.37c-2.31-8.5-4.67-16.03-7.22-23.04c-3.33-9.09-6.61-16.33-10.32-22.78
			c-2.48-4.28-5.02-7.9-7.76-11.07c-3.94-4.47-7.79-7.53-12.14-9.67c-2.38-1.19-5.4-2.14-8.25-2.59
			C870.73,135.34,868.75,135.17,866.8,135.17L866.8,135.17z"/>
	</g>
</g>
<g id="Capa_6">
	<g>
		<g>
			<path d="M753.13,1055.86c17.99-14.9,36.29-27.81,54.39-38.39l2.12,3.39c-13.01,8.64-32.95,22.27-54.03,38.14L753.13,1055.86z"/>
			<path d="M808.54,1019.2c-13.17,8.74-33.06,22.36-54.13,38.2C771.45,1043.29,789.47,1030.34,808.54,1019.2 M806.52,1015.75
				c-18.19,10.63-36.59,23.61-54.66,38.58l4.96,6.28c21.05-15.84,40.95-29.45,53.94-38.07L806.52,1015.75L806.52,1015.75z"/>
		</g>
		<g>
			<path d="M697.64,1365.43c-0.32-4.29-0.62-8.58-0.92-12.88l3.98-0.35c0.49,4.58,0.8,8.96,0.93,13.02L697.64,1365.43z"/>
			<path d="M698.72,1352.42c0.46,4.3,0.78,8.63,0.92,12.87C699.32,1361,699.01,1356.71,698.72,1352.42 M702.69,1351.99l-7.97,0.7
				c0.3,4.3,0.6,8.59,0.92,12.89l7.99-0.42C703.5,1361.05,703.18,1356.63,702.69,1351.99L702.69,1351.99z"/>
		</g>
		<path class="st17" d="M1151.35,1343.49c0,0,49.43-11.18,66.2,0.43c15.9,35.68,13.76,76.95,11.18,91.13
			c-32.24,16.33-70.5,13.76-83.39,6.88c13.33-24.93,12.04-49.86,11.61-62.33C1156.51,1367.13,1151.35,1343.49,1151.35,1343.49z"/>
		<path class="st18" d="M1079.79,1549.08c-33.63,37.84-111.42,55.71-178.69,53.61c-67.27-2.11-126.14-63.07-161.87-100.91
			c-35.72-37.82-33.64-39.95-39.94-122.86c2.73-28.52-8.79-70.23-9.44-72.55c9.52,32.56,53.58,72.42,53.58,72.42l24.18,37.85
			c0,0,7.35-22.08,16.82-47.31c122.98-59.91,276.44-37.84,276.44-37.84l31.54,45.2c0,0,2.1-6.3,13.66-47.3
			c23.13-21.02,33.64-62.02,33.64-62.02s11.56,95.66,18.92,121.94C1165.99,1415.58,1121.84,1497.57,1079.79,1549.08z"/>
		<path class="st13" d="M802.44,1395.12c0,0,142.29,6.59,246.76-31.96c16.35,21.55,20.81,19.57,20.81,19.57
			s-8.18,98.85-54.26,136.76c-20.07-19.32-24.53-52.77-24.53-52.77l15.61-15.61l0.74-24.53l-17.84,26.76l-91.42,12.64l-29.73-20.07
			c0,0,8.18,26.76,29.73,32.7c-17.84,26.01-23.04,59.46-23.04,59.46s-59.46-40.88-82.5-119.67
			C798.73,1390.9,802.44,1395.12,802.44,1395.12z"/>
		<path class="st13" d="M695.48,1375.96c0,0-47.28-33.53-61.04-88.55c-10.32-41.27-1.72-73.08-1.72-73.08l42.99-29.23
			c0,0-12.04-46.43,18.91-77.38c49-48.14,129.82-98.87,129.82-98.87s52.44,26.65,127.24-7.74c4.3-10.32,3.44-12.9,3.44-12.9
			s124.66,42.99,147.01,78.23c17.19,30.95,25.79,63.62,25.79,63.62l36.97,3.44c0,0,44.71,107.47-18.05,192.58
			c-6.02-49-7.13-58.73-7.13-58.73s-11.65,42.1-33.64,62.02c-9.1,43.13-13.66,47.3-13.66,47.3l-31.54-45.2
			c0,0-73.08-14.85-122.95-2.81c-4.3,6.02-4.3,6.02-4.3,6.02l-18.91,4.3l-7.74-4.3c0,0-69.7,2.21-122.54,34.63
			c-10.71,30.71-16.82,47.31-16.82,47.31l-24.18-37.85c0,0-42.79-38.08-51.39-66.45C692.9,1344.15,695.48,1375.96,695.48,1375.96z"
			/>
		<path class="st19" d="M753.94,1234.83c0,0-0.63-38.52,24.63-49.26c25.26-10.74,44.84-6.32,44.84-6.32s25.26,10.74,22.74,43.58
			C822.15,1233.56,785.52,1245.56,753.94,1234.83z"/>
		<path class="st19" d="M961.72,1203.88c0,0-6.32-26.52,13.89-46.1c25.26-15.16,68.21-17.68,79.57,36.63
			C1014.14,1213.98,976.88,1207.67,961.72,1203.88z"/>
		<path class="st22" d="M1268.16,739.76c51.67-14.68,63.41-1.76,63.41-1.76s-58.27,41.87-119.96,95.14
			c-38.75,33.44-78.84,71.38-106.7,106.27c0,0,35.23,88.09,35.23,190.85c-8.22,2.35-14.09,3.52-14.09,3.52s-9.39-51.09-26.42-71.64
			c-17.03-20.55-106.29-66.94-142.11-72.81c-4.11,17.03-11.74,17.03-11.74,17.03s-75.16,18.79-114.51,5.28
			c-2.93-2.94-4.11-4.7-4.11-4.7s-81.03,32.89-139.75,110.99c-13.51,27.59-11.16,65.18-9.99,71.63c0.42,2.31-9.42,4.02-22.25,5.26
			c0.37-0.38,0.53-0.56,0.53-0.56s-22.9-113.33,7.63-191.43c-2.9-0.81-16.21-5.32-35.68-12.03
			c-49.58-17.09-139.18-48.45-199.05-69.45c-35.55-12.46-60.63-21.28-60.63-21.28s0.4-7.92,20.56-11.1
			c13.01-2.05,34.23-2.13,68.89,3.16c2.97,0.45,6.03,0.95,9.2,1.48c-2.44-1.08-4.88-2.16-7.32-3.25
			c-106.98-47.75-217-109.49-217-109.49s-22.9-30.54,83.97-15.86c-21.02-13.31-41.81-25.53-58.26-34.91
			c-19.83-11.33-33.34-18.52-33.34-18.52s46.39-22.9,119.2,3.52c-81.62-64.01-123.9-128.6-123.9-128.6s66.36,18.21,127.43,56.37
			c-33.21-60.59-60.07-132.16-60.48-133.28c1.21,0.93,92.91,71.73,114.5,87.48c-61.66-88.08-83.97-185.56-79.27-215.5
			c39.03,20.39,105.82,82.4,106.86,83.37c-0.17-1.15-11.08-72.95-2.34-91.01c32.3,28.78,73.4,71.64,73.4,71.64
			s-25.84-150.91-4.7-172.64c12.92-7.63,58.14,36.41,93.37,105.7c7.63-38.17,17.62-68.7,17.62-68.7s23.48,20.55,45.8,63.42
			c2.93-31.71-7.64-155.61,35.23-177.34c19.96-6.46,58.13,65.77,72.81,134.47c2.94-31.12,14.1-51.09,14.1-51.09l15.85,31.12
			c0,0,6.46-150.91,66.36-163.83c31.7-7.63,46.97,79.28,61.07,173.82c11.74-11.16,15.26-32.89,15.26-32.89l13.51,18.21
			c0,0,19.38-133.3,66.94-131.54c17.62,5.87,39.93,128.6,41.69,182.62c22.9-39.34,37-53.43,37-53.43s7.04,71.64,9.39,88.67
			c34.06-80.45,101-153.85,114.51-162.07c17.61,46.39-9.4,199.06-14.1,215.5c27.02-26.42,49.92-45.21,49.92-45.21
			s-1.18,76.33-9.99,109.22c60.59-67.59,128.13-111.47,129.18-112.15c-0.36,1.02-22.71,64.21-56.72,124.48
			c-4.93,8.74-10.11,17.42-15.5,25.84c24.52-13.54,37.87-18.87,44.44-20.97c3.98-1.26,5.48-1.35,5.48-1.35s-0.23,0.81-0.65,2.26
			c-2.78,9.71-14,48.1-21.67,62.92c50.5-24.66,85.15-21.72,88.67-7.63C1419.66,601.77,1345.67,644.05,1268.16,739.76z"/>
		<path class="st17" d="M828.09,931.49c0,0,76.31-25.76,117.33-7.63c20.99,41.97,6.68,79.18,6.68,79.18s-82.94,32.61-124.94,3.9
			C806.15,962.02,828.09,931.49,828.09,931.49z"/>
		<path class="st17" d="M698.61,1406.04c0,0-43.25-1.43-59.59,15.08c-4.46,57.57,5.81,81.35,12.84,90.53
			c35.66,4.86,57.28,3.24,84.29-15.67C702.65,1471.66,698.61,1406.04,698.61,1406.04"/>
		<path class="st26" d="M828.71,924.59c0,0-17.87,25.7-1.55,82.34c-68.82,40.14-121.81,88.79-147,123.54
			c-13.9,26.06-4.45,54.63-4.45,54.63l-20.01,9.16c0,0-29.4-141.96,14.9-206.25C743.57,945.44,828.71,924.59,828.71,924.59z"/>
		<path class="st27" d="M819.82,936.93c0,0-68.84,14.99-141.09,61.34c-23.17,61.34-24.54,163.58-10.91,188.11
			c10.22,0,9.34-1.28,9.34-1.28s-27.06-33.48,30.19-88c57.25-55.89,117.08-88.24,117.08-88.24S813.68,956.69,819.82,936.93z"/>
		<path class="st26" d="M897.33,913.3c0,0,38.83,0.27,48.08,10.56c10.12,32.88,12.1,65.47,12.1,65.47s104.64,32.27,142.11,72.81
			c25.31,33.59,26.42,71.64,26.42,71.64l12.79-0.69c0,0,10.33-125-33.93-193.68C1042.41,914.17,955.54,896.8,897.33,913.3z"/>
		<path class="st28" d="M986.67,914.45c2.01,0,48.23,59.62,16.75,95.12c67.66,25.45,95.12,50.24,102.49,57.61
			c6.7-31.48-5.36-113.88-22.11-131.29C1039.59,917.8,986.67,914.45,986.67,914.45z"/>
		<path class="st28" d="M1075.44,931.75c0,0,36.25,82.04,17.17,125.28c-37.52-28.62-71.86-44.52-71.86-44.52s19.71-57.87-0.64-92.85
			C1060.18,923.48,1075.44,931.75,1075.44,931.75z"/>
		<polygon class="st25" points="923.48,1151.94 900.11,1154.38 920.87,1316.74 930.79,1323.85 945.4,1301.45 964.88,1304.37 
			972.67,1282.94 956.11,1271.74 		"/>
		<path class="st25" d="M879.85,1433.19l24.79,18l76.41-12.23l24.45-27.17C1005.51,1411.8,962.04,1432.51,879.85,1433.19z"/>
		<path class="st25" d="M1098.87,1078.38c-12.49-17.14-81.64-57.15-131.21-67.06c-35.57,21.58-97.97,36.74-148.12,13.41
			c-51.9,28.58-105.71,88.73-105.71,88.73c-23.33,27.41,6.41,27.99,6.41,27.99s40.39-47.91,93.46-46.74
			c53.07,1.17,62.4,39.07,62.4,39.07l40.24-3.5c0,0,12.83-59.48,85.14-60.65c72.31-1.17,92.24,30.75,92.24,30.75
			s23.9,82.71-24.61,112.01c-36.5,22.57-104.7,1.92-104.7,1.92l5.76,45.63l27.38,21.13l-4.66,11.42c0,0,57.76,7.97,76.48,14.34
			c11.53,12.97,17.15,22.28,17.15,22.28l22.55-58.05c10.03-23.48,14.16-49.06,12.01-74.5
			C1117.59,1155.25,1110.61,1094.49,1098.87,1078.38z"/>
		<path class="st25" d="M861.04,1232.96c-5.03,33.56-7.27,44.75-7.27,44.75s-48.11,30.21-82.79,37.48
			c-39.16-39.16-38.04-68.25-38.04-68.25S807.89,1264.29,861.04,1232.96z"/>
		<path class="st16" d="M1136.58,1256.71c0,0,10.98-20.74,9.76-42.7c0.61-31.11,8.54-48.8,8.54-48.8s12.2,21.35,13.42,39.65
			c1.22,19.52-7.32,76.87-22.57,95.78C1143.29,1268.91,1136.58,1256.71,1136.58,1256.71z"/>
		<path class="st34" d="M818.34,1033.02c0,0-115.05,80.41-99.59,99.59c42.06-45.15,128.66-77.32,160.83-9.28
			c26.6-2.47,32.17-3.71,32.17-3.71s16.08-51.34,69.28-58.76s107.01,21.65,107.01,21.65s-56.29-50.72-120.62-63.09
			C914.21,1054.67,839.37,1042.3,818.34,1033.02z"/>
		<path class="st34" d="M975.5,1225.43c0,0,102.45,33.93,131.06-49.23c16.63,45.9-5.02,90.31-25.65,134.22
			c-7.98-11.31-7.98-11.31-7.98-11.31l-70.48-11.79l1.67-6l-28.61-27.28V1225.43z"/>
		<path class="st35" d="M986.43,1237.77c0,0,83.93,23.1,118.29-39.43c1.69,45.63-28.17,80.55-28.17,80.55
			S997.14,1278.89,986.43,1237.77z"/>
		<path class="st35" d="M818.74,1042.5c0,0-58.68,39.86-57.58,49.27c35.99-22.7,90.79-20.48,112.94,4.98
			c29.34-3.88,43.18-4.43,43.18-4.43s19.93-53.15,117.37-35.43c-31-21.04-66.99-29.34-66.99-29.34S893.48,1075.16,818.74,1042.5z"/>
		<path class="st34" d="M744.05,1253.89c1.29,0.43,57.17,16.77,109.19-11.18c-4.73,24.07-6.45,31.38-6.45,31.38
			s-49.44,23.21-74.8,26.65C752.65,1278.39,744.05,1253.89,744.05,1253.89z"/>
		<path class="st35" d="M764.45,1261.76c0,0,39.54,9,83.78-11.74c-3.91,16.05-6.66,21.92-6.66,21.92l-57.94,18.4
			C783.63,1290.34,770.71,1276.63,764.45,1261.76z"/>
		<polygon class="st34" points="907.84,1161.02 918.5,1161.65 946.09,1274.54 961.77,1286.46 959.89,1297.12 941.08,1292.1 
			926.02,1305.27 		"/>
		<path class="st36" d="M952.1,1116.93c12.9-24.5,67.87-37.51,118.16-10.85c20.2,14.19,18.11,74.9-13.27,89.52
			c-9.89-36.97-28.8-52.01-56.31-46c-23.64,3.87-29.66,10.75-29.66,10.75s-16.87,26.45-9.3,43.53
			C958.12,1204.62,928.46,1161.21,952.1,1116.93z"/>
		<path class="st37" d="M955.22,1178.15c0,0-14.2-40.69-0.46-66.46c14.49-16.35,52.45-28.2,95.8-11.89
			c19.38,7.29,33.25,36.53,27.59,56.45c-3.29,11.57-9.62,22.07-16.15,28.6c-6.87-26.62-22.58-42.79-53.92-42.36
			C976.74,1142.91,959.94,1151.53,955.22,1178.15z"/>
		<path class="st36" d="M723.68,1156.77c0,0,19.49-41.29,77.48-41.75c35.72,0,74.69,44.54,74.69,44.54l-2.32,59.38l-22.73,3.25
			c0,0,9.74-32.94-26.44-51.96c-42.68-0.93-83.04,8.35-76.08,66.34C730.17,1231.93,714.4,1191.57,723.68,1156.77z"/>
		<path class="st37" d="M855.9,1215.23l17.17-2.78l2.78-52.89c0,0-31.08-41.75-75.62-42.68c-48.71,2.32-71.91,36.19-72.37,56.6
			c-0.46,20.41,7.89,41.29,14.85,47.32c2.32-34.79,24.12-52.42,54.28-53.82C827.13,1165.59,854.51,1166.05,855.9,1215.23z"/>
		<path class="st34" d="M699.17,1108.31c0,0-16.44,43.45-2.35,86.91c14.09,43.45,10.13,93.38,15.41,106.88
			c11.16,19.97,41.54,48.38,41.54,48.38l19.98,49.09l-4.68,17.07l-24.18-37.85c0,0-42.79-36.18-50.42-72
			c-2.94-71.05-15.82-103.02-17.3-121.69S679.79,1126.51,699.17,1108.31z"/>
		<polygon class="st35" points="864.99,1319.25 891.29,1306.9 914.74,1326.22 930.79,1323.85 945.4,1301.45 964.88,1304.37 
			971.78,1285.98 978.43,1288.83 973.68,1316.08 951.18,1311.65 934.38,1336.68 914.71,1338.99 889.39,1322.42 867.52,1329.71 		"/>
		<path class="st25" d="M1051.04,1370.4c0.27-1.53,9.85,12.96,9.85,12.96s-9.33,76.71-44.06,122.85
			c-9.33-7.78-12.96-10.37-12.96-10.37l11.92-11.92l1.56-39.91C1017.35,1444,1040.68,1429.49,1051.04,1370.4z"/>
		<path class="st34" d="M1052.42,1376.9l5.05,6.43c0,0-7.35,69.79-40.4,118.46c-5.97-5.51-7.35-7.81-7.35-7.81l7.81-7.81l2.75-40.4
			C1020.28,1445.77,1048.75,1419.6,1052.42,1376.9z"/>
		<path class="st34" d="M990.77,1419.05l-11.13,15.58l-72.99,12.02l-17.8-14.24C888.85,1432.4,933.36,1438.19,990.77,1419.05z"/>
		<path class="st25" d="M805.33,1405.41c0,0,10.78,37.5,47.82,62.35c5.16,20.63,17.81,36.1,17.81,36.1l11.25,6.56l-8.91,13.59
			c0,0-44.53-27.19-71.25-104.54C803.92,1411.04,805.33,1405.41,805.33,1405.41z"/>
		<path class="st34" d="M806.27,1415.73l-1.41,5.16c0,0,25.31,70.79,66.57,98.44c3.28-6.56,5.16-7.97,5.16-7.97l-10.78-5.16
			c0,0-15-25.31-16.41-36.1C831.11,1456.98,814.7,1434.48,806.27,1415.73z"/>
		<polygon class="st36" points="858.14,1301 795.36,1339.64 784.49,1358.96 801.8,1341.65 861.36,1313.88 		"/>
		<polygon class="st36" points="978.54,1294.09 1063.78,1312.81 1083.7,1340.29 1061,1317.99 976.15,1302.85 		"/>
		<polygon class="st37" points="874.4,1188.02 887.96,1152.15 927.32,1146.47 932.13,1135.97 858.21,1145.15 875.27,1157.84 		"/>
		<path class="st34" d="M680.41,1207.77c0,0-0.08,0.09-0.24,0.25c-7.92,8.44-19.5,12.16-30.94,10.44
			c-8.07-1.21-14.29,1.02-14.29,1.02s20.16-23.44,40.32-27.66L680.41,1207.77z"/>
		<path class="st36" d="M653.39,1245.39c0,0-7.42,52.58,15.46,79.79c15.46,17.32,27.22,29.07,27.22,29.07l-8.66-42.68l-12.99-54.43
			L653.39,1245.39z"/>
		<polygon class="st16" points="655.33,1246.65 653.79,1277.43 669.18,1314.37 693.8,1340.02 692.04,1312.34 675.34,1259.99 		"/>
		<path class="st34" d="M1166.6,1138.04c0,0-15.93,4.78-21.51,17.53s-18.32-3.98-18.32-3.98l1.15-21.5
			C1127.92,1130.08,1142.7,1120.52,1166.6,1138.04z"/>
		<path class="st38" d="M922.08,1352.48l17.09-1.77l7.07-13.55c0,0,57.16-11.2,103.12,1.18c-60.69,19.45-127.28,25.34-127.28,25.34
			V1352.48z"/>
		<path class="st38" d="M1137.46,1310.62c0,0-4.68,13.26-21.07,24.97c-7.8,54.62-15.6,66.32-15.6,66.32l-25.75-35.89l5.46,22.63
			c0,0-7.02,96.75-60.08,139.66c-28.87-16.39-39.01-60.12-39.01-60.12l-35.11,4.68l11.7,114.74l14.82-16.38l31.99,11.7
			c0,0,105.33-35.11,142-178.67C1146.04,1344.95,1137.46,1310.62,1137.46,1310.62z"/>
		<path class="st16" d="M703.38,1103.71l-15.98,14.22c0,0-5.57,64.26,9.05,90.43c12.31,32.32,6.16,80.03,10.77,94.65
			c10.77,25.39,39.24,54.63,39.24,54.63l23.85,47.71l11.54-30.78l-26.93-38.47c0,0-33.86-34.63-33.86-90.8
			C718,1188.35,683.38,1170.65,703.38,1103.71z"/>
		<path class="st59" d="M653.96,987.72l-26.31,3.08c-79.02-27.23-259.68-90.73-259.68-90.73s0.4-7.92,20.56-11.1
			c39.98,0.97,77.45,8.62,77.45,8.62L653.96,987.72z"/>
		<path class="st59" d="M227.04,583.04c0,0,184.8,206.41,439.84,405.26c22.69-11.89,22.69-11.89,22.69-11.89
			S545.85,805.66,488.57,750.54S290.8,593.85,227.04,583.04z"/>
		<path class="st59" d="M747.21,946.67c0,0-166.66-241.54-203.57-363.9c-35.86-123.41-59.07-283.74-44.3-303.78
			c14.77-20.04,72.78,42.19,91.77,85.44c18.99,43.25,84.38,223.61,100.2,272.13s117.08,285.85,117.08,285.85L747.21,946.67z"/>
		<path class="st59" d="M862.18,905.53c0,0-56.96-337.53-63.29-418.75c-6.33-81.22,4.22-277.41,42.19-326.98
			c30.59-32.7,58.01-6.33,66.45,37.97s32.7,223.61,31.64,301.67c-1.05,78.05-32.7,401.87-32.7,401.87L862.18,905.53z"/>
		<path class="st59" d="M967.66,908.69c0,0,53.79-201.46,69.62-259.48c15.82-58.01,55.9-205.68,69.62-251.04
			s114.97-165.6,114.97-165.6s17.93,37.97,5.27,140.29c-12.66,102.31-71.73,268.97-88.6,304.83s-111.81,239.44-111.81,239.44
			L967.66,908.69z"/>
		<path class="st59" d="M1096.43,926.1c0,0,135.11-248.05,166.37-289.39c79.66-59.49,151.84-74.2,162.13-53.73
			c-55.25,57.77-187.34,183.81-212.55,211.03C1187.18,821.23,1096.43,926.1,1096.43,926.1z"/>
		<path class="st60" d="M439.01,464.94c0,0-6.18-71.62-2.36-86.89c35.61,27.98,73.42,67.52,73.42,67.52s28.33,127.08,42.32,165.24
			C501.51,526.86,439.01,464.94,439.01,464.94z"/>
		<path class="st60" d="M603.26,379.33c0,0,4.57-61.21,13.1-69.4c31.42,26.15,47.95,59.22,47.95,59.22S679.57,553.57,719,687.12
			C680.84,606.99,619.79,425.11,603.26,379.33z"/>
		<polygon class="st60" points="770.2,330.48 778.78,280.12 800.15,310.51 791.5,409.85 		"/>
		<polygon class="st60" points="928.86,332.27 942.84,287.61 955.57,310.64 942.85,393.32 		"/>
		<path class="st60" d="M1061.13,364.06l40.85-60.59l9.39,88.67l-43.88,115.65C1067.49,507.78,1064.95,404.76,1061.13,364.06z"/>
		<path class="st61" d="M1424.94,582.98c-1.93,6.86-13.01,16.84-30.08,31.43c-28.28,24.14-72.98,60.88-119.69,116.83
			c-2.33,2.79-4.67,5.63-7.01,8.52c5.05-1.44,9.72-2.61,14.03-3.55c39.82-8.73,49.38,1.79,49.38,1.79s-9.46,6.8-24.79,18.39
			c-22.71,17.2-58.33,44.94-95.17,76.75c-80.33-64.28-213.57-134.53-395.39-108.43C642.89,749.58,527.83,826.25,459.3,890.36
			c-18.38-8.2-36.85-16.82-54.84-25.46c-86.7-41.68-162.16-84.03-162.16-84.03s-6.6-8.8,3.83-14.69c8.99-5.07,30.65-7.97,80.14-1.17
			c-21.02-13.31-41.81-25.53-58.26-34.91c150.75-4.28,384.52-31.37,607.21-140.45c165.39-81.01,324.06-86.46,448.95-67.74
			c9.86,1.48,19.52,3.11,28.94,4.87c1.62,0.3,3.23,0.6,4.83,0.91c-2.78,9.71-14,48.1-21.67,62.92
			C1386.77,565.95,1421.42,568.89,1424.94,582.98z"/>
		<path class="st60" d="M1209.94,451.82c0,0,46.28-46.96,51.76-51.46c0.39,61.64-9.99,109.22-9.99,109.22l-109.18,155.92
			L1209.94,451.82z"/>
		<polyline class="st60" points="1308.67,547.75 1311.97,546.27 1358.59,525.43 1336.27,590.61 1249.37,645.15 		"/>
		<path class="st60" d="M457.42,892.13c-10.77,10.16-20.36,19.98-28.82,29.22c-35.55-12.46-60.63-21.28-60.63-21.28
			s0.4-7.92,20.56-11.1C401.54,886.92,422.76,886.84,457.42,892.13z"/>
		<path class="st60" d="M296.92,509.59c1.1,3.28,44.34,106.3,64.69,134.28c106.84,81.4,169.16,141.18,169.16,141.18L407.39,587.91
			L296.92,509.59z"/>
		<path class="st62" d="M1331.57,738c0,0-9.46,6.8-24.79,18.39c-7.25-6.68-15.42-13.46-24.59-20.18
			C1322.01,727.48,1331.57,738,1331.57,738z"/>
		<path class="st61" d="M1394.86,614.41c-28.28,24.14-72.98,60.88-119.69,116.83c-76.59-52.79-217.66-98.23-468.02-43.71
			c-196.6,73.44-314.78,133.13-402.69,177.37c-86.7-41.68-162.16-84.03-162.16-84.03s-6.6-8.8,3.83-14.69
			c31.38,1.33,120.22,2.37,241.68-19.06l39.2,38.43l-24.1-41.18c89.85-16.88,196.26-46.01,309.81-95.81
			c145.53-63.83,265.3-87.06,365.57-84.93l-30.14,97.85l67.3-95.85c27.95,2.44,54.3,6.89,79.2,12.97
			c-7.96,15.39-19.85,36.3-37.27,62.96c16.63-13.3,55.12-33.82,84.85-48.86C1360.6,599.13,1378.11,606.43,1394.86,614.41z"/>
		<path class="st47" d="M1178.62,1344.89c0,0,31.37,80.77-16.02,102.13c40.05-4.67,59.41-8.68,59.41-8.68s-7.34-70.09-18.69-96.13
			C1192.64,1342.22,1178.62,1344.89,1178.62,1344.89z"/>
		<path class="st48" d="M1200.65,1343.02c0,0,14.2,76.98,14.74,97.19c-14.74,2.73-30.03,7.1-30.03,7.1s19.11-68.79,0.55-105.92
			C1199.01,1342.47,1200.65,1343.02,1200.65,1343.02z"/>
		<path class="st48" d="M1160.86,1347.81c0,0,41.2,3.01,50.24,7.03c8.04,29.64,15.57,74.86,15.57,74.86s-2.51-66.32-11.56-87.42
			C1202.56,1340.78,1160.86,1347.81,1160.86,1347.81z"/>
		<path class="st63" d="M1154.57,1355.18l19.51-0.56c0,0,16.72,62.44-6.69,81.39c-9.48,0-15.61-3.9-15.61-3.9
			S1161.26,1410.37,1154.57,1355.18z"/>
		<path class="st63" d="M662.35,1413.85c0,0,8.36,10.03,0.84,16.72c21.32-5.44,35.96-2.93,35.96-2.93l-2.93-18.4
			C696.22,1409.25,676.57,1406.74,662.35,1413.85z"/>
		<path class="st63" d="M653.99,1447.72c0,0,15.47-6.27,22.16-6.27c1.25,20.07,1.25,30.94,1.25,30.94l-21.32,5.85
			C656.08,1478.24,661.93,1456.5,653.99,1447.72z"/>
		<path class="st63" d="M691.2,1442.7h9.62c0,0,7.53,25.92,15.47,32.61c10.87,10.03,12.13,12.96,12.13,12.96
			s-36.38,12.96-67.73,15.05c-6.69-5.02-4.6-8.78-4.6-8.78s31.78-7.53,36.79-15.05C689.95,1460.68,691.2,1442.7,691.2,1442.7z"/>
		<path class="st64" d="M949.07,939.66c0,0-22.89-5.57-60,18.56c-37.11,24.12-68.66,1.86-68.66,1.86l6.19,36.49
			c0,0,27.22-4.95,68.66-19.17c41.44-14.23,58.14,0,58.14,0L949.07,939.66z"/>
		<path class="st65" d="M820.1,974.85c0,0,29.27,16.05,64.2-5.66c34.93-21.71,66.56-18.88,66.56-18.88l1.42,17.47
			c0,0-36.82-10.38-68.44,6.14c-31.63,16.52-58.06,15.1-58.06,15.1L820.1,974.85z"/>
		<g>
			<path class="st66" d="M649.46,1122.55c12.65-13.16,25.66-25.9,38.93-38.41c13.27-12.5,26.82-24.69,40.74-36.49
				c13.93-11.77,28.22-23.16,43.14-33.77c7.44-5.32,15.1-10.37,22.95-15.13c7.86-4.75,15.95-9.19,24.43-12.94
				c1.52-0.67,3.29,0.01,3.96,1.53c0.67,1.52-0.02,3.29-1.53,3.96l-0.03,0.01l-0.01,0c-8.2,3.52-16.13,7.78-23.89,12.35
				c-7.75,4.6-15.35,9.49-22.75,14.67c-14.85,10.33-29.16,21.49-43.13,33.05c-13.96,11.58-27.59,23.59-40.93,35.91
				c-13.33,12.32-26.46,24.91-39.16,37.85l-0.02,0.02c-0.73,0.74-1.92,0.75-2.66,0.03C648.76,1124.47,648.75,1123.29,649.46,1122.55
				z"/>
		</g>
		<g>
			<path class="st66" d="M1131.63,1064.43c-12.7-10.02-26.12-19.3-39.78-28.07c-13.69-8.75-27.74-16.94-42.16-24.39
				c-7.2-3.75-14.51-7.27-21.89-10.61c-7.38-3.36-14.88-6.43-22.44-9.31c-7.55-2.91-15.25-5.41-22.98-7.75
				c-7.75-2.29-15.59-4.18-23.48-5.81l-0.05-0.01c-1.62-0.34-2.67-1.92-2.33-3.55c0.34-1.62,1.92-2.67,3.55-2.33
				c0.01,0,0.03,0.01,0.03,0.01c8.06,1.76,16.06,3.79,23.93,6.22c7.85,2.47,15.65,5.1,23.29,8.15c7.65,3.01,15.21,6.21,22.64,9.7
				c7.44,3.46,14.79,7.11,22.01,10.98c14.48,7.69,28.55,16.11,42.24,25.08c6.85,4.49,13.6,9.12,20.24,13.9
				c6.65,4.79,13.18,9.69,19.58,14.89c0.81,0.65,0.93,1.84,0.27,2.64c-0.65,0.8-1.82,0.93-2.62,0.29L1131.63,1064.43z"/>
		</g>
		<g>
			<path class="st66" d="M814.54,950.89c-3.54,0.56-7.18,1.36-10.76,2.17c-3.6,0.8-7.17,1.75-10.72,2.73
				c-3.56,0.97-7.1,2.02-10.64,3.1c-3.52,1.12-7.03,2.29-10.52,3.5c-6.96,2.48-13.86,5.15-20.64,8.07c-6.8,2.9-13.5,6.01-20.09,9.34
				c-13.21,6.6-25.98,14.09-37.98,22.64c-12.07,8.43-23.29,18.05-33.42,28.62l-0.05,0.05c-1.15,1.2-3.05,1.24-4.24,0.09
				c-1.2-1.15-1.24-3.05-0.09-4.24c0.04-0.04,0.08-0.08,0.12-0.12l4.13-3.85l2.07-1.92l2.12-1.86c1.42-1.23,2.82-2.49,4.25-3.7
				l4.36-3.56c5.88-4.66,11.88-9.17,18.1-13.34c3.07-2.14,6.26-4.1,9.41-6.13c3.21-1.92,6.38-3.91,9.65-5.73
				c6.46-3.76,13.06-7.27,19.76-10.58c13.37-6.67,27.21-12.32,41.21-17.5c3.5-1.3,7.01-2.55,10.55-3.76
				c3.53-1.23,7.06-2.43,10.62-3.56c7.15-2.25,14.24-4.42,21.62-6.34c1.61-0.42,3.25,0.55,3.66,2.15s-0.55,3.25-2.15,3.66
				c-0.09,0.02-0.19,0.04-0.28,0.06L814.54,950.89z"/>
		</g>
		<g>
			<path class="st66" d="M1116.01,973.38c-6.29-3.19-13-6.03-19.64-8.76c-3.36-1.31-6.69-2.71-10.09-3.9
				c-3.39-1.23-6.78-2.49-10.21-3.61c-13.66-4.67-27.54-8.77-41.62-12.06c-14.06-3.31-28.22-6.32-42.56-8.22
				c-7.14-1.13-14.34-1.77-21.53-2.46c-3.59-0.4-7.2-0.53-10.81-0.7c-3.61-0.17-7.21-0.36-10.81-0.48l-0.11,0
				c-1.66-0.05-2.96-1.44-2.91-3.1s1.44-2.96,3.1-2.91c0.1,0,0.21,0.01,0.31,0.03c7.25,0.98,14.5,1.65,21.72,2.67
				c7.21,1.04,14.44,1.91,21.62,3.18l5.39,0.87c1.8,0.29,3.6,0.54,5.38,0.9l10.73,2c3.59,0.6,7.14,1.43,10.7,2.16
				c3.56,0.77,7.13,1.45,10.66,2.35l10.62,2.56l10.55,2.83c3.53,0.9,7.01,1.98,10.51,2.97c3.51,0.97,6.98,2.09,10.46,3.18
				c6.96,2.16,13.84,4.59,20.72,7.02c6.88,2.52,13.63,5.12,20.46,8.12c1.52,0.67,2.21,2.44,1.54,3.95
				c-0.67,1.52-2.44,2.21-3.95,1.54c-0.05-0.02-0.1-0.04-0.14-0.07L1116.01,973.38z"/>
		</g>
		<path class="st67" d="M805.13,930.73c0,0-13.58,57.96,8.6,83.32c13.13-5.43,14.94-8.6,14.94-8.6s-18.11-41.66,0.91-84.22
			C816.9,923.03,805.13,930.73,805.13,930.73z"/>
		<path class="st67" d="M896.87,908.14c1.86,0,49.81-4.19,65.64,1.86c28.86,52.14,12.57,86.59,12.57,86.59l-16.76-5.12
			c0,0-3.72-58.66-13.97-69.83c-38.17-9.31-54.47-6.05-54.47-6.05L896.87,908.14z"/>
		<path class="st71" d="M673.95,1187.86c0,0-26.11,9.98-41.46,28.41c-9.98,60.66,6.14,115.95,65.27,165.09"/>
		<g>
			<path d="M1124.67,1126.12c1.04-0.24,1.83-0.38,2.72-0.54c0.86-0.15,1.73-0.29,2.59-0.41c1.73-0.25,3.45-0.44,5.19-0.58
				c3.47-0.27,6.98-0.35,10.53-0.15c3.55,0.23,7.15,0.75,10.75,1.64c3.6,0.99,7.19,2.43,10.58,4.49l0,0l1.44,0.84l0.74,1.59
				c7.37,15.73,12.86,32.42,15.8,49.57c3.02,17.14,3.21,34.7,1.14,51.84l-0.92,6.41c-0.33,2.13-0.54,4.28-1.05,6.38l-1.33,6.32
				l-0.67,3.16c-0.21,1.05-0.44,2.11-0.75,3.14l-3.47,12.41l-4.21,12.15c-6.03,16.04-13.61,31.37-22.02,46.17l-4.99-2.8
				c7.81-14.81,14.76-30.05,20.13-45.8l3.71-11.9l2.97-12.08c0.27-1,0.45-2.02,0.63-3.04l0.55-3.05l1.09-6.1
				c0.43-2.02,0.56-4.09,0.81-6.14l0.69-6.15c1.46-16.41,0.76-32.98-2.58-49.02c-3.27-16.05-8.9-31.54-16.31-46.17l2.18,2.42l0,0
				c-2.16-1.28-4.59-2.3-7.23-3.03c-2.68-0.66-5.5-1.08-8.4-1.27c-2.91-0.16-5.88-0.1-8.85,0.14c-1.49,0.11-2.98,0.28-4.45,0.5
				c-0.74,0.1-1.47,0.22-2.2,0.35c-0.7,0.13-1.49,0.28-2.04,0.4L1124.67,1126.12z"/>
		</g>
		<g>
			<path class="st69" d="M654.61,1291.37c-1.84-4.46-3.04-9.08-4-13.73c-0.93-4.66-1.57-9.37-2.1-14.11
				c-0.51-4.74-0.86-9.52-0.82-14.37l0-1.81l0.08-1.83c0.08-1.22,0.09-2.43,0.26-3.66c0.15-1.23,0.26-2.46,0.45-3.69
				c0.22-1.25,0.5-2.48,0.76-3.72v0c0.35-1.84,2.13-3.05,3.97-2.7c0.52,0.1,0.99,0.31,1.38,0.6l0.11,0.08c2.44,1.82,4.83,3.7,7,5.8
				c2.19,2.08,4.25,4.28,6.17,6.58c1.94,2.29,3.73,4.69,5.4,7.17c0.83,1.24,1.64,2.5,2.42,3.79c0.78,1.31,1.5,2.55,2.26,4.02
				c0.09,0.18,0.17,0.38,0.23,0.57l8.47,29.79l4.23,14.89l4.15,14.92l-5.19,1.54l-4.66-14.77l-4.57-14.79l-9.14-29.59l0.23,0.57
				c-0.57-1.08-1.3-2.33-2.01-3.48c-0.72-1.17-1.48-2.32-2.27-3.46c-1.56-2.28-3.27-4.46-5.03-6.57c-1.76-2.12-3.64-4.13-5.61-6.02
				c-1.94-1.94-4.05-3.64-6.19-5.3l5.46-2.01v0c-0.92,4.19-1.3,8.73-1.56,13.27c-0.26,4.56-0.28,9.19-0.23,13.83
				c0.03,2.32,0.08,4.65,0.15,6.98l0.27,7.01C654.82,1281.85,654.89,1286.56,654.61,1291.37z"/>
		</g>
		<g>
			<path class="st69" d="M1138.71,1262.01c-3.23-1.08-0.89-0.31-1.61-0.56l0-0.02l0.01-0.03l0.02-0.07l0.04-0.13l0.07-0.27
				l0.14-0.53l0.28-1.06l0.5-2.15c0.3-1.45,0.61-2.89,0.88-4.35c0.54-2.91,0.98-5.86,1.37-8.81c0.73-5.91,1.34-11.86,1.83-17.82
				c0.47-5.96,0.83-11.94,1.09-17.93c0.27-5.98,0.53-11.99,0.63-17.93c0-0.27,0.04-0.53,0.11-0.78l0.02-0.06l8.22-28.97l0.01-0.03
				c0.52-1.85,2.45-2.92,4.3-2.4c1.06,0.3,1.88,1.08,2.27,2.03c1.76,4.28,3.14,8.44,4.33,12.75c1.18,4.29,2.08,8.65,2.84,13.03
				c0.72,4.38,1.33,8.78,1.63,13.2c0.32,4.42,0.24,8.87-0.27,13.29c-1.23-4.29-2.16-8.54-3.25-12.75c-1.01-4.22-2.09-8.4-3.35-12.53
				c-1.19-4.14-2.58-8.22-3.97-12.28c-1.38-4.03-2.83-8.16-4.39-11.96l6.58-0.4l-8.57,28.86l0.13-0.84
				c-0.26,6.09-0.61,12.11-1.09,18.15c-0.5,6.03-1.1,12.06-1.81,18.08c-0.72,6.02-1.56,12.03-2.72,18.01
				c-0.58,2.99-1.21,5.97-1.95,8.94c-0.36,1.49-0.77,2.97-1.21,4.44l-0.7,2.2l-0.39,1.1l-0.19,0.55l-0.1,0.27l-0.05,0.14l-0.02,0.07
				l-0.01,0.03l-0.01,0.02C1139.61,1262.3,1141.95,1263.08,1138.71,1262.01z"/>
		</g>
		<path class="st76" d="M692.68,1311.86c0,0,16.45,46.63,49.96,65.77c22.02,35.42,25.85,41.16,25.85,41.16l17.23-49.78
			c0,0,50.73-28.72,119.66-34.46"/>
		<path class="st76" d="M939.81,1330.81c0,0,73.28-12.52,121.38,1.84c21.54,30.87,30.15,44.51,30.15,44.51s12.21-35.9,15.08-48.1
			c20.82-16.51,32.31-59.59,32.31-59.59"/>
		<path class="st76" d="M804.39,1392.76c0,0,129.04,15.04,242.75-30.89c17.65,20.6,22.8,19.47,22.8,19.47s-7.36,92.68-52.96,138.29
			c-22.8-17.65-26.48-54.01-26.48-54.01l15.45-15.45l2.21-20.6l-16.92,22.8l-91.95,14.71l-30.89-19.86c0,0,8.09,18.39,13.24,22.8
			c7.36,5.15,13.98,8.09,13.98,8.09s-14.71,54.75-20.6,59.9c-32.37-12.51-82.39-118.43-82.39-118.43S797.03,1405.27,804.39,1392.76z
			"/>
		<g>
			<path class="st69" d="M935.48,1134.47l-7.8,19.7l0.22-2.38l31.33,119.49l-1.43-2.01l22.84,15.4l1.92,1.29l-0.44,2.27l-5.31,27.62
				l-0.63,3.27l-3.29-0.46l-22.84-3.19l3.4-1.52l-15.93,23.9l-0.9,1.34l-1.6,0.19l-22.31,2.66l-1.49,0.18l-1.15-0.95l-21.24-17.53
				l3.36,0.61l-23.37,7.97l-3.2,1.09l-1.2-3.16l-10.09-26.55l-0.7-1.83l1.2-1.55l14.34-18.59l-0.73,2.05l3.19-124.81l1.11,2.65
				l-14.59-16.31c-0.56-0.63-0.51-1.6,0.12-2.17c0.56-0.5,1.39-0.52,1.97-0.07l17.28,13.43l1.16,0.9l-0.04,1.75l-3.19,124.81
				l-0.03,1.14l-0.7,0.91l-14.34,18.59l0.5-3.38l10.09,26.55l-4.4-2.07l23.37-7.97l1.85-0.63l1.51,1.24l21.24,17.53l-2.64-0.78
				l22.31-2.66l-2.5,1.53l15.93-23.9l1.22-1.83l2.18,0.3l22.84,3.19l-3.92,2.81l5.31-27.62l1.48,3.56l-22.84-15.4l-1.09-0.74
				l-0.33-1.28l-31.33-119.49l-0.35-1.35l0.57-1.04l10.25-18.54c0.57-1.04,1.88-1.42,2.92-0.84
				C935.48,1132.33,935.88,1133.48,935.48,1134.47z"/>
		</g>
		<g>
			<path d="M723.95,1155.25c1.02-3.03,2.44-5.79,4.01-8.44c1.58-2.64,3.33-5.17,5.23-7.57c1.89-2.41,3.95-4.67,6.1-6.84
				c2.17-2.15,4.46-4.19,6.81-6.16c4.69-3.97,9.68-7.66,14.98-11c5.29-3.34,10.92-6.33,16.92-8.69c5.98-2.38,12.32-4.18,18.9-5.2
				c6.59-0.97,13.43-0.98,20.17-0.06c1.68,0.29,3.37,0.49,5.03,0.88c1.65,0.41,3.3,0.84,4.94,1.29c0.83,0.2,1.62,0.51,2.42,0.8
				l2.39,0.88l2.38,0.89c0.77,0.33,1.53,0.71,2.29,1.07c1.52,0.72,3.04,1.45,4.53,2.23l4.28,2.59c0.7,0.45,1.44,0.84,2.11,1.33
				l1.98,1.48c1.32,0.99,2.64,1.97,3.93,2.98c4.26,3.31,5.03,9.45,1.71,13.71c-3.25,4.18-9.21,4.99-13.46,1.91l-0.4-0.3
				c-8.4-6.12-17.4-10.83-27.18-12.48c-0.61-0.1-1.21-0.29-1.83-0.34l-1.85-0.2c-1.23-0.13-2.47-0.33-3.72-0.3
				c-1.25-0.02-2.5-0.13-3.77-0.09l-3.8,0.18c-5.08,0.43-10.22,1.46-15.32,2.98c-1.27,0.42-2.55,0.78-3.82,1.23l-3.8,1.41l-3.76,1.6
				c-1.26,0.52-2.48,1.17-3.73,1.74c-4.95,2.41-9.8,5.19-14.53,8.24c-9.38,6.27-18.53,12.93-29.4,18.9l-0.01,0.01
				c-0.26,0.14-0.58,0.05-0.73-0.21C723.91,1155.55,723.9,1155.39,723.95,1155.25z"/>
		</g>
		<g>
			<path d="M1074.11,1112.06c-6.08-1.47-11.62-3.37-17.1-5.24l-8.08-2.92c-2.67-0.98-5.29-2.01-7.96-2.92
				c-5.33-1.81-10.71-3.34-16.1-4.49c-1.35-0.25-2.69-0.58-4.04-0.79l-4.04-0.65l-4.03-0.45c-1.34-0.13-2.67-0.18-4.01-0.28
				c-5.33-0.24-10.58-0.01-15.64,0.8l-3.75,0.74c-1.24,0.26-2.44,0.68-3.66,0.99c-1.23,0.28-2.39,0.77-3.57,1.2l-1.76,0.64
				c-0.59,0.2-1.13,0.53-1.7,0.77c-9.18,3.98-16.88,10.76-23.64,18.79l-0.3,0.35c-3.23,3.83-8.95,4.32-12.78,1.09
				c-3.72-3.13-4.27-8.62-1.36-12.45c0.99-1.3,2-2.58,3.02-3.86l1.53-1.92c0.52-0.64,1.13-1.21,1.69-1.81l3.46-3.57
				c1.23-1.13,2.51-2.21,3.79-3.28c0.64-0.53,1.27-1.08,1.93-1.6l2.07-1.45l2.07-1.44c0.69-0.48,1.37-0.98,2.12-1.37
				c1.47-0.84,2.94-1.67,4.43-2.48c1.5-0.78,3.08-1.41,4.62-2.1c6.25-2.58,12.83-4.29,19.43-5.01c6.6-0.67,13.16-0.53,19.54,0.27
				c6.39,0.77,12.57,2.24,18.53,4.14c5.96,1.9,11.72,4.21,17.25,6.87c2.77,1.33,5.51,2.69,8.14,4.25c2.63,1.57,5.19,3.24,7.61,5.1
				c2.44,1.85,4.75,3.87,6.94,6.04c2.17,2.19,4.23,4.52,5.95,7.22c0.16,0.25,0.09,0.58-0.16,0.74c-0.13,0.08-0.28,0.1-0.41,0.07
				L1074.11,1112.06z"/>
		</g>
		<g>
			<path d="M846.42,1219.76c-0.92-4.17-1.92-8.18-3.12-12.05c-0.61-1.93-1.25-3.84-2.03-5.68c-0.78-1.84-1.69-3.62-2.67-5.33
				c-1-1.71-2.14-3.31-3.34-4.86c-1.23-1.53-2.57-2.96-3.98-4.3c-2.86-2.67-6.11-4.91-9.6-6.86l0.92,0.26l0,0
				c-8.63-0.88-17.33-0.98-25.75,0.31c-8.4,1.28-16.55,4.12-23.11,9.1c-6.57,4.95-11.22,12.09-13.53,20.08
				c-2.37,7.99-2.69,16.62-1.92,25.13v0l-1.96-2.68c5.59,2.56,12,3.76,18.46,4.25c6.48,0.48,13.08,0.25,19.64-0.45
				c6.56-0.71,13.11-1.85,19.55-3.45c3.22-0.8,6.42-1.7,9.56-2.77c3.13-1.08,6.25-2.26,9.12-3.86l0.01-0.01
				c0.24-0.13,0.55-0.05,0.68,0.19c0.13,0.23,0.05,0.52-0.16,0.66c-2.86,1.86-5.94,3.27-9.05,4.58c-3.11,1.3-6.29,2.43-9.5,3.47
				c-6.42,2.06-13,3.68-19.67,4.86c-6.68,1.18-13.47,1.89-20.36,1.84c-6.87-0.07-13.91-0.82-20.72-3.39l-1.74-0.65l-0.23-2.03l0,0
				c-0.75-9.08-0.38-18.48,2.37-27.49c1.37-4.49,3.36-8.85,6.04-12.79c2.66-3.95,6.03-7.43,9.82-10.28
				c7.65-5.71,16.8-8.72,25.86-10.04c9.1-1.32,18.25-1.12,27.22-0.14h0l0.35,0.02l0.56,0.24c4.13,1.78,8.03,4.28,11.38,7.39
				c1.68,1.55,3.18,3.29,4.59,5.09c1.37,1.83,2.56,3.78,3.62,5.78c1.07,2,1.89,4.11,2.62,6.23c0.71,2.13,1.3,4.29,1.65,6.49
				c0.68,4.39,0.71,8.89-0.53,13.2c-0.08,0.27-0.36,0.43-0.63,0.35c-0.19-0.05-0.32-0.2-0.36-0.38L846.42,1219.76z"/>
		</g>
		<g>
			<path d="M962.07,1203.76c-2.38-3.81-3.59-8.13-4.14-12.55c-0.27-2.21-0.3-4.45-0.19-6.69c0.11-2.24,0.33-4.5,0.8-6.71
				c0.47-2.22,1.08-4.42,1.89-6.55c0.86-2.11,1.82-4.2,3.01-6.15c2.36-3.92,5.42-7.39,8.91-10.24l0.48-0.39l0.33-0.11l0,0
				c8.35-3.41,17.09-6.12,26.2-7.35c9.07-1.22,18.7-0.85,27.62,2.54c4.43,1.7,8.63,4.12,12.27,7.19c3.66,3.05,6.78,6.69,9.33,10.64
				c5.12,7.91,8.06,16.84,9.84,25.78v0l0.34,2.01l-1.49,1.11c-5.84,4.34-12.4,7-18.99,8.95c-6.61,1.93-13.34,3.12-20.08,3.83
				c-6.74,0.7-13.51,0.95-20.25,0.74c-3.37-0.11-6.74-0.33-10.09-0.72c-3.35-0.41-6.7-0.91-9.96-1.91
				c-0.26-0.08-0.41-0.36-0.33-0.62c0.08-0.25,0.34-0.4,0.59-0.34l0.01,0c3.2,0.75,6.52,1.03,9.83,1.2
				c3.31,0.16,6.63,0.15,9.95,0.04c6.63-0.24,13.24-0.93,19.74-2.06c6.5-1.12,12.91-2.72,19.01-4.96
				c6.07-2.24,11.91-5.16,16.57-9.16l-1.15,3.12v0c-1.6-8.39-4.28-16.61-8.76-23.63c-4.42-7.04-10.85-12.63-18.53-15.58
				c-7.68-2.99-16.29-3.47-24.72-2.4c-8.46,1.07-16.8,3.57-24.85,6.78l0,0l0.81-0.5c-2.82,2.83-5.32,5.88-7.34,9.23
				c-0.99,1.69-1.89,3.43-2.65,5.23c-0.73,1.82-1.38,3.68-1.87,5.59c-0.48,1.92-0.87,3.87-1.11,5.86c-0.25,1.99-0.34,4-0.39,6.02
				c-0.09,4.05,0.05,8.18,0.31,12.44l0,0.04c0.02,0.28-0.2,0.52-0.48,0.54C962.34,1204.01,962.16,1203.91,962.07,1203.76z"/>
		</g>
		<circle cx="790.35" cy="1208.21" r="20.5"/>
		<circle class="st78" cx="778.96" cy="1200.47" r="8.66"/>
		<circle cx="994.01" cy="1178.41" r="20.5"/>
		<circle class="st78" cx="982.61" cy="1170.66" r="8.66"/>
		<path class="st71" d="M698.61,1406.04c0,0-25.13-4.31-59.59,15.08c-7.18,53.85,12.21,94.06,12.21,94.06s42.7,7.84,84.04-17.09"/>
		<path class="st79" d="M638.6,1448.93c0,0,14.46-15.32,66.79-14.46"/>
		<path class="st79" d="M684.88,1436.65v39.37c0,0-11.48,7.87-39.37,12.79"/>
		<path class="st71" d="M1151.38,1345.24c0,0,27.21-10.95,65.63-1.62c21.49,49.89,13.71,93.85,13.71,93.85s-38.99,19.1-85.53,6.3"/>
		<path class="st79" d="M1224.95,1370.28c0,0-18.07-10.83-68.22,4.16"/>
		<path class="st79" d="M1177.07,1370.99l10.66,37.9c0,0,13.18,4.47,41.36,1.66"/>
		<path class="st71" d="M659.33,1193.94c0,0-29.78-77.81,7.68-204.61c62.27-37.91,129.17-64.46,206.79-79.8
			c77.62-15.34,209.38,20.76,231.04,30.69c32.49,57.76,34.3,167.87,31.59,192.24"/>
		<g>
			<path d="M955.38,985.21c16.71,4.71,32.97,10.61,48.79,17.46c7.94,3.35,15.73,7.04,23.47,10.79c7.71,3.82,15.35,7.79,22.9,11.91
				c7.54,4.14,15.01,8.41,22.35,12.89c3.67,2.25,7.34,4.5,10.95,6.84l2.72,1.76c0.91,0.63,1.84,1.24,2.73,1.9
				c1.79,1.31,3.53,2.69,5.2,4.15c6.67,5.85,12.29,12.91,16.47,20.74c2.09,3.91,3.83,8.02,5.18,12.25c1.3,4.09,2.58,8.19,3.82,12.3
				c2.48,8.23,4.86,16.48,6.92,24.88c0.51,2.11,1,4.21,1.43,6.38c0.12,0.55,0.2,1.05,0.3,1.58l0.29,1.71
				c0.15,1.13,0.28,2.24,0.38,3.32c0.4,4.33,0.7,8.59,1.01,12.87c1.19,17.09,2.41,34.14,3.9,51.17c0.74,8.52,1.53,17.03,2.39,25.53
				c0.81,8.53,1.84,16.92,3.05,25.38c2.4,16.89,5.3,33.76,8.07,50.66c2.78,16.9,5.5,33.83,7.93,50.81l1.76,12.75l1.63,12.77
				l0.76,6.39l0.38,3.2c0.13,1.09,0.23,2.21,0.31,3.32c0.32,4.45,0.24,8.93-0.26,13.37c-0.25,2.22-0.6,4.43-1.07,6.62l-0.37,1.64
				l-0.41,1.58l-0.83,3.16c-0.28,1.05-0.54,2.11-0.84,3.16l-0.97,3.11c-0.66,2.07-1.25,4.17-2.01,6.2
				c-2.77,8.24-6.19,16.21-9.78,24.07c-7.27,15.7-15.8,30.72-24.94,45.32c-4.58,7.29-9.36,14.45-14.24,21.54
				c-2.47,3.52-4.93,7.05-7.46,10.53l-1.89,2.62c-0.64,0.87-1.32,1.74-1.98,2.6c-1.34,1.72-2.62,3.5-4.06,5.14
				c-11.06,13.53-24.43,25.15-39.25,34.43c-7.41,4.64-15.19,8.68-23.25,12.09c-8.05,3.41-16.41,6.1-24.9,8.16
				c-8.46,2.03-16.91,3.65-25.46,5.04c-8.54,1.33-17.14,2.36-25.77,3.09c-8.64,0.66-17.3,0.99-25.97,0.96
				c-2.17-0.03-4.34-0.1-6.5-0.15l-3.25-0.09l-3.25-0.2c-2.17-0.14-4.33-0.24-6.5-0.42l-6.49-0.63c-2.17-0.18-4.32-0.51-6.47-0.8
				c-2.15-0.32-4.31-0.54-6.45-0.94c-4.28-0.77-8.58-1.47-12.81-2.49l-3.19-0.71l-1.59-0.36l-1.58-0.43l-6.31-1.71
				c-2.08-0.53-4.28-1.26-6.39-2.03c-1.06-0.39-2.11-0.81-3.16-1.26c-1.03-0.45-1.98-0.91-2.97-1.36
				c-15.81-7.07-31.08-15.48-45.4-25.3c-14.33-9.8-27.72-20.98-40.06-33.15c-12.31-12.21-23.62-25.3-34.41-38.71
				c-2.7-3.35-5.34-6.74-8.01-10.11l-3.94-5.09l-1.97-2.54c-0.65-0.86-1.36-1.79-2.01-2.7c-5.25-7.38-9.14-15.73-11.39-24.53
				c-0.57-2.18-1.02-4.46-1.38-6.63c-0.33-2.14-0.7-4.28-1-6.42c-0.63-4.28-1.18-8.56-1.71-12.83c-1.03-8.55-1.9-17.1-2.71-25.65
				c-1.6-17.1-2.9-34.2-4.09-51.3l-1.7-25.66c-0.53-8.59-0.92-17.17-1.31-25.71c-0.8-17.08-1.76-34.05-4.03-50.8
				c-1.15-8.37-2.61-16.69-4.39-24.94l-1.41-6.17l-1.56-6.13l-0.8-3.1c-0.29-1.1-0.55-2.21-0.79-3.33
				c-0.47-2.21-0.85-4.52-1.11-6.69c-0.53-4.24-1.09-8.55-1.4-12.95c-0.35-4.39-0.39-8.83-0.31-13.2c0.07-4.38,0.37-8.72,0.69-13.03
				c0.36-4.5,1.1-8.96,2.23-13.31c0.29-1.09,0.57-2.17,0.92-3.24c0.33-1.07,0.67-2.14,1.07-3.19l0.56-1.58
				c0.1-0.56,0.38-1.06,0.56-1.59c0.39-1.05,0.84-2.08,1.3-3.1c1.83-4.1,4.02-8.03,6.56-11.73l1.97-2.73
				c0.7-0.88,1.37-1.77,2.09-2.63c0.73-0.84,1.46-1.73,2.19-2.52l2.17-2.39c2.88-3.2,5.84-6.33,8.79-9.46
				c5.92-6.25,12.04-12.31,18.23-18.3c6.26-5.92,12.57-11.78,19.11-17.39c26.03-22.53,54.38-42.67,85.39-57.97l2.51,5.07
				c-30.37,15.22-58.2,35.24-83.76,57.65c-6.42,5.58-12.62,11.41-18.77,17.29c-6.08,5.96-12.09,11.98-17.9,18.2
				c-2.9,3.11-5.8,6.22-8.63,9.4l-2.13,2.38c-0.71,0.79-1.33,1.56-2,2.34c-0.65,0.79-1.25,1.61-1.89,2.41l-1.77,2.49
				c-2.28,3.38-4.25,6.96-5.88,10.69c-0.41,0.93-0.81,1.87-1.16,2.82c-0.2,0.47-0.31,0.97-0.6,1.41c-0.17,0.48-0.31,0.97-0.47,1.45
				c-0.32,0.97-0.59,1.95-0.85,2.93c-0.28,0.98-0.49,1.97-0.71,2.97c-0.86,3.97-1.37,8.02-1.48,12.07
				c-0.12,4.23-0.15,8.45-0.08,12.63c0.07,4.18,0.33,8.32,0.73,12.45c0.4,4.13,0.96,8.31,1.51,12.57c0.26,2.08,0.56,4,0.98,5.98
				c0.21,0.98,0.44,1.95,0.69,2.92l0.8,3.11l1.59,6.31l1.43,6.35c1.81,8.49,3.3,17.05,4.46,25.64c2.29,17.19,3.22,34.46,3.98,51.57
				c0.38,8.56,0.75,17.09,1.25,25.59l1.64,25.59c1.15,17.06,2.4,34.11,3.95,51.11c0.78,8.5,1.63,16.98,2.63,25.43
				c0.51,4.22,1.05,8.43,1.65,12.63c0.29,2.1,0.65,4.18,0.96,6.26c0.33,2.05,0.71,3.98,1.22,5.94c1.97,7.8,5.42,15.24,10.07,21.82
				c0.59,0.84,1.17,1.61,1.81,2.45l1.96,2.53l3.91,5.07c2.63,3.35,5.25,6.72,7.91,10.04c10.65,13.29,21.7,26.18,33.67,38.14
				c11.99,11.92,24.95,22.82,38.84,32.41c13.88,9.59,28.69,17.84,44.11,24.8l2.86,1.33c0.92,0.4,1.85,0.78,2.8,1.13
				c1.91,0.71,3.78,1.34,5.84,1.88l6.08,1.67l1.52,0.42l1.54,0.35l3.08,0.7c4.08,1.01,8.24,1.7,12.38,2.46
				c2.07,0.39,4.17,0.61,6.25,0.93c2.09,0.29,4.17,0.62,6.27,0.8l6.29,0.64c2.1,0.18,4.21,0.28,6.31,0.43l3.16,0.21l3.16,0.1
				c2.11,0.06,4.22,0.14,6.33,0.18c8.45,0.06,16.9-0.22,25.34-0.83c8.44-0.68,16.85-1.65,25.23-2.93c8.35-1.33,16.74-2.9,24.93-4.84
				c8.14-1.94,16.15-4.49,23.88-7.73c7.73-3.23,15.2-7.08,22.32-11.49c14.23-8.83,27.1-19.92,37.76-32.86
				c5.3-6.42,10.22-13.45,15.14-20.4c4.85-7,9.61-14.06,14.16-21.25c9.08-14.38,17.55-29.16,24.73-44.52
				c3.55-7.69,6.92-15.47,9.63-23.45c0.75-1.97,1.32-4,1.97-6l0.95-3.01c0.3-1.01,0.55-2.03,0.82-3.04l0.81-3.04l0.41-1.52
				l0.34-1.49c0.43-2,0.76-4.02,1-6.05c0.47-4.06,0.56-8.18,0.29-12.27c-0.07-1.03-0.16-2.04-0.28-3.07l-0.37-3.18l-0.74-6.36
				l-1.59-12.71l-1.73-12.7c-2.38-16.92-5.06-33.81-7.8-50.7c-2.73-16.9-5.59-33.78-7.98-50.8c-1.2-8.49-2.24-17.1-3.02-25.61
				c-0.85-8.53-1.62-17.07-2.34-25.61c-1.46-17.08-2.64-34.19-3.79-51.26c-0.3-4.26-0.58-8.54-0.97-12.74
				c-0.09-1.05-0.21-2.07-0.34-3.06c-0.14-0.87-0.33-2-0.54-3.03c-0.4-2.04-0.87-4.1-1.37-6.15c-2-8.23-4.35-16.44-6.79-24.61
				c-1.23-4.09-2.49-8.16-3.77-12.23c-1.24-3.93-2.85-7.74-4.78-11.38c-3.87-7.28-9.07-13.85-15.29-19.26
				c-1.55-1.36-3.17-2.63-4.83-3.85c-0.83-0.61-1.7-1.17-2.54-1.76l-2.68-1.72c-3.57-2.31-7.21-4.53-10.84-6.75
				c-7.3-4.39-14.73-8.56-22.22-12.61c-15.02-8.05-30.42-15.37-46.15-21.83c-3.91-1.66-7.9-3.14-11.86-4.68l-6-2.15
				c-2-0.72-4-1.43-6.02-2.07c-8.03-2.75-16.19-5.01-24.38-7.06L955.38,985.21z"/>
		</g>
		<path class="st80" d="M825.07,930.43c0,0-20.05,39.91,6.81,81.51c53.89,20.23,113.8-5.36,119.56-11.76
			c9.1-26.41-0.93-70.72-6.14-75.71C928.96,916.4,862.91,915.27,825.07,930.43z"/>
		<g>
			<path d="M941.31,929.11c-7.23,0.39-14.7,1.17-22,2.17c-7.33,1.01-14.62,2.3-21.81,3.91c-7.19,1.62-14.28,3.57-21.15,6.01
				c-6.86,2.44-13.5,5.39-19.55,9.08l2.14-3.91l0.2,5.15c0.14,1.71,0.23,3.42,0.42,5.12c0.21,1.69,0.35,3.4,0.65,5.08l0.4,2.52
				l0.49,2.49c0.69,3.31,1.54,6.58,2.63,9.72c0.56,1.56,1.14,3.11,1.81,4.58c0.33,0.75,0.68,1.46,1.04,2.16
				c0.19,0.33,0.37,0.69,0.55,1c0.17,0.3,0.42,0.69,0.48,0.79l-3.81-1.9c3.81-0.13,7.71-0.34,11.55-0.59
				c3.86-0.26,7.71-0.56,11.53-0.95c3.82-0.39,7.63-0.84,11.36-1.46c1.86-0.31,3.71-0.64,5.48-1.05c1.77-0.41,3.51-0.88,4.98-1.45
				l-2.81,3.52c0.4-2.31,0.76-4.63,0.95-6.96c0.24-2.34,0.29-4.69,0.29-7.04c-0.02-2.35-0.18-4.7-0.45-7.02
				c-0.13-1.16-0.31-2.32-0.51-3.46c-0.1-0.57-0.21-1.14-0.34-1.69c-0.11-0.54-0.27-1.15-0.38-1.54l2.81,2.31
				c-0.28-0.06-0.79-0.14-1.23-0.19c-0.45-0.06-0.91-0.09-1.38-0.13c-0.93-0.06-1.87-0.11-2.82-0.11c-1.89,0-3.81,0.09-5.71,0.34
				c-1.9,0.25-3.8,0.57-5.67,1.06c-1.88,0.45-3.71,1.08-5.53,1.76l-0.08,0.03c-1.13,0.42-2.38-0.16-2.8-1.29
				c-0.39-1.05,0.09-2.21,1.07-2.7c1.9-0.95,3.83-1.86,5.85-2.58c2-0.77,4.06-1.36,6.15-1.86c2.09-0.51,4.23-0.85,6.39-1.08
				c1.08-0.12,2.17-0.19,3.27-0.23c0.55-0.01,1.1-0.03,1.67-0.02c0.58,0.01,1.08,0.02,1.81,0.08l2.04,0.18l0.76,2.14
				c0.28,0.79,0.46,1.37,0.66,2.04c0.19,0.65,0.36,1.29,0.53,1.93c0.32,1.29,0.61,2.57,0.84,3.87c0.48,2.58,0.82,5.19,1.03,7.8
				c0.18,2.61,0.3,5.24,0.21,7.86c-0.04,2.63-0.26,5.24-0.54,7.86v0v2.44l-2.81,1.08c-2.18,0.83-4.23,1.37-6.26,1.84
				c-2.03,0.47-4.03,0.83-6.03,1.16c-3.99,0.65-7.95,1.13-11.91,1.53c-3.95,0.4-7.9,0.71-11.84,0.98
				c-3.95,0.26-7.87,0.47-11.87,0.61l-2.46,0.09l-1.35-1.98c-0.44-0.64-0.64-1-0.92-1.48c-0.27-0.45-0.49-0.89-0.73-1.33
				c-0.45-0.88-0.89-1.76-1.28-2.64c-0.81-1.76-1.48-3.54-2.11-5.33c-1.24-3.58-2.18-7.21-2.94-10.86l-0.54-2.74l-0.43-2.75
				c-0.32-1.83-0.48-3.67-0.7-5.5c-0.2-1.84-0.3-3.67-0.45-5.51l-0.21-5.51l-0.1-2.55l2.24-1.36c6.79-4.14,13.96-7.3,21.25-9.9
				c7.3-2.59,14.72-4.63,22.19-6.31c7.47-1.67,15-3,22.55-4.05c7.58-1.03,15.07-1.83,22.85-2.25c2.48-0.13,4.6,1.77,4.73,4.25
				c0.13,2.48-1.77,4.6-4.25,4.73h0L941.31,929.11z"/>
		</g>
		<g>
			<path d="M659.49,995.99l-77.45-39.83l-77.62-39.52l-38.89-19.6c-12.97-6.51-25.95-13.01-38.96-19.44
				c-26-12.92-52-25.81-78.11-38.49c-13.03-6.38-26.15-12.58-39.21-18.88l-19.68-9.28c-6.57-3.07-13.11-6.21-19.71-9.21l-19.77-9.05
				l-4.94-2.26l-1.24-0.57l-0.71-0.33c-0.33-0.16-0.66-0.32-0.98-0.5c-1.29-0.72-2.49-1.67-3.52-2.75
				c-2.06-2.19-3.35-4.91-3.88-7.66c-0.53-2.76-0.38-5.59,0.51-8.3c0.88-2.7,2.6-5.31,5.04-7.16c1.21-0.93,2.57-1.65,3.96-2.15
				c0.97-0.32,1.88-0.64,2.83-0.91c3.75-1.13,7.54-1.99,11.31-2.61c7.56-1.26,15.11-1.75,22.6-1.8c7.49-0.04,14.93,0.36,22.3,1.1
				c7.38,0.73,14.7,1.75,21.96,3c14.54,2.47,28.83,5.93,42.95,9.92c28.2,8.08,55.59,18.57,82.03,30.96l-2.58,5.85
				c-26.74-10.97-54.1-20.37-81.97-27.56c-13.92-3.62-28-6.57-42.13-8.78c-14.13-2.18-28.38-3.5-42.46-3.33
				c-7.03,0.11-14.02,0.65-20.77,1.84c-3.38,0.59-6.69,1.38-9.88,2.38c-0.8,0.23-1.6,0.53-2.35,0.78c-0.32,0.12-0.58,0.27-0.81,0.45
				c-0.45,0.35-0.84,0.89-1.09,1.64c-0.24,0.74-0.29,1.65-0.13,2.45c0.16,0.81,0.52,1.48,0.96,1.94c0.22,0.23,0.46,0.43,0.76,0.59
				l0.23,0.11l0.06,0.03l0.16,0.07l0.31,0.14l1.24,0.56l4.97,2.25l19.89,8.99c6.64,2.98,13.21,6.1,19.81,9.14l19.78,9.21
				c13.13,6.25,26.31,12.4,39.39,18.73c13.09,6.32,26.21,12.59,39.26,19l19.59,9.57c6.53,3.18,13.02,6.46,19.53,9.68
				c13.02,6.45,26.02,12.96,39,19.5l38.92,19.65l38.85,19.78l38.73,20.01c25.8,13.39,51.56,26.82,77.23,40.49L659.49,995.99z"/>
		</g>
		<g>
			<path d="M659.61,1003.96l-100.57-33.19L458.4,937.83l-50.37-16.29l-25.21-8.04l-12.61-4l-0.79-0.25l-0.53-0.18l-0.74-0.28
				c-0.99-0.42-1.94-0.98-2.81-1.66c-1.73-1.39-3-3.24-3.69-5.15c-0.72-1.92-0.93-3.89-0.75-5.85c0.2-1.95,0.82-3.92,2.02-5.72
				c1.16-1.8,3.02-3.36,5.08-4.21c0.51-0.21,1.04-0.39,1.56-0.52l0.78-0.18l0.44-0.07l1.76-0.28c2.35-0.36,4.66-0.61,6.96-0.81
				c4.6-0.39,9.14-0.54,13.65-0.58c4.52-0.05,9.01,0.04,13.48,0.2c4.48,0.16,8.94,0.37,13.38,0.71c8.9,0.64,17.75,1.49,26.58,2.49
				c4.41,0.52,8.82,1.09,13.22,1.69c4.41,0.6,8.78,1.24,13.21,1.97l-1.23,8.77c-8.67-0.91-17.45-1.77-26.18-2.44
				c-8.74-0.74-17.49-1.34-26.22-1.72c-8.73-0.37-17.44-0.67-26.07-0.46c-4.31,0.1-8.59,0.31-12.79,0.72
				c-2.1,0.21-4.17,0.46-6.18,0.8l-1.5,0.26l-0.38,0.07c-0.01,0.01-0.02,0.01-0.03,0.01c-0.02,0-0.01,0-0.01,0
				c0.03,0,0.11-0.09,0.07-0.04c-0.03,0.04-0.11,0.23-0.13,0.47c-0.02,0.24,0.01,0.52,0.08,0.66c0.06,0.16,0.11,0.17,0.1,0.17
				c0.11,0.02-0.39-0.11,1.11,0.35l12.65,3.95l25.28,7.95l50.49,16.1c33.64,10.77,67.18,21.85,100.73,32.91
				c16.77,5.53,33.52,11.12,50.26,16.76l50.21,16.93L659.61,1003.96z"/>
		</g>
		<path class="st81" d="M666.51,987.98c0,0-355.6-294.88-442.73-405.29c91.01,22.12,236.37,98.38,461.96,394.79"/>
		<g>
			<path d="M741.19,951.1c-15.99-25.05-31.68-50.2-47.28-75.45c-15.59-25.25-31.02-50.59-46.25-76.06
				c-30.51-50.91-60.26-102.3-88.68-154.48l-10.5-19.66l-5.24-9.83c-1.73-3.24-3.43-6.48-5.22-9.69
				c-3.53-6.43-7.2-12.79-10.98-19.08c-3.77-6.3-7.68-12.51-11.7-18.66c-16.05-24.6-33.89-48.04-53.16-70.24
				c-19.3-22.17-40.01-43.14-62.08-62.51c-11.05-9.66-22.42-18.96-34.21-27.58c-5.89-4.31-11.9-8.45-18.02-12.26
				c-3.06-1.9-6.15-3.71-9.24-5.3c-1.54-0.79-3.09-1.54-4.55-2.12c-0.73-0.29-1.43-0.54-2.01-0.71c-0.17-0.06-0.26-0.06-0.38-0.09
				c-0.09-0.01-0.27-0.08-0.28-0.06c-0.02,0.01-0.04,0-0.07-0.02c0.14,0.02,0.35,0.01,0.51-0.05l0,0l4.74-5.44
				c-0.29,10.12,0.53,20.34,1.97,30.52l1.37,7.61c0.24,1.27,0.44,2.54,0.7,3.8l0.87,3.78l1.74,7.57l2.05,7.51
				c5.55,20.03,13.11,39.59,21.5,58.79c8.42,19.2,17.77,38.03,27.66,56.59c9.9,18.56,20.35,36.85,31.15,54.95
				c21.61,36.19,44.65,71.58,68.2,106.63c23.59,35.03,47.81,69.66,72.19,104.2l-8.4,5.94c-24.48-34.51-48.83-69.14-72.57-104.22
				c-23.71-35.1-46.93-70.57-68.77-106.96c-10.92-18.2-21.5-36.61-31.55-55.34c-10.04-18.73-19.56-37.78-28.18-57.3
				c-8.59-19.52-16.37-39.49-22.17-60.22l-2.15-7.78l-1.84-7.88l-0.91-3.94c-0.28-1.32-0.5-2.66-0.75-3.99l-1.46-8
				c-1.55-10.76-2.47-21.67-2.17-32.7l0.13-4.82l4.61-0.62l0.02,0c0.62-0.08,1.3-0.13,1.9-0.12c0.44,0.03,0.88,0.08,1.32,0.13
				c0.45,0.05,0.71,0.14,1.08,0.21c0.33,0.08,0.7,0.15,0.97,0.24c1.2,0.34,2.24,0.72,3.23,1.12c1.99,0.79,3.77,1.67,5.53,2.57
				c3.5,1.81,6.8,3.75,10.04,5.76c6.47,4.03,12.67,8.31,18.74,12.75c12.14,8.88,23.74,18.37,35.01,28.22
				c22.5,19.74,43.55,41.06,63.18,63.61c19.6,22.58,37.75,46.44,54.11,71.5c4.09,6.27,8.08,12.6,11.92,19.02
				c3.86,6.41,7.6,12.89,11.2,19.46c1.82,3.27,3.56,6.58,5.33,9.89l5.22,9.79l10.45,19.57c28.3,51.97,57.98,103.24,88.43,154.05
				c15.2,25.42,30.61,50.72,46.17,75.93c15.57,25.2,31.26,50.35,47.18,75.28L741.19,951.1z"/>
		</g>
		<g>
			<path d="M803.08,928.91c-10.05-22.73-19.8-45.51-29.43-68.37c-9.65-22.84-19.05-45.79-28.4-68.76
				c-18.6-45.98-36.57-92.21-53.72-138.76c-17.13-46.56-33.41-93.45-48.26-140.84l-5.59-17.69l-2.84-8.8l-2.91-8.77
				c-3.93-11.68-8.06-23.29-12.42-34.8c-8.73-23.01-18.36-45.68-29.43-67.57c-5.53-10.94-11.44-21.67-17.83-32.08
				c-6.39-10.4-13.27-20.47-20.86-29.88c-3.79-4.71-7.77-9.23-11.97-13.48c-4.2-4.24-8.63-8.21-13.33-11.61
				c-2.35-1.7-4.76-3.25-7.22-4.55c-2.45-1.31-4.98-2.35-7.37-2.94c-2.36-0.62-4.72-0.58-5.72-0.07c-0.14,0.05-0.24,0.12-0.33,0.17
				c0.01-0.01-0.13,0.07,0.02-0.03c0.1-0.07,0.17-0.14,0.23-0.18c0.12-0.11,0.17-0.16,0.2-0.21c0.07-0.11-0.16,0.26-0.33,0.69
				c-0.37,0.92-0.71,2.23-0.99,3.55c-0.55,2.7-0.9,5.64-1.16,8.59c-0.26,2.96-0.42,5.97-0.53,9c-0.21,6.05-0.2,12.16-0.08,18.28
				c0.26,12.24,1,24.51,2.01,36.77c2.04,24.52,5.18,48.99,9.13,73.31c7.96,48.64,19.12,96.81,34.11,143.73
				c7.51,23.45,16.01,46.57,25.75,69.14c9.74,22.56,20.72,44.58,33.32,65.61l-8.68,5.21c-12.89-21.47-24.09-43.87-34.01-66.77
				c-9.92-22.91-18.55-46.33-26.18-70.05c-15.22-47.46-26.54-96.07-34.63-145.19c-4.02-24.57-7.22-49.27-9.31-74.12
				c-1.04-12.43-1.8-24.89-2.08-37.42c-0.14-6.27-0.15-12.55,0.06-18.87c0.11-3.16,0.28-6.34,0.55-9.55
				c0.28-3.21,0.65-6.43,1.33-9.81c0.36-1.7,0.76-3.42,1.53-5.38c0.42-1,0.85-2.04,1.89-3.37c0.28-0.34,0.58-0.68,0.99-1.05
				c0.2-0.18,0.42-0.36,0.68-0.55c0.3-0.22,0.34-0.22,0.51-0.33c0.56-0.35,1.14-0.67,1.72-0.91c2.33-1.03,4.63-1.31,6.7-1.31
				c2.09,0.01,4.02,0.31,5.82,0.75c3.62,0.89,6.85,2.28,9.86,3.87c3.01,1.6,5.82,3.4,8.49,5.33c5.34,3.86,10.16,8.19,14.68,12.74
				c4.52,4.55,8.73,9.34,12.71,14.27c7.97,9.87,15.1,20.28,21.69,30.98c6.58,10.7,12.64,21.68,18.3,32.83
				c22.58,44.66,39.36,91.84,54.02,139.23c14.83,47.14,31.11,93.86,48.25,140.27c17.16,46.4,35.15,92.51,53.76,138.36
				c9.35,22.91,18.76,45.79,28.42,68.58c9.63,22.78,19.4,45.55,29.41,68.11L803.08,928.91z"/>
		</g>
		<path class="st82" d="M1090.43,936.25c0,0,191.63-231.86,330.46-344.66c6.66-5.41,3.08-16.67-5.44-17.11
			c-44.29-2.25-92.33,15.27-162.98,72"/>
		<path class="st82" d="M1098.95,944.09c0,0,121.01-133.16,229.75-202.5c5.49-3.5,2.52-12.49-3.94-11.87
			c-32.31,3.08-69.55,21.5-69.55,21.5"/>
		<path class="st82" d="M1085.29,934.66c0,0,245.33-412.42,302.01-543.16c-84.92,46.96-215.48,176.28-359.33,524.91"/>
		<path class="st82" d="M966.38,909.05c0,0,68.26-234.19,104.6-396.44s140.43-282.79,153.77-284.2
			c33.23,100.54-33.55,300.3-102.59,485.79"/>
		<g>
			<path d="M902.18,903.39c5.29-50.08,10.03-100.29,14.45-150.49c4.4-50.21,8.39-100.45,11.83-150.72
				c3.43-50.27,6.33-100.58,8.25-150.89l0.73-18.87l0.35-9.49l0.44-9.49c0.63-12.66,1.49-25.31,2.6-37.94
				c2.23-25.27,5.47-50.5,10.36-75.49c4.93-24.97,11.36-49.79,21.16-73.64c4.96-11.89,10.73-23.56,18.36-34.38
				c3.86-5.38,8.15-10.57,13.53-15.09c2.72-2.23,5.7-4.32,9.31-5.88c1.82-0.76,3.81-1.39,6.09-1.64c1.15-0.1,2.34-0.14,3.61,0.03
				c0.62,0.06,1.27,0.2,1.91,0.38c0.19,0.05,0.25,0.06,0.55,0.16c0.29,0.1,0.58,0.21,0.83,0.32c0.52,0.23,0.92,0.48,1.29,0.73
				c1.43,0.99,2.18,1.9,2.89,2.76c0.68,0.85,1.23,1.67,1.72,2.47c0.99,1.6,1.78,3.15,2.52,4.69c1.46,3.09,2.67,6.14,3.79,9.21
				c2.23,6.13,4.1,12.27,5.83,18.43c3.44,12.32,6.27,24.73,8.81,37.18c5.04,24.9,8.84,49.99,11.76,75.17
				c5.77,50.36,8.04,101.14,6,151.85c-1.05,25.35-3.21,50.68-6.82,75.84c-3.62,25.15-8.68,50.15-15.72,74.66l-9.91-2.84
				c6.86-23.98,11.8-48.53,15.34-73.29c3.53-24.77,5.63-49.75,6.64-74.79c1.96-50.09-0.34-100.37-6.11-150.2
				c-2.92-24.91-6.71-49.73-11.71-74.25c-2.51-12.25-5.32-24.45-8.67-36.41c-1.68-5.97-3.5-11.9-5.59-17.62
				c-1.05-2.85-2.17-5.66-3.41-8.27c-0.62-1.3-1.28-2.55-1.95-3.64c-0.33-0.54-0.67-1.03-0.98-1.41c-0.28-0.36-0.61-0.64-0.48-0.53
				c0.05,0.03,0.11,0.07,0.27,0.15c0.06,0.03,0.17,0.07,0.28,0.11c0.11,0.03-0.02,0-0.02,0c-0.12-0.03-0.24-0.07-0.41-0.07
				c-0.29-0.05-0.69-0.03-1.11,0c-0.87,0.09-1.92,0.38-3,0.85c-2.18,0.94-4.45,2.46-6.59,4.23c-4.29,3.6-8.14,8.18-11.6,13.04
				c-6.91,9.81-12.42,20.88-17.14,32.25c-9.36,22.85-15.64,47.1-20.44,71.57c-4.77,24.51-7.94,49.38-10.11,74.35
				c-1.09,12.48-1.92,25-2.53,37.53l-0.42,9.4l-0.34,9.4l-0.71,18.92c-1.87,50.48-4.72,100.88-8.1,151.25
				c-3.39,50.36-7.33,100.68-11.67,150.95c-4.36,50.28-9.05,100.5-14.29,150.74L902.18,903.39z"/>
		</g>
		<path class="st81" d="M862.42,911.4c0,0-53.24-323.05-63.23-423.56S742,192.56,698.6,194.99
			c-43.41,2.43-43.73,177.75-16.19,332.56c27.55,154.81,88.64,312.47,88.64,312.47"/>
		<g>
			<path d="M936.2,485.1c-1.26-30.94-3.29-61.97-5.84-92.87c-2.52-30.92-5.64-61.79-9.82-92.47c-2.12-15.33-4.43-30.63-7.21-45.82
				c-2.78-15.18-5.98-30.27-10.01-45.04c-2.02-7.38-4.27-14.67-6.87-21.77c-2.61-7.08-5.58-14-9.21-20.28
				c-1.82-3.13-3.83-6.07-6.04-8.62c-2.22-2.52-4.67-4.63-7.17-5.83c-1.29-0.62-2.38-0.94-3.98-1.22c-1.49-0.26-2.97-0.34-4.44-0.25
				c-2.93,0.17-5.81,1.11-8.56,2.66c-5.53,3.12-10.33,8.54-14.36,14.53c-4.04,6.03-7.41,12.72-10.36,19.63
				c-5.88,13.87-10.19,28.6-13.74,43.5c-3.54,14.92-6.27,30.09-8.5,45.34c-2.2,15.26-3.95,30.6-5.25,46
				c-2.61,30.79-3.61,61.75-3.38,92.7c0.2,30.95,1.71,61.9,4.54,92.73l-9.52,0.93c-6.35-62.16-7.64-124.86-2.78-187.28
				c2.48-31.2,6.52-62.36,13.69-93.07c3.64-15.34,8.03-30.59,14.27-45.39c3.14-7.39,6.76-14.67,11.36-21.58
				c2.31-3.45,4.88-6.8,7.86-9.92c2.99-3.11,6.4-6.02,10.43-8.3c4-2.28,8.69-3.87,13.53-4.17c2.41-0.16,4.84-0.02,7.18,0.38
				c2.23,0.35,4.91,1.13,7.11,2.23c4.51,2.21,7.97,5.4,10.88,8.69c2.88,3.33,5.24,6.86,7.32,10.45c4.14,7.2,7.28,14.65,10.03,22.15
				c2.73,7.51,5.05,15.1,7.12,22.72c4.12,15.25,7.34,30.62,10.13,46.03c2.77,15.42,5.12,30.88,7.12,46.37
				c7.93,61.99,12.09,124.18,14.02,186.55L936.2,485.1z"/>
		</g>
		<path class="st83" d="M362.13,648.44c0,0-54.52-90.64-66.56-138.79c38.24,24.08,112.59,87.8,112.59,87.8"/>
		<path class="st83" d="M349.45,713.48c0,0-74.69-25.1-116.31-1.84c53.26,26.32,101.62,55.1,101.62,55.1"/>
		<path class="st83" d="M443.58,470.56c0,0-13.68-66.81-7.24-94.99c29.78,19.32,75.67,73.25,75.67,73.25"/>
		<path class="st83" d="M601.44,382.34c0,0,5.7-60.84,16.16-73.2c26.62,26.62,46.58,64.65,46.58,64.65"/>
		<path class="st83" d="M1207.61,452.19c2.79-0.93,40.97-47.49,54.94-53.07c4.66,41.9-12.1,113.6-12.1,113.6"/>
		<path class="st83" d="M1064.22,360.94c0,0,24.21-45.62,38.18-59.59c6.52,38.18,7.45,94.97,7.45,94.97"/>
		<polyline class="st83" points="930.18,328.94 943.16,287.38 957.02,312.49 		"/>
		<path class="st83" d="M771.75,332.4c0,0,5.19-45.88,10.39-52.81c11.25,18.18,16.45,33.76,16.45,33.76"/>
		<path class="st83" d="M1304.3,550.64c0,0,36.5-24.02,53.79-25.94c-4.8,31.7-24.02,67.24-24.02,67.24"/>
		<path class="st168" d="M811.28,1412.88c0,0,39.26,9.34,115.86,0.55c100.96-11.59,115.86-33.1,115.86-33.1"/>
	</g>
</g>
</svg>
