<svg xmlns="http://www.w3.org/2000/svg" viewBox="0 0 1648.71 1747.87" style="enable-background:new 0 0 1648.71 1747.87" xml:space="preserve"><style>.st13{fill:#c47956}.st16{fill:#ad523b}.st17{fill:#ffb531}.st19{fill:#fffefd}.st25{fill:#d99c6a}.st26{fill:#dd283e}.st28{opacity:.4;fill:#e85a6c}.st34{fill:#e8bb80}.st35{fill:#e8d09b}.st36,.st37{opacity:.5;fill:#ad523b}.st37{fill:#96422d}.st38{fill:#403f3e}.st48{fill:#ffff82}.st59{fill:#2f5e27}.st60{fill:#18401f}.st61{opacity:.5;fill:#93944e}.st63{fill:#cf631b}.st66{fill:#630b16}.st67{fill:#941341}.st69{fill:#873c2f}.st71,.st76{fill:none;stroke:#000;stroke-width:12;stroke-miterlimit:10}.st76{stroke-width:7;stroke-linecap:round}.st78{fill:#fff}.st79,.st81,.st82,.st83{fill:none;stroke:#000;stroke-width:6;stroke-miterlimit:10}.st81,.st82,.st83{stroke-width:11.5038}.st82,.st83{stroke-width:11.7275}.st83{stroke-width:7}</style><g id="Capa_2"><path d="M924.78 1607.34c-1.43-.02-2.84-.06-4.26-.09l-5.55-.15-3.32-.2c-.76-.05-1.52-.09-2.28-.14-1.42-.08-2.84-.17-4.26-.28l-6.52-.64c-1.73-.14-3.49-.38-5.18-.62l-1.36-.19c-.77-.11-1.52-.21-2.27-.31-1.4-.18-2.84-.37-4.28-.64l-2.16-.38c-3.53-.62-7.18-1.27-10.76-2.13l-4.75-1.06-7.97-2.15c-1.9-.48-4.12-1.19-6.55-2.08-1.1-.41-2.2-.85-3.26-1.3-.69-.3-1.33-.6-1.97-.9l-1.04-.48c-16.27-7.27-31.66-15.84-45.7-25.47-14.04-9.61-27.62-20.84-40.33-33.38-8.26-8.19-16.55-17.25-25.33-27.66-25.5 14.26-50.84 17.29-67.74 17.29-10.58 0-17.42-1.2-18.16-1.34l-4-.73-1.76-3.66c-.83-1.73-20.34-43.01-12.93-98.59l.53-3.96 3.48-1.96c25.49-14.34 46.46-16.51 56.73-16.51-.36-3.9-.71-7.79-1.04-11.69-55.72-47.14-77.37-103.07-66.2-170.97l.35-2.15 1.4-1.67c5.97-7.16 13.92-13.87 23.67-19.97-2.64-8.82-6.88-26.14-8.86-51.36-2.29-29.22-1.79-76.32 13.41-135.41l-96.15-31.73-100.64-32.95-50.36-16.29-25.21-8.04-13.4-4.24-.56-.19-.81-.3c-1.27-.54-2.37-1.19-3.35-1.97a14.022 14.022 0 0 1-4.33-6.04c-.79-2.11-1.08-4.38-.86-6.72.25-2.45 1.04-4.68 2.34-6.64 1.39-2.15 3.58-3.96 5.99-4.95.65-.26 1.26-.47 1.84-.61l.88-.2 2.27-.37c2.17-.34 4.49-.61 7.11-.83 4.18-.35 8.56-.54 13.8-.59.84-.01 1.67-.01 2.51-.01 3.37 0 6.99.07 11.06.21 5.18.18 9.46.41 13.47.71 4.7.34 9.54.75 14.63 1.24-3.04-1.51-6.07-3.02-9.11-4.52-23.53-11.69-50.91-25.28-78.1-38.48-8.39-4.11-16.95-8.21-25.23-12.17-4.66-2.23-9.32-4.46-13.98-6.71l-19.66-9.27c-2.33-1.09-4.66-2.19-6.99-3.29-4.15-1.96-8.45-3.99-12.69-5.91l-25.95-11.88-.72-.34-.22-.11c-.3-.15-.6-.3-.9-.47-1.44-.8-2.82-1.88-3.99-3.12-2.23-2.37-3.75-5.36-4.38-8.65-.6-3.11-.4-6.32.58-9.31 1.06-3.24 3.09-6.13 5.73-8.13 1.34-1.03 2.9-1.88 4.5-2.44l.86-.29c.7-.23 1.38-.46 2.08-.66 3.64-1.1 7.53-2 11.54-2.66 7.06-1.18 14.56-1.78 22.91-1.82h1.12c6.64 0 13.37.34 20.54 1.03-19.13-10.72-45.04-24.79-72.03-38.13l-9.37-4.63 9.13-5.1c12.63-7.06 29.09-10.64 48.94-10.64 18.03 0 35.79 2.94 49.28 5.97-53.15-50.13-90.47-88.69-110.98-114.69l-13.92-17.64 21.84 5.31c38.2 9.29 76.42 25.59 116.61 49.78-17.4-31.07-43.85-81.43-51.98-113.95l-3.32-13.28 11.59 7.3c20.7 13.03 52.16 37.84 74.92 56.38l13.04 9.24a893.63 893.63 0 0 1-3.5-6.48c-11.02-20.57-20.26-39.35-28.25-57.44-10.01-22.76-17.09-41.98-22.27-60.49l-2.15-7.79-1.86-7.96-.91-3.95c-.19-.91-.35-1.79-.51-2.67-.08-.47-1.71-9.41-1.71-9.41-1.76-12.16-2.47-22.97-2.2-33.12l.18-6.52 6.29-.85c.7-.09 1.4-.14 2.04-.14l.29.01c.47.03.95.08 1.42.14.38.05.66.11.94.17l.5.11c.35.08.71.16.99.25 1.03.29 2.09.66 3.35 1.16 1.96.78 3.69 1.62 5.69 2.65 3.16 1.64 6.4 3.49 10.19 5.84 5.93 3.69 12.1 7.89 18.87 12.84 11.31 8.27 22.81 17.54 35.14 28.33 8.33 7.31 16.75 15.12 25.1 23.27-3.41-21.89-7.38-55.62-3.13-74.22l1.75-7.67 6.6 4.28c19.65 12.74 45.54 39.51 61.72 57.22-3.95-24.67-6.81-47.79-8.73-70.56-1.15-13.73-1.83-26.01-2.09-37.54-.15-7.03-.13-13.24.06-18.99.12-3.54.31-6.7.56-9.65.26-2.89.62-6.34 1.36-10.04.35-1.64.78-3.56 1.63-5.71l.04-.1c.45-1.06.95-2.25 2.13-3.77.33-.4.7-.84 1.23-1.31.26-.24.54-.47.85-.69.28-.2.4-.27.52-.34l.1-.06c.75-.47 1.39-.8 2.01-1.06 2.21-.98 4.64-1.46 7.39-1.46 2.13.01 4.19.27 6.38.81 3.38.83 6.75 2.15 10.32 4.04 2.88 1.53 5.73 3.32 8.72 5.47 4.93 3.56 9.81 7.8 14.93 12.95 4.35 4.39 8.55 9.11 12.85 14.43 7.41 9.17 14.56 19.37 21.84 31.19 5.18 8.42 10.14 17.17 15.08 26.6 3-22.38 7.9-48.18 15.19-56.8l3.86-4.56 4.23 4.23c14 14 26.08 30.84 34.67 44.19-1.19-47.6.64-123.53 22.34-150.97 5.56-7.03 12.18-10.81 19.67-11.23.43-.02.85-.04 1.28-.04 13.17 0 25.79 11.33 38.58 34.64 10.34 18.87 20.72 45.35 30.83 78.7.4 1.31.8 2.64 1.2 4 2.56-15.38 5.14-24.88 7.69-28.27l4.83-6.45 4.24 6.85c2.8 4.53 5.45 9.23 7.9 14.04 2.67-22.64 6.19-43.18 10.72-62.6 4.29-18.08 8.85-32.6 14.37-45.71 3.68-8.65 7.34-15.61 11.54-21.91 2.61-3.9 5.25-7.23 8.07-10.2 3.53-3.67 7.09-6.5 10.89-8.66 4.55-2.6 9.54-4.13 14.4-4.42.68-.05 1.39-.07 2.1-.07 1.84 0 3.7.16 5.54.47 2.63.41 5.44 1.3 7.67 2.41 4.09 2.01 7.75 4.92 11.48 9.16 2.67 3.09 5.14 6.61 7.55 10.77 3.66 6.36 6.89 13.5 10.18 22.47 2.53 6.95 4.87 14.44 7.17 22.88 3.73 13.79 6.96 28.47 10.17 46.2 2.68 14.9 5.08 30.53 7.14 46.47.04.29.07.58.11.87l7.95-25.43 9.37 16.97c5.35-25.07 11.55-45.79 19.38-64.84 5.86-14.06 11.76-25.11 18.58-34.77 4.7-6.54 9.1-11.46 13.88-15.47 2.16-1.77 5.5-4.33 9.81-6.19 2.3-.97 4.48-1.55 6.66-1.79.79-.07 1.41-.1 2.01-.1.73 0 1.41.04 2.08.14.61.06 1.34.2 2.16.43l.12.03c.13.03.26.06.54.16.38.13.74.27 1.05.41.64.29 1.14.6 1.54.87 1.68 1.16 2.54 2.2 3.3 3.12.71.9 1.3 1.74 1.91 2.73.89 1.45 1.7 2.95 2.62 4.88 1.29 2.73 2.48 5.62 3.87 9.38 1.98 5.42 3.84 11.32 5.88 18.58 3.1 11.11 5.99 23.32 8.84 37.32 4.81 23.76 8.67 48.4 11.79 75.34.75 6.51 1.45 13.19 2.09 19.93 9.18-15.97 20.77-34.62 29.27-43.11l7.52-7.52 1.79 10.48c3.58 20.98 5.51 47.54 6.54 68.41 10.76-21.63 22.68-42.74 35.5-62.87 14.53-22.81 30.3-44.31 44.42-60.54 20.79-23.91 27.23-24.59 29.65-24.85l6.31-.67 1.99 6.02c14.88 45 11.73 111.25-9.64 202.35 14.76-16.03 29.22-30.79 37.93-34.27l6.71-2.68.8 7.18c3.04 27.4-2.67 66.44-7.26 91.29 41.18-47.53 82.44-82.89 122.74-105.18l20.2-11.17-9.18 21.18c-11.94 27.55-33.36 70.02-63.68 126.29 4.35.69 8.69 1.41 12.93 2.15 5.44-2.14 10.06-3.42 13.73-3.83l7.12-.79-1.07 7.08c-2.86 18.86-10.38 38.61-16.9 53.15 21.11-8.23 41.25-12.24 61.42-12.24 2.58 0 5.21.07 7.8.2 7.13.36 13.19 5.08 15.46 12.02 2.29 7.01.15 14.49-5.46 19.05-39.22 31.87-86.67 76.64-141.12 133.15 14.51-4.84 27.69-7.84 39.29-8.95.46-.04.91-.06 1.36-.06 6.03 0 11.23 3.79 13.24 9.65 2.21 6.43-.07 13.16-5.69 16.75-89.68 57.19-189.24 159.74-219.22 191.56 16.87 32.12 24.58 76.46 28.09 108.19 3.34 30.23 3.9 57.84 3.3 74.42.24.01.47.02.71.04 3.88.25 7.62.83 11.13 1.7 4.1 1.13 7.83 2.71 11.14 4.72l1.95 1.13 1.01 2.15c7.72 16.47 13.08 33.32 15.96 50.08 2.94 16.73 3.33 34.36 1.15 52.42l-.92 6.46c-.1.63-.18 1.25-.27 1.86-.21 1.54-.43 3.13-.82 4.71l-1.99 9.42c-.23 1.11-.46 2.21-.79 3.3l-3.47 12.43-4.23 12.21c-5.44 14.45-12.42 29.18-21.35 45.04l.87 5.6c6.19-1.65 16.97-3.83 30.78-3.83 10.92 0 22.01 1.35 32.96 4.01l3.88.94 1.58 3.67c22.17 51.49 14.58 96.52 14.24 98.41l-.71 4-3.65 1.79c-.96.47-23.97 11.56-55.78 11.56-10.71 0-21.36-1.28-31.69-3.8-.33.75-.67 1.49-1.01 2.23-6.6 14.26-14.8 29.16-25.06 45.55-4.18 6.65-8.85 13.72-14.29 21.61l-1.14 1.62c-2.06 2.95-4.2 5.99-6.36 8.95l-1.88 2.61c-.43.59-.88 1.17-1.33 1.75l-.68.89c-.4.51-.77 1-1.14 1.49-.95 1.25-1.93 2.54-3 3.76-11.05 13.52-24.42 25.24-39.69 34.8-7.48 4.68-15.39 8.79-23.53 12.23-7.88 3.34-16.36 6.12-25.21 8.27-7.87 1.89-16.24 3.55-25.61 5.07-8.54 1.33-17.25 2.38-25.92 3.11-8.39.64-16.8.96-25.02.96l-1.2.03z"/><path d="M866.8 139.17c1.75 0 3.5.15 5.2.44 2.23.35 4.91 1.13 7.11 2.23 4.51 2.21 7.97 5.4 10.88 8.69 2.88 3.33 5.24 6.86 7.32 10.45 4.14 7.2 7.28 14.65 10.03 22.15 2.73 7.51 5.05 15.1 7.12 22.72 4.12 15.25 7.34 30.62 10.13 46.03 2.77 15.42 5.12 30.88 7.12 46.37.43 3.34.84 6.69 1.25 10.04l9.31-29.78 9.71 17.6c4.83-23.66 11.08-47.15 20.38-69.77 4.96-11.89 10.73-23.56 18.36-34.38 3.86-5.38 8.15-10.57 13.53-15.09 2.72-2.23 5.7-4.32 9.31-5.88 1.82-.76 3.81-1.39 6.09-1.64.59-.05 1.18-.09 1.79-.09.59 0 1.19.03 1.81.12.62.06 1.27.2 1.91.38.19.05.25.06.55.16.29.1.58.21.83.32.52.23.92.48 1.29.73 1.43.99 2.18 1.9 2.89 2.76.68.85 1.23 1.67 1.72 2.47.99 1.6 1.78 3.15 2.52 4.69 1.46 3.09 2.67 6.14 3.79 9.21 2.23 6.13 4.1 12.27 5.83 18.43 3.44 12.32 6.27 24.73 8.81 37.18 5.04 24.9 8.84 49.99 11.76 75.17 1 8.73 1.89 17.46 2.67 26.21 8.27-14.69 22.39-38.52 32.08-48.21l4.79-4.79 1.14 6.67c4.12 24.11 6.02 55.84 6.87 75.96 13.25-27.42 26.88-50.93 38.83-69.68 14.48-22.73 30.19-44.14 44.24-60.3 20.27-23.32 26.35-23.96 28.35-24.17l4.7-.5 1.48 4.49c15.16 45.85 11.4 114.19-11.48 208.76 17.28-18.95 33.33-35.82 42.4-39.45l4.27-1.71.51 4.57c3.33 30.01-3.95 74.19-8.64 98.07 48.74-57.41 91.9-90.98 127.08-110.43l15.07-8.33-6.85 15.79c-13.18 30.39-36.67 76.22-64.95 128.62 5.48.85 10.9 1.74 16.24 2.67 5.07-2.02 9.83-3.48 13.74-3.91l4.53-.5-.68 4.51c-3.23 21.35-12.68 44.04-18.84 57.19 22.81-9.5 44.15-13.98 65.33-13.98 2.57 0 5.14.07 7.7.2 6.29.32 11.65 4.5 13.66 10.64 2.03 6.22.14 12.84-4.82 16.87-45.99 37.37-98.11 88.23-147.11 139.36 13.45-4.94 30.57-10.08 46.73-11.62.39-.04.78-.06 1.17-.06 5.13 0 9.6 3.22 11.35 8.3 1.91 5.54-.05 11.33-4.88 14.41-90.99 58.03-191.93 162.44-220.58 192.92 17.14 31.84 24.98 76.51 28.54 108.74 3.56 32.19 3.91 60.38 3.21 76.14.89.02 1.79.05 2.68.1 3.55.23 7.15.75 10.75 1.65 3.6.99 7.19 2.43 10.58 4.49l1.44.84.74 1.59c7.37 15.73 12.86 32.42 15.8 49.57 3.02 17.14 3.21 34.7 1.14 51.84l-.92 6.41c-.33 2.13-.54 4.28-1.05 6.38l-1.33 6.32-.67 3.16c-.21 1.05-.44 2.11-.75 3.14l-3.47 12.41-4.21 12.15c-5.92 15.73-13.33 30.78-21.54 45.32.44 2.84.88 5.67 1.31 8.51 5.86-1.73 17.24-4.36 32.42-4.36 9.49 0 20.46 1.03 32.49 3.95l2.91.71 1.18 2.75c21.95 50.96 14.44 95.4 14.11 97.27l-.53 3-2.74 1.34c-1.25.61-23.66 11.36-54.9 11.36-10.15 0-21.24-1.16-32.83-4.14-.56 1.25-1.12 2.5-1.69 3.75-7.27 15.7-15.8 30.72-24.94 45.32-4.58 7.29-9.36 14.45-14.24 21.54-2.47 3.52-4.93 7.05-7.46 10.53l-1.89 2.62c-.64.87-1.32 1.74-1.98 2.6-1.34 1.72-2.62 3.5-4.06 5.14-11.06 13.53-24.43 25.15-39.25 34.43-7.41 4.64-15.19 8.68-23.25 12.09-8.05 3.41-16.41 6.1-24.9 8.16-8.46 2.03-16.91 3.65-25.46 5.05a370.38 370.38 0 0 1-25.77 3.09c-8.26.63-16.55.96-24.85.96h-1.12c-2.17-.02-4.34-.1-6.5-.15l-3.25-.09-3.25-.2c-2.17-.14-4.33-.24-6.5-.42l-6.49-.63c-2.17-.18-4.32-.51-6.47-.8-2.15-.32-4.31-.54-6.45-.94-4.28-.77-8.58-1.47-12.81-2.49l-3.19-.71-1.59-.36-1.58-.43-6.31-1.71c-2.08-.53-4.28-1.26-6.39-2.03-1.06-.39-2.11-.81-3.16-1.26-1.03-.45-1.98-.91-2.97-1.36-15.81-7.07-31.08-15.48-45.4-25.3-14.33-9.8-27.72-20.98-40.06-33.15-9.25-9.18-17.94-18.86-26.27-28.79-25.82 14.87-51.67 17.85-68.2 17.85-10.4 0-17.1-1.18-17.8-1.3l-3-.55-1.32-2.75c-.82-1.71-20.08-42.46-12.75-97.45l.4-2.97 2.61-1.47c24.9-14.01 45.29-16.26 55.82-16.26.76 0 1.48.01 2.14.03l-.15-1.56c-.41-4.38-.8-8.77-1.17-13.15-55.59-46.74-77.24-102.25-66.15-169.65l.26-1.61 1.05-1.26c7.16-8.59 16.36-15.4 24.5-20.36-2.35-7.54-7.12-25.45-9.23-52.41-2.36-30.13-1.63-77.42 13.83-136.57l-97.93-32.32-100.62-32.96-50.37-16.29-25.21-8.04-12.61-4-.79-.25-.53-.18-.74-.28c-.99-.42-1.94-.98-2.81-1.66-1.73-1.39-3-3.24-3.69-5.15-.72-1.92-.93-3.89-.75-5.85.2-1.95.82-3.92 2.02-5.72 1.16-1.8 3.02-3.36 5.08-4.21.51-.21 1.04-.39 1.56-.52l.78-.18.44-.07 1.76-.28c2.35-.36 4.66-.62 6.96-.81 4.6-.39 9.14-.54 13.65-.58.83-.01 1.66-.01 2.48-.01 3.68 0 7.34.08 11 .21 4.48.16 8.94.37 13.38.71 8.55.61 17.07 1.43 25.56 2.38-6.33-3.16-12.66-6.31-19-9.45-26-12.92-52-25.81-78.11-38.49-13.03-6.38-26.15-12.58-39.21-18.88l-19.68-9.28c-6.57-3.07-13.11-6.21-19.71-9.21l-19.77-9.05-4.94-2.26-1.24-.57-.71-.33c-.33-.16-.66-.32-.98-.5-1.29-.72-2.49-1.67-3.52-2.75-2.06-2.19-3.35-4.91-3.88-7.66-.53-2.76-.38-5.59.51-8.3.88-2.7 2.6-5.31 5.04-7.16a14.68 14.68 0 0 1 3.96-2.15c.97-.32 1.88-.64 2.83-.91 3.75-1.13 7.54-1.99 11.31-2.61 7.56-1.26 15.11-1.75 22.6-1.8h1.11c7.12 0 14.18.4 21.2 1.1 2.99.3 5.97.65 8.94 1.04-19.07-10.82-49.15-27.43-80.73-43.04l-5.96-2.95 5.81-3.25c13.86-7.75 31.02-10.38 47.96-10.38 21.43 0 42.5 4.22 56.11 7.65-50.11-47.05-92.9-90.03-116.24-119.61l-10.33-13.09 16.2 3.94c39.8 9.67 80.31 27.34 122.6 53.55-16.74-29.47-46.84-85.27-55.56-120.15l-2.11-8.45 7.37 4.64c20.19 12.71 50.59 36.59 74.78 56.28l20.2 14.32c-2.6-4.68-5.16-9.38-7.69-14.09-10.04-18.73-19.56-37.78-28.18-57.3-8.59-19.52-16.37-39.49-22.17-60.22l-2.15-7.78-1.84-7.88-.91-3.94c-.28-1.32-.5-2.66-.75-3.99l-1.46-8c-1.55-10.76-2.47-21.67-2.17-32.7l.13-4.82 4.61-.62h.02c.58-.08 1.19-.12 1.76-.12h.14c.44.03.88.08 1.32.13.45.05.71.14 1.08.21.33.08.7.15.97.24 1.2.34 2.24.72 3.23 1.12 1.99.79 3.77 1.67 5.53 2.57 3.5 1.81 6.8 3.75 10.04 5.76 6.47 4.03 12.67 8.31 18.74 12.75 12.14 8.88 23.74 18.37 35.01 28.22 10.08 8.85 19.86 18.03 29.37 27.48-3.66-21.94-8.68-59.58-4.13-79.49l1.12-4.88 4.2 2.72c21.43 13.9 50.49 44.77 65.89 61.92-.17-.99-.34-1.99-.5-2.98-4.02-24.57-7.22-49.27-9.31-74.12-1.04-12.43-1.8-24.89-2.08-37.42-.14-6.27-.15-12.55.06-18.87.11-3.16.28-6.34.55-9.55.28-3.21.65-6.43 1.33-9.81.36-1.7.76-3.42 1.53-5.38.42-1 .85-2.04 1.89-3.37.28-.34.58-.68.99-1.05.2-.18.42-.36.68-.55.3-.22.34-.22.51-.33.56-.35 1.14-.67 1.72-.91 2.3-1.02 4.57-1.31 6.62-1.31h.08c2.09.01 4.02.31 5.82.75 3.62.89 6.85 2.27 9.86 3.87s5.82 3.4 8.49 5.33c5.34 3.86 10.16 8.19 14.68 12.74 4.52 4.55 8.73 9.34 12.71 14.27 7.97 9.87 15.1 20.28 21.69 30.98 6.45 10.49 12.4 21.24 17.96 32.17 2.34-19.09 7.46-52.57 15.55-62.13l2.46-2.9 2.69 2.69c16.26 16.26 29.91 36.42 38.29 50.06-2.41-72.77 3.67-134.21 21.7-157 5.19-6.56 11.32-10.09 18.21-10.47.39-.02.78-.03 1.17-.03 12.38 0 24.43 11.01 36.82 33.61 10.28 18.74 20.6 45.09 30.67 78.32 1.25 4.12 2.48 8.33 3.71 12.62 2.07-14.18 5.22-31.63 8.7-36.26l3.08-4.1 2.7 4.36c4.58 7.4 8.16 14.34 10.82 20.03 2.52-23.2 6.12-46.32 11.45-69.19 3.64-15.34 8.03-30.59 14.27-45.39 3.14-7.39 6.76-14.67 11.36-21.58 2.31-3.45 4.88-6.8 7.86-9.92 2.99-3.11 6.4-6.02 10.43-8.3 4-2.28 8.69-3.87 13.53-4.17.61-.1 1.26-.12 1.92-.12m0-4c-.75 0-1.5.02-2.24.07-5.14.31-10.43 1.93-15.25 4.68-3.96 2.25-7.67 5.19-11.33 9-2.92 3.06-5.63 6.48-8.3 10.47-4.27 6.41-7.99 13.48-11.71 22.24-5.57 13.22-10.17 27.84-14.48 46.03-4.13 17.68-7.41 36.27-9.99 56.52-1.6-2.9-3.27-5.75-4.99-8.54l-2.7-4.36-3.08-4.98-3.52 4.69-3.08 4.1c-.93 1.24-3.36 4.48-6.58 20.94-9.77-31.64-19.78-56.9-29.78-75.14-13.17-24.01-26.36-35.68-40.33-35.68-.46 0-.93.01-1.39.04-8.08.45-15.19 4.49-21.12 11.98-21.04 26.6-23.75 97.27-22.92 145.3-8.26-12.3-18.96-26.55-31.11-38.7l-2.69-2.69-3.07-3.07-2.81 3.32-2.46 2.9c-6.91 8.17-11.69 30.65-14.79 51.72a431.54 431.54 0 0 0-12.26-21.27c-7.32-11.88-14.51-22.15-21.99-31.4-4.33-5.37-8.58-10.14-12.98-14.57-5.19-5.23-10.16-9.53-15.17-13.16-3.07-2.21-6-4.05-8.96-5.62-3.71-1.97-7.24-3.35-10.77-4.22-2.35-.58-4.56-.86-6.76-.87h-.1c-3.01 0-5.69.53-8.19 1.63-.71.3-1.43.68-2.25 1.19l-.03.02-.03.02c-.21.12-.4.24-.71.47-.34.24-.68.52-1.02.83a12.5 12.5 0 0 0-1.39 1.48l-.03.04-.03.04c-1.33 1.72-1.92 3.1-2.39 4.21l-.02.05-.02.05-.02.05c-.9 2.3-1.36 4.31-1.72 6.01-.77 3.82-1.14 7.34-1.4 10.28-.26 3-.44 6.19-.57 9.76-.2 5.8-.21 12.05-.06 19.1.26 11.57.95 23.89 2.1 37.66 1.75 20.79 4.29 41.88 7.73 64.19-16.28-17.53-39.54-40.95-57.63-52.69l-4.2-2.72-4.8-3.11-1.28 5.58-1.12 4.88c-3.85 16.84-1.32 44.99 2.21 69.1a637.53 637.53 0 0 0-20.91-19.21c-12.39-10.83-23.93-20.14-35.28-28.44-6.8-4.97-13.01-9.2-18.99-12.92-3.84-2.38-7.11-4.26-10.32-5.91-2.07-1.06-3.86-1.92-5.88-2.73-1.3-.52-2.4-.9-3.56-1.23-.38-.12-.75-.2-1.09-.28l-.16-.04-.05-.01-.05-.01c-.08-.02-.15-.03-.22-.05-.27-.06-.64-.14-1.15-.21-.48-.06-1-.11-1.5-.15l-.12-.01h-.31c-.73 0-1.52.05-2.29.16l-4.63.62-3.37.45-.09 3.4-.13 4.82c-.28 10.26.45 21.18 2.21 33.38l.01.07.01.07 1.46 8c.09.48.17.94.26 1.4.16.88.32 1.78.51 2.7l.01.04.01.04.91 3.94 1.84 7.89.02.08.02.08 2.15 7.78c5.21 18.62 12.32 37.92 22.37 60.77 7.87 17.83 16.95 36.33 27.75 56.53l-6-4.25c-22.81-18.57-54.31-43.41-75.07-56.48l-7.37-4.64-8.43-5.31 2.42 9.66 2.11 8.45c7.64 30.56 31.27 76.63 48.58 107.97-38.04-22.22-74.41-37.39-110.79-46.23l-16.2-3.94-11.27-2.74 7.18 9.1 10.33 13.09c19.9 25.22 55.54 62.2 106.02 110.03-12.47-2.46-27.51-4.54-42.75-4.54-20.19 0-36.98 3.66-49.91 10.89l-5.81 3.25-6.64 3.71 6.82 3.37 5.96 2.95c23.37 11.55 45.93 23.65 63.97 33.64-3.94-.22-7.79-.33-11.6-.33h-1.13c-8.46.05-16.06.65-23.23 1.85-4.08.68-8.04 1.59-11.79 2.72-.75.22-1.46.45-2.14.68-.26.09-.53.18-.8.27l-.04.01-.04.01c-1.8.63-3.55 1.58-5.06 2.74-2.94 2.24-5.22 5.47-6.41 9.1-1.08 3.3-1.31 6.86-.64 10.31.71 3.66 2.4 6.99 4.89 9.64 1.32 1.41 2.83 2.59 4.48 3.51.29.17.63.33.96.5l.19.09.04.02.05.02.71.33 1.26.58 4.94 2.26 19.77 9.05c4.24 1.93 8.53 3.95 12.68 5.91 2.33 1.1 4.66 2.2 7 3.29l19.66 9.27c4.61 2.22 9.25 4.45 13.9 6.67 8.29 3.97 16.87 8.08 25.26 12.19 26.99 13.11 54.23 26.62 77.7 38.28-1.38-.11-2.75-.21-4.1-.31-4.02-.31-8.32-.53-13.53-.72-4.1-.14-7.74-.21-11.14-.21-.84 0-1.68 0-2.53.01-5.29.05-9.72.24-13.95.6-2.67.23-5.03.5-7.24.84l-1.79.29-.44.07-.13.02-.13.03-.78.18-.03.01-.03.01c-.66.16-1.37.4-2.11.7-2.78 1.14-5.29 3.22-6.91 5.71-1.48 2.23-2.37 4.75-2.65 7.51-.25 2.69.08 5.25.98 7.66.96 2.63 2.72 5.08 4.93 6.86 1.15.91 2.4 1.65 3.75 2.23l.09.04.09.03.74.28.06.02.06.02.53.18.03.01.03.01.79.25 12.61 4 25.21 8.04 50.35 16.28 100.63 32.94 94.37 31.14c-14.82 58.51-15.28 105.18-13.01 134.25 1.88 24.08 5.83 41.04 8.51 50.32-9.35 5.99-17.03 12.57-22.87 19.57l-1.05 1.25-.7.84-.18 1.08-.26 1.61c-11.26 68.39 10.42 124.77 66.25 172.28.26 3.04.52 5.92.77 8.73-11.09.32-31.33 3.13-55.52 16.74l-2.61 1.47-1.74.98-.26 1.98-.4 2.97c-7.49 56.17 12.27 97.97 13.11 99.72l1.32 2.75.88 1.83 2 .37 3 .55c.76.14 7.76 1.37 18.52 1.37 16.82 0 41.88-2.96 67.27-16.74 8.42 9.93 16.42 18.63 24.38 26.53 12.81 12.63 26.47 23.94 40.62 33.61 14.14 9.69 29.63 18.32 46.03 25.65.31.14.65.3.99.46.66.31 1.31.61 2 .91 1.11.48 2.24.93 3.37 1.35 2.5.92 4.77 1.64 6.76 2.15l6.28 1.7 1.58.43.08.02.08.02 1.59.36 3.16.7c3.63.88 7.31 1.53 10.86 2.15.72.13 1.43.25 2.15.38 1.46.27 2.94.47 4.36.65.74.1 1.48.19 2.22.3h.06c.45.06.91.12 1.36.19 1.71.24 3.48.48 5.28.63l6.46.63h.06c1.45.12 2.9.2 4.3.28.75.04 1.51.09 2.26.14l3.27.2h.14l3.25.09 2.29.06c1.4.04 2.84.08 4.28.1h1.17c8.27 0 16.73-.33 25.16-.97 8.75-.74 17.52-1.79 26.08-3.13 9.45-1.54 17.87-3.21 25.78-5.11 8.97-2.18 17.55-4.99 25.53-8.37a169.04 169.04 0 0 0 23.81-12.38c15.44-9.67 28.96-21.52 40.18-35.24 1.1-1.26 2.08-2.56 3.04-3.81.37-.49.74-.97 1.12-1.46l.02-.02.02-.02c.22-.29.45-.59.68-.88.46-.59.91-1.19 1.35-1.78l1.9-2.64c2.15-2.94 4.27-5.98 6.33-8.91l1.16-1.66c5.46-7.94 10.15-15.03 14.35-21.71 10.31-16.46 18.55-31.43 25.18-45.77.12-.25.23-.5.34-.76 9.98 2.3 20.23 3.47 30.54 3.47 32.27 0 55.68-11.29 56.66-11.77l2.74-1.34 1.83-.89.35-2 .53-3c.34-1.92 8.04-47.5-14.37-99.55l-1.18-2.75-.79-1.83-1.94-.47-2.91-.71c-11.1-2.7-22.35-4.06-33.43-4.06-12.54 0-22.63 1.77-29.14 3.35l-.42-2.74c8.82-15.72 15.73-30.35 21.12-44.67l.02-.05.02-.05 4.21-12.15.04-.12.03-.12 3.45-12.37c.35-1.17.6-2.31.83-3.46l.66-3.13 1.32-6.27c.4-1.66.62-3.28.84-4.85.08-.6.17-1.2.26-1.8l.93-6.46.01-.04.01-.04c2.2-18.25 1.81-36.09-1.17-53.01-2.9-16.91-8.32-33.93-16.11-50.57l-.74-1.59-.53-1.13-1.08-.63-1.41-.82c-3.46-2.09-7.34-3.74-11.56-4.9l-.05-.01-.05-.01a65.39 65.39 0 0 0-10.26-1.67c.49-16.82-.16-43.58-3.38-72.77-3.48-31.5-11.09-75.35-27.64-107.63 31.07-32.91 129.32-133.75 217.87-190.22 6.41-4.09 9.03-11.76 6.51-19.08-2.3-6.68-8.24-11-15.13-11-.51 0-1.03.02-1.55.07-9.7.92-20.47 3.15-32.18 6.65 52.1-53.78 97.62-96.57 135.46-127.31 6.26-5.09 8.65-13.42 6.1-21.22-2.53-7.73-9.3-12.99-17.26-13.39-2.63-.13-5.29-.2-7.9-.2-18.99 0-37.95 3.51-57.67 10.69 6.07-14.12 12.52-32.06 15.14-49.3l.68-4.51.78-5.15-5.18.58-4.53.5c-3.78.42-8.27 1.65-13.71 3.75-3.16-.55-6.38-1.09-9.63-1.61 29.64-55.08 50.63-96.77 62.42-123.96l6.85-15.79 4.67-10.77-10.28 5.68-15.07 8.33c-38.95 21.54-78.78 55.21-118.54 100.19 4.3-24.87 8.81-59.62 6.01-84.78l-.51-4.57-.58-5.23-4.88 1.95-4.27 1.71c-7.56 3.03-18.32 13.05-33.55 29.29 19.92-87.73 22.5-151.99 7.91-196.14l-1.48-4.49-1.01-3.06-3.21.34-4.7.5c-2.89.31-9.65 1.02-30.95 25.52-14.17 16.3-30.01 37.88-44.59 60.77a682.422 682.422 0 0 0-32.21 56.33c-1.11-19.53-2.99-42.51-6.17-61.13l-1.14-6.67-1.3-7.62-5.47 5.47-4.79 4.79c-7.7 7.7-17.81 23.45-26.47 38.17-.47-4.65-.97-9.26-1.49-13.79-3.13-27.01-7-51.71-11.82-75.51-2.87-14.07-5.77-26.32-8.88-37.46-2.05-7.31-3.93-13.26-5.93-18.72-1.41-3.83-2.62-6.77-3.94-9.55-.96-2.01-1.8-3.57-2.73-5.08a28.62 28.62 0 0 0-1.99-2.85l-.03-.04-.03-.04c-.83-.99-1.82-2.19-3.68-3.48l-.04-.03-.04-.02c-.43-.29-1.03-.66-1.81-1.02-.37-.17-.79-.34-1.24-.49-.36-.12-.53-.16-.7-.2l-.02-.01-.06-.02c-.9-.24-1.71-.4-2.47-.49-.74-.1-1.49-.15-2.29-.15-.66 0-1.34.03-2.14.1h-.08c-2.38.26-4.74.89-7.21 1.93-4.57 1.97-8.07 4.64-10.3 6.48-4.94 4.15-9.45 9.18-14.24 15.85-6.92 9.81-12.89 20.98-18.81 35.17-7.33 17.84-13.24 37.12-18.36 59.99l-4.53-8.22-4.53-8.2-2.79 8.94-3.85 12.31c-1.81-13.17-3.84-26.07-6.07-38.45-3.22-17.79-6.46-32.52-10.21-46.37-2.31-8.5-4.67-16.03-7.22-23.04-3.33-9.09-6.61-16.33-10.32-22.78-2.48-4.28-5.02-7.9-7.76-11.07-3.94-4.47-7.79-7.53-12.14-9.67-2.38-1.19-5.4-2.14-8.25-2.59-1.93-.27-3.91-.44-5.86-.44z"/></g><g id="Capa_6"><path d="M753.13 1055.86c17.99-14.9 36.29-27.81 54.39-38.39l2.12 3.39c-13.01 8.64-32.95 22.27-54.03 38.14l-2.48-3.14z"/><path d="M808.54 1019.2c-13.17 8.74-33.06 22.36-54.13 38.2 17.04-14.11 35.06-27.06 54.13-38.2m-2.02-3.45c-18.19 10.63-36.59 23.61-54.66 38.58l4.96 6.28c21.05-15.84 40.95-29.45 53.94-38.07l-4.24-6.79zM697.64 1365.43c-.32-4.29-.62-8.58-.92-12.88l3.98-.35c.49 4.58.8 8.96.93 13.02l-3.99.21z"/><path d="M698.72 1352.42c.46 4.3.78 8.63.92 12.87-.32-4.29-.63-8.58-.92-12.87m3.97-.43-7.97.7c.3 4.3.6 8.59.92 12.89l7.99-.42c-.13-4.11-.45-8.53-.94-13.17z"/><path class="st17" d="M1151.35 1343.49s49.43-11.18 66.2.43c15.9 35.68 13.76 76.95 11.18 91.13-32.24 16.33-70.5 13.76-83.39 6.88 13.33-24.93 12.04-49.86 11.61-62.33-.44-12.47-5.6-36.11-5.6-36.11z"/><path d="M1079.79 1549.08c-33.63 37.84-111.42 55.71-178.69 53.61-67.27-2.11-126.14-63.07-161.87-100.91-35.72-37.82-33.64-39.95-39.94-122.86 2.73-28.52-8.79-70.23-9.44-72.55 9.52 32.56 53.58 72.42 53.58 72.42l24.18 37.85s7.35-22.08 16.82-47.31c122.98-59.91 276.44-37.84 276.44-37.84l31.54 45.2s2.1-6.3 13.66-47.3c23.13-21.02 33.64-62.02 33.64-62.02s11.56 95.66 18.92 121.94c7.36 26.27-36.79 108.26-78.84 159.77z" style="fill:#161616"/><path class="st13" d="M802.44 1395.12s142.29 6.59 246.76-31.96c16.35 21.55 20.81 19.57 20.81 19.57s-8.18 98.85-54.26 136.76c-20.07-19.32-24.53-52.77-24.53-52.77l15.61-15.61.74-24.53-17.84 26.76-91.42 12.64-29.73-20.07s8.18 26.76 29.73 32.7c-17.84 26.01-23.04 59.46-23.04 59.46s-59.46-40.88-82.5-119.67c5.96-27.5 9.67-23.28 9.67-23.28z"/><path class="st13" d="M695.48 1375.96s-47.28-33.53-61.04-88.55c-10.32-41.27-1.72-73.08-1.72-73.08l42.99-29.23s-12.04-46.43 18.91-77.38c49-48.14 129.82-98.87 129.82-98.87s52.44 26.65 127.24-7.74c4.3-10.32 3.44-12.9 3.44-12.9s124.66 42.99 147.01 78.23c17.19 30.95 25.79 63.62 25.79 63.62l36.97 3.44s44.71 107.47-18.05 192.58c-6.02-49-7.13-58.73-7.13-58.73s-11.65 42.1-33.64 62.02c-9.1 43.13-13.66 47.3-13.66 47.3l-31.54-45.2s-73.08-14.85-122.95-2.81l-4.3 6.02-18.91 4.3-7.74-4.3s-69.7 2.21-122.54 34.63c-10.71 30.71-16.82 47.31-16.82 47.31l-24.18-37.85s-42.79-38.08-51.39-66.45c.86 31.83 3.44 63.64 3.44 63.64z"/><path class="st19" d="M753.94 1234.83s-.63-38.52 24.63-49.26c25.26-10.74 44.84-6.32 44.84-6.32s25.26 10.74 22.74 43.58c-24 10.73-60.63 22.73-92.21 12zM961.72 1203.88s-6.32-26.52 13.89-46.1c25.26-15.16 68.21-17.68 79.57 36.63-41.04 19.57-78.3 13.26-93.46 9.47z"/><path d="M1268.16 739.76c51.67-14.68 63.41-1.76 63.41-1.76s-58.27 41.87-119.96 95.14c-38.75 33.44-78.84 71.38-106.7 106.27 0 0 35.23 88.09 35.23 190.85-8.22 2.35-14.09 3.52-14.09 3.52s-9.39-51.09-26.42-71.64c-17.03-20.55-106.29-66.94-142.11-72.81-4.11 17.03-11.74 17.03-11.74 17.03s-75.16 18.79-114.51 5.28c-2.93-2.94-4.11-4.7-4.11-4.7s-81.03 32.89-139.75 110.99c-13.51 27.59-11.16 65.18-9.99 71.63.42 2.31-9.42 4.02-22.25 5.26.37-.38.53-.56.53-.56s-22.9-113.33 7.63-191.43c-2.9-.81-16.21-5.32-35.68-12.03-49.58-17.09-139.18-48.45-199.05-69.45-35.55-12.46-60.63-21.28-60.63-21.28s.4-7.92 20.56-11.1c13.01-2.05 34.23-2.13 68.89 3.16 2.97.45 6.03.95 9.2 1.48-2.44-1.08-4.88-2.16-7.32-3.25-106.98-47.75-217-109.49-217-109.49s-22.9-30.54 83.97-15.86c-21.02-13.31-41.81-25.53-58.26-34.91-19.83-11.33-33.34-18.52-33.34-18.52s46.39-22.9 119.2 3.52c-81.62-64.01-123.9-128.6-123.9-128.6s66.36 18.21 127.43 56.37c-33.21-60.59-60.07-132.16-60.48-133.28 1.21.93 92.91 71.73 114.5 87.48-61.66-88.08-83.97-185.56-79.27-215.5 39.03 20.39 105.82 82.4 106.86 83.37-.17-1.15-11.08-72.95-2.34-91.01 32.3 28.78 73.4 71.64 73.4 71.64s-25.84-150.91-4.7-172.64c12.92-7.63 58.14 36.41 93.37 105.7 7.63-38.17 17.62-68.7 17.62-68.7s23.48 20.55 45.8 63.42c2.93-31.71-7.64-155.61 35.23-177.34 19.96-6.46 58.13 65.77 72.81 134.47 2.94-31.12 14.1-51.09 14.1-51.09l15.85 31.12s6.46-150.91 66.36-163.83c31.7-7.63 46.97 79.28 61.07 173.82 11.74-11.16 15.26-32.89 15.26-32.89l13.51 18.21s19.38-133.3 66.94-131.54c17.62 5.87 39.93 128.6 41.69 182.62 22.9-39.34 37-53.43 37-53.43s7.04 71.64 9.39 88.67c34.06-80.45 101-153.85 114.51-162.07 17.61 46.39-9.4 199.06-14.1 215.5 27.02-26.42 49.92-45.21 49.92-45.21s-1.18 76.33-9.99 109.22c60.59-67.59 128.13-111.47 129.18-112.15-.36 1.02-22.71 64.21-56.72 124.48-4.93 8.74-10.11 17.42-15.5 25.84 24.52-13.54 37.87-18.87 44.44-20.97 3.98-1.26 5.48-1.35 5.48-1.35s-.23.81-.65 2.26c-2.78 9.71-14 48.1-21.67 62.92 50.5-24.66 85.15-21.72 88.67-7.63-5.28 18.79-79.27 61.07-156.78 156.78z" style="fill:#587737"/><path class="st17" d="M828.09 931.49s76.31-25.76 117.33-7.63c20.99 41.97 6.68 79.18 6.68 79.18s-82.94 32.61-124.94 3.9c-21.01-44.92.93-75.45.93-75.45zM698.61 1406.04s-43.25-1.43-59.59 15.08c-4.46 57.57 5.81 81.35 12.84 90.53 35.66 4.86 57.28 3.24 84.29-15.67-33.5-24.32-37.54-89.94-37.54-89.94"/><path class="st26" d="M828.71 924.59s-17.87 25.7-1.55 82.34c-68.82 40.14-121.81 88.79-147 123.54-13.9 26.06-4.45 54.63-4.45 54.63l-20.01 9.16s-29.4-141.96 14.9-206.25c72.97-42.57 158.11-63.42 158.11-63.42z"/><path d="M819.82 936.93s-68.84 14.99-141.09 61.34c-23.17 61.34-24.54 163.58-10.91 188.11 10.22 0 9.34-1.28 9.34-1.28s-27.06-33.48 30.19-88c57.25-55.89 117.08-88.24 117.08-88.24s-10.75-52.17-4.61-71.93z" style="fill:#e83a4f"/><path class="st26" d="M897.33 913.3s38.83.27 48.08 10.56c10.12 32.88 12.1 65.47 12.1 65.47s104.64 32.27 142.11 72.81c25.31 33.59 26.42 71.64 26.42 71.64l12.79-.69s10.33-125-33.93-193.68c-62.49-25.24-149.36-42.61-207.57-26.11z"/><path class="st28" d="M986.67 914.45c2.01 0 48.23 59.62 16.75 95.12 67.66 25.45 95.12 50.24 102.49 57.61 6.7-31.48-5.36-113.88-22.11-131.29-44.21-18.09-97.13-21.44-97.13-21.44z"/><path class="st28" d="M1075.44 931.75s36.25 82.04 17.17 125.28c-37.52-28.62-71.86-44.52-71.86-44.52s19.71-57.87-.64-92.85c40.07 3.82 55.33 12.09 55.33 12.09z"/><path class="st25" d="m923.48 1151.94-23.37 2.44 20.76 162.36 9.92 7.11 14.61-22.4 19.48 2.92 7.79-21.43-16.56-11.2zM879.85 1433.19l24.79 18 76.41-12.23 24.45-27.17c.01.01-43.46 20.72-125.65 21.4z"/><path class="st25" d="M1098.87 1078.38c-12.49-17.14-81.64-57.15-131.21-67.06-35.57 21.58-97.97 36.74-148.12 13.41-51.9 28.58-105.71 88.73-105.71 88.73-23.33 27.41 6.41 27.99 6.41 27.99s40.39-47.91 93.46-46.74c53.07 1.17 62.4 39.07 62.4 39.07l40.24-3.5s12.83-59.48 85.14-60.65c72.31-1.17 92.24 30.75 92.24 30.75s23.9 82.71-24.61 112.01c-36.5 22.57-104.7 1.92-104.7 1.92l5.76 45.63 27.38 21.13-4.66 11.42s57.76 7.97 76.48 14.34c11.53 12.97 17.15 22.28 17.15 22.28l22.55-58.05a156.176 156.176 0 0 0 12.01-74.5c-3.49-41.31-10.47-102.07-22.21-118.18zM861.04 1232.96c-5.03 33.56-7.27 44.75-7.27 44.75s-48.11 30.21-82.79 37.48c-39.16-39.16-38.04-68.25-38.04-68.25s74.95 17.35 128.1-13.98z"/><path class="st16" d="M1136.58 1256.71s10.98-20.74 9.76-42.7c.61-31.11 8.54-48.8 8.54-48.8s12.2 21.35 13.42 39.65c1.22 19.52-7.32 76.87-22.57 95.78-2.44-31.73-9.15-43.93-9.15-43.93z"/><path class="st34" d="M818.34 1033.02s-115.05 80.41-99.59 99.59c42.06-45.15 128.66-77.32 160.83-9.28 26.6-2.47 32.17-3.71 32.17-3.71s16.08-51.34 69.28-58.76 107.01 21.65 107.01 21.65-56.29-50.72-120.62-63.09c-53.21 35.25-128.05 22.88-149.08 13.6zM975.5 1225.43s102.45 33.93 131.06-49.23c16.63 45.9-5.02 90.31-25.65 134.22l-7.98-11.31-70.48-11.79 1.67-6-28.61-27.28v-28.61z"/><path class="st35" d="M986.43 1237.77s83.93 23.1 118.29-39.43c1.69 45.63-28.17 80.55-28.17 80.55s-79.41 0-90.12-41.12zM818.74 1042.5s-58.68 39.86-57.58 49.27c35.99-22.7 90.79-20.48 112.94 4.98 29.34-3.88 43.18-4.43 43.18-4.43s19.93-53.15 117.37-35.43c-31-21.04-66.99-29.34-66.99-29.34s-74.18 47.61-148.92 14.95z"/><path class="st34" d="M744.05 1253.89c1.29.43 57.17 16.77 109.19-11.18-4.73 24.07-6.45 31.38-6.45 31.38s-49.44 23.21-74.8 26.65c-19.34-22.35-27.94-46.85-27.94-46.85z"/><path class="st35" d="M764.45 1261.76s39.54 9 83.78-11.74c-3.91 16.05-6.66 21.92-6.66 21.92l-57.94 18.4s-12.92-13.71-19.18-28.58z"/><path class="st34" d="m907.84 1161.02 10.66.63 27.59 112.89 15.68 11.92-1.88 10.66-18.81-5.02-15.06 13.17z"/><path class="st36" d="M952.1 1116.93c12.9-24.5 67.87-37.51 118.16-10.85 20.2 14.19 18.11 74.9-13.27 89.52-9.89-36.97-28.8-52.01-56.31-46-23.64 3.87-29.66 10.75-29.66 10.75s-16.87 26.45-9.3 43.53c-3.6.74-33.26-42.67-9.62-86.95z"/><path class="st37" d="M955.22 1178.15s-14.2-40.69-.46-66.46c14.49-16.35 52.45-28.2 95.8-11.89 19.38 7.29 33.25 36.53 27.59 56.45-3.29 11.57-9.62 22.07-16.15 28.6-6.87-26.62-22.58-42.79-53.92-42.36-31.34.42-48.14 9.04-52.86 35.66z"/><path class="st36" d="M723.68 1156.77s19.49-41.29 77.48-41.75c35.72 0 74.69 44.54 74.69 44.54l-2.32 59.38-22.73 3.25s9.74-32.94-26.44-51.96c-42.68-.93-83.04 8.35-76.08 66.34-18.11-4.64-33.88-45-24.6-79.8z"/><path class="st37" d="m855.9 1215.23 17.17-2.78 2.78-52.89s-31.08-41.75-75.62-42.68c-48.71 2.32-71.91 36.19-72.37 56.6-.46 20.41 7.89 41.29 14.85 47.32 2.32-34.79 24.12-52.42 54.28-53.82 30.14-1.39 57.52-.93 58.91 48.25z"/><path class="st34" d="M699.17 1108.31s-16.44 43.45-2.35 86.91c14.09 43.45 10.13 93.38 15.41 106.88 11.16 19.97 41.54 48.38 41.54 48.38l19.98 49.09-4.68 17.07-24.18-37.85s-42.79-36.18-50.42-72c-2.94-71.05-15.82-103.02-17.3-121.69s2.62-58.59 22-76.79z"/><path class="st35" d="m864.99 1319.25 26.3-12.35 23.45 19.32 16.05-2.37 14.61-22.4 19.48 2.92 6.9-18.39 6.65 2.85-4.75 27.25-22.5-4.43-16.8 25.03-19.67 2.31-25.32-16.57-21.87 7.29z"/><path class="st25" d="M1051.04 1370.4c.27-1.53 9.85 12.96 9.85 12.96s-9.33 76.71-44.06 122.85c-9.33-7.78-12.96-10.37-12.96-10.37l11.92-11.92 1.56-39.91c0-.01 23.33-14.52 33.69-73.61z"/><path class="st34" d="m1052.42 1376.9 5.05 6.43s-7.35 69.79-40.4 118.46c-5.97-5.51-7.35-7.81-7.35-7.81l7.81-7.81 2.75-40.4s28.47-26.17 32.14-68.87zM990.77 1419.05l-11.13 15.58-72.99 12.02-17.8-14.24c0-.01 44.51 5.78 101.92-13.36z"/><path class="st25" d="M805.33 1405.41s10.78 37.5 47.82 62.35c5.16 20.63 17.81 36.1 17.81 36.1l11.25 6.56-8.91 13.59s-44.53-27.19-71.25-104.54c1.87-8.43 3.28-14.06 3.28-14.06z"/><path class="st34" d="m806.27 1415.73-1.41 5.16s25.31 70.79 66.57 98.44c3.28-6.56 5.16-7.97 5.16-7.97l-10.78-5.16s-15-25.31-16.41-36.1c-18.29-13.12-34.7-35.62-43.13-54.37z"/><path class="st36" d="m858.14 1301-62.78 38.64-10.87 19.32 17.31-17.31 59.56-27.77zM978.54 1294.09l85.24 18.72 19.92 27.48-22.7-22.3-84.85-15.14z"/><path class="st37" d="m874.4 1188.02 13.56-35.87 39.36-5.68 4.81-10.5-73.92 9.18 17.06 12.69z"/><path class="st34" d="M680.41 1207.77s-.08.09-.24.25c-7.92 8.44-19.5 12.16-30.94 10.44-8.07-1.21-14.29 1.02-14.29 1.02s20.16-23.44 40.32-27.66l5.15 15.95z"/><path class="st36" d="M653.39 1245.39s-7.42 52.58 15.46 79.79c15.46 17.32 27.22 29.07 27.22 29.07l-8.66-42.68-12.99-54.43-21.03-11.75z"/><path class="st16" d="m655.33 1246.65-1.54 30.78 15.39 36.94 24.62 25.65-1.76-27.68-16.7-52.35z"/><path class="st34" d="M1166.6 1138.04s-15.93 4.78-21.51 17.53-18.32-3.98-18.32-3.98l1.15-21.5c0-.01 14.78-9.57 38.68 7.95z"/><path class="st38" d="m922.08 1352.48 17.09-1.77 7.07-13.55s57.16-11.2 103.12 1.18c-60.69 19.45-127.28 25.34-127.28 25.34v-11.2zM1137.46 1310.62s-4.68 13.26-21.07 24.97c-7.8 54.62-15.6 66.32-15.6 66.32l-25.75-35.89 5.46 22.63s-7.02 96.75-60.08 139.66c-28.87-16.39-39.01-60.12-39.01-60.12l-35.11 4.68 11.7 114.74 14.82-16.38 31.99 11.7s105.33-35.11 142-178.67c-.77-59.31-9.35-93.64-9.35-93.64z"/><path class="st16" d="m703.38 1103.71-15.98 14.22s-5.57 64.26 9.05 90.43c12.31 32.32 6.16 80.03 10.77 94.65 10.77 25.39 39.24 54.63 39.24 54.63l23.85 47.71 11.54-30.78-26.93-38.47s-33.86-34.63-33.86-90.8c-3.06-56.95-37.68-74.65-17.68-141.59z"/><path class="st59" d="m653.96 987.72-26.31 3.08c-79.02-27.23-259.68-90.73-259.68-90.73s.4-7.92 20.56-11.1c39.98.97 77.45 8.62 77.45 8.62l187.98 90.13zM227.04 583.04s184.8 206.41 439.84 405.26l22.69-11.89s-143.72-170.75-201-225.87-197.77-156.69-261.53-167.5zM747.21 946.67s-166.66-241.54-203.57-363.9c-35.86-123.41-59.07-283.74-44.3-303.78 14.77-20.04 72.78 42.19 91.77 85.44 18.99 43.25 84.38 223.61 100.2 272.13s117.08 285.85 117.08 285.85l-61.18 24.26zM862.18 905.53S805.22 568 798.89 486.78c-6.33-81.22 4.22-277.41 42.19-326.98 30.59-32.7 58.01-6.33 66.45 37.97s32.7 223.61 31.64 301.67c-1.05 78.05-32.7 401.87-32.7 401.87l-44.29 4.22zM967.66 908.69s53.79-201.46 69.62-259.48c15.82-58.01 55.9-205.68 69.62-251.04s114.97-165.6 114.97-165.6 17.93 37.97 5.27 140.29c-12.66 102.31-71.73 268.97-88.6 304.83s-111.81 239.44-111.81 239.44l-59.07-8.44zM1096.43 926.1s135.11-248.05 166.37-289.39c79.66-59.49 151.84-74.2 162.13-53.73-55.25 57.77-187.34 183.81-212.55 211.03-25.2 27.22-115.95 132.09-115.95 132.09z"/><path class="st60" d="M439.01 464.94s-6.18-71.62-2.36-86.89c35.61 27.98 73.42 67.52 73.42 67.52s28.33 127.08 42.32 165.24c-50.88-83.95-113.38-145.87-113.38-145.87zM603.26 379.33s4.57-61.21 13.1-69.4c31.42 26.15 47.95 59.22 47.95 59.22S679.57 553.57 719 687.12c-38.16-80.13-99.21-262.01-115.74-307.79zM770.2 330.48l8.58-50.36 21.37 30.39-8.65 99.34zM928.86 332.27l13.98-44.66 12.73 23.03-12.72 82.68zM1061.13 364.06l40.85-60.59 9.39 88.67-43.88 115.65c0-.01-2.54-103.03-6.36-143.73z"/><path class="st61" d="M1424.94 582.98c-1.93 6.86-13.01 16.84-30.08 31.43-28.28 24.14-72.98 60.88-119.69 116.83-2.33 2.79-4.67 5.63-7.01 8.52 5.05-1.44 9.72-2.61 14.03-3.55 39.82-8.73 49.38 1.79 49.38 1.79s-9.46 6.8-24.79 18.39c-22.71 17.2-58.33 44.94-95.17 76.75-80.33-64.28-213.57-134.53-395.39-108.43-173.33 24.87-288.39 101.54-356.92 165.65-18.38-8.2-36.85-16.82-54.84-25.46-86.7-41.68-162.16-84.03-162.16-84.03s-6.6-8.8 3.83-14.69c8.99-5.07 30.65-7.97 80.14-1.17-21.02-13.31-41.81-25.53-58.26-34.91 150.75-4.28 384.52-31.37 607.21-140.45 165.39-81.01 324.06-86.46 448.95-67.74 9.86 1.48 19.52 3.11 28.94 4.87 1.62.3 3.23.6 4.83.91-2.78 9.71-14 48.1-21.67 62.92 50.5-24.66 85.15-21.72 88.67-7.63z"/><path class="st60" d="M1209.94 451.82s46.28-46.96 51.76-51.46c.39 61.64-9.99 109.22-9.99 109.22L1142.53 665.5l67.41-213.68zM1308.67 547.75l3.3-1.48 46.62-20.84-22.32 65.18-86.9 54.54M457.42 892.13a561.471 561.471 0 0 0-28.82 29.22c-35.55-12.46-60.63-21.28-60.63-21.28s.4-7.92 20.56-11.1c13.01-2.05 34.23-2.13 68.89 3.16zM296.92 509.59c1.1 3.28 44.34 106.3 64.69 134.28 106.84 81.4 169.16 141.18 169.16 141.18L407.39 587.91l-110.47-78.32z"/><path d="M1331.57 738s-9.46 6.8-24.79 18.39c-7.25-6.68-15.42-13.46-24.59-20.18 39.82-8.73 49.38 1.79 49.38 1.79z" style="fill:#93944e"/><path class="st61" d="M1394.86 614.41c-28.28 24.14-72.98 60.88-119.69 116.83-76.59-52.79-217.66-98.23-468.02-43.71-196.6 73.44-314.78 133.13-402.69 177.37-86.7-41.68-162.16-84.03-162.16-84.03s-6.6-8.8 3.83-14.69c31.38 1.33 120.22 2.37 241.68-19.06l39.2 38.43-24.1-41.18c89.85-16.88 196.26-46.01 309.81-95.81 145.53-63.83 265.3-87.06 365.57-84.93l-30.14 97.85 67.3-95.85c27.95 2.44 54.3 6.89 79.2 12.97-7.96 15.39-19.85 36.3-37.27 62.96 16.63-13.3 55.12-33.82 84.85-48.86 18.37 6.43 35.88 13.73 52.63 21.71z"/><path d="M1178.62 1344.89s31.37 80.77-16.02 102.13c40.05-4.67 59.41-8.68 59.41-8.68s-7.34-70.09-18.69-96.13c-10.68.01-24.7 2.68-24.7 2.68z" style="fill:#ffd64f"/><path class="st48" d="M1200.65 1343.02s14.2 76.98 14.74 97.19c-14.74 2.73-30.03 7.1-30.03 7.1s19.11-68.79.55-105.92c13.1 1.08 14.74 1.63 14.74 1.63z"/><path class="st48" d="M1160.86 1347.81s41.2 3.01 50.24 7.03c8.04 29.64 15.57 74.86 15.57 74.86s-2.51-66.32-11.56-87.42c-12.55-1.5-54.25 5.53-54.25 5.53z"/><path class="st63" d="m1154.57 1355.18 19.51-.56s16.72 62.44-6.69 81.39c-9.48 0-15.61-3.9-15.61-3.9s9.48-21.74 2.79-76.93zM662.35 1413.85s8.36 10.03.84 16.72c21.32-5.44 35.96-2.93 35.96-2.93l-2.93-18.4c0 .01-19.65-2.5-33.87 4.61zM653.99 1447.72s15.47-6.27 22.16-6.27c1.25 20.07 1.25 30.94 1.25 30.94l-21.32 5.85s5.85-21.74-2.09-30.52z"/><path class="st63" d="M691.2 1442.7h9.62s7.53 25.92 15.47 32.61c10.87 10.03 12.13 12.96 12.13 12.96s-36.38 12.96-67.73 15.05c-6.69-5.02-4.6-8.78-4.6-8.78s31.78-7.53 36.79-15.05c-2.93-18.81-1.68-36.79-1.68-36.79z"/><path d="M949.07 939.66s-22.89-5.57-60 18.56c-37.11 24.12-68.66 1.86-68.66 1.86l6.19 36.49s27.22-4.95 68.66-19.17c41.44-14.23 58.14 0 58.14 0l-4.33-37.74z" style="fill:#ffc661"/><path d="M820.1 974.85s29.27 16.05 64.2-5.66c34.93-21.71 66.56-18.88 66.56-18.88l1.42 17.47s-36.82-10.38-68.44 6.14c-31.63 16.52-58.06 15.1-58.06 15.1l-5.68-14.17z" style="fill:#fff9f0"/><path class="st66" d="M649.46 1122.55c12.65-13.16 25.66-25.9 38.93-38.41 13.27-12.5 26.82-24.69 40.74-36.49 13.93-11.77 28.22-23.16 43.14-33.77 7.44-5.32 15.1-10.37 22.95-15.13 7.86-4.75 15.95-9.19 24.43-12.94 1.52-.67 3.29.01 3.96 1.53.67 1.52-.02 3.29-1.53 3.96l-.03.01h-.01c-8.2 3.52-16.13 7.78-23.89 12.35-7.75 4.6-15.35 9.49-22.75 14.67-14.85 10.33-29.16 21.49-43.13 33.05-13.96 11.58-27.59 23.59-40.93 35.91-13.33 12.32-26.46 24.91-39.16 37.85l-.02.02c-.73.74-1.92.75-2.66.03-.74-.72-.75-1.9-.04-2.64zM1131.63 1064.43c-12.7-10.02-26.12-19.3-39.78-28.07-13.69-8.75-27.74-16.94-42.16-24.39-7.2-3.75-14.51-7.27-21.89-10.61-7.38-3.36-14.88-6.43-22.44-9.31-7.55-2.91-15.25-5.41-22.98-7.75-7.75-2.29-15.59-4.18-23.48-5.81l-.05-.01a3.002 3.002 0 0 1-2.33-3.55 3.002 3.002 0 0 1 3.55-2.33c.01 0 .03.01.03.01 8.06 1.76 16.06 3.79 23.93 6.22 7.85 2.47 15.65 5.1 23.29 8.15 7.65 3.01 15.21 6.21 22.64 9.7 7.44 3.46 14.79 7.11 22.01 10.98 14.48 7.69 28.55 16.11 42.24 25.08 6.85 4.49 13.6 9.12 20.24 13.9 6.65 4.79 13.18 9.69 19.58 14.89.81.65.93 1.84.27 2.64-.65.8-1.82.93-2.62.29l-.05-.03zM814.54 950.89c-3.54.56-7.18 1.36-10.76 2.17-3.6.8-7.17 1.75-10.72 2.73-3.56.97-7.1 2.02-10.64 3.1-3.52 1.12-7.03 2.29-10.52 3.5-6.96 2.48-13.86 5.15-20.64 8.07-6.8 2.9-13.5 6.01-20.09 9.34-13.21 6.6-25.98 14.09-37.98 22.64a224.048 224.048 0 0 0-33.42 28.62l-.05.05a2.991 2.991 0 0 1-4.24.09 2.991 2.991 0 0 1-.09-4.24l.12-.12 4.13-3.85 2.07-1.92 2.12-1.86c1.42-1.23 2.82-2.49 4.25-3.7l4.36-3.56c5.88-4.66 11.88-9.17 18.1-13.34 3.07-2.14 6.26-4.1 9.41-6.13 3.21-1.92 6.38-3.91 9.65-5.73 6.46-3.76 13.06-7.27 19.76-10.58 13.37-6.67 27.21-12.32 41.21-17.5 3.5-1.3 7.01-2.55 10.55-3.76 3.53-1.23 7.06-2.43 10.62-3.56 7.15-2.25 14.24-4.42 21.62-6.34 1.61-.42 3.25.55 3.66 2.15s-.55 3.25-2.15 3.66l-.28.06-.05.01zM1116.01 973.38c-6.29-3.19-13-6.03-19.64-8.76-3.36-1.31-6.69-2.71-10.09-3.9-3.39-1.23-6.78-2.49-10.21-3.61-13.66-4.67-27.54-8.77-41.62-12.06-14.06-3.31-28.22-6.32-42.56-8.22-7.14-1.13-14.34-1.77-21.53-2.46-3.59-.4-7.2-.53-10.81-.7-3.61-.17-7.21-.36-10.81-.48h-.11a3.006 3.006 0 1 1 .19-6.01c.1 0 .21.01.31.03 7.25.98 14.5 1.65 21.72 2.67 7.21 1.04 14.44 1.91 21.62 3.18l5.39.87c1.8.29 3.6.54 5.38.9l10.73 2c3.59.6 7.14 1.43 10.7 2.16 3.56.77 7.13 1.45 10.66 2.35l10.62 2.56 10.55 2.83c3.53.9 7.01 1.98 10.51 2.97 3.51.97 6.98 2.09 10.46 3.18 6.96 2.16 13.84 4.59 20.72 7.02 6.88 2.52 13.63 5.12 20.46 8.12 1.52.67 2.21 2.44 1.54 3.95a2.994 2.994 0 0 1-3.95 1.54c-.05-.02-.1-.04-.14-.07l-.09-.06z"/><path class="st67" d="M805.13 930.73s-13.58 57.96 8.6 83.32c13.13-5.43 14.94-8.6 14.94-8.6s-18.11-41.66.91-84.22c-12.68 1.8-24.45 9.5-24.45 9.5zM896.87 908.14c1.86 0 49.81-4.19 65.64 1.86 28.86 52.14 12.57 86.59 12.57 86.59l-16.76-5.12s-3.72-58.66-13.97-69.83c-38.17-9.31-54.47-6.05-54.47-6.05l6.99-7.45z"/><path class="st71" d="M673.95 1187.86s-26.11 9.98-41.46 28.41c-9.98 60.66 6.14 115.95 65.27 165.09"/><path d="M1124.67 1126.12c1.04-.24 1.83-.38 2.72-.54.86-.15 1.73-.29 2.59-.41 1.73-.25 3.45-.44 5.19-.58 3.47-.27 6.98-.35 10.53-.15 3.55.23 7.15.75 10.75 1.64 3.6.99 7.19 2.43 10.58 4.49l1.44.84.74 1.59c7.37 15.73 12.86 32.42 15.8 49.57 3.02 17.14 3.21 34.7 1.14 51.84l-.92 6.41c-.33 2.13-.54 4.28-1.05 6.38l-1.33 6.32-.67 3.16c-.21 1.05-.44 2.11-.75 3.14l-3.47 12.41-4.21 12.15c-6.03 16.04-13.61 31.37-22.02 46.17l-4.99-2.8c7.81-14.81 14.76-30.05 20.13-45.8l3.71-11.9 2.97-12.08c.27-1 .45-2.02.63-3.04l.55-3.05 1.09-6.1c.43-2.02.56-4.09.81-6.14l.69-6.15c1.46-16.41.76-32.98-2.58-49.02-3.27-16.05-8.9-31.54-16.31-46.17l2.18 2.42c-2.16-1.28-4.59-2.3-7.23-3.03-2.68-.66-5.5-1.08-8.4-1.27-2.91-.16-5.88-.1-8.85.14-1.49.11-2.98.28-4.45.5-.74.1-1.47.22-2.2.35-.7.13-1.49.28-2.04.4l-2.77-11.69z"/><path class="st69" d="M654.61 1291.37c-1.84-4.46-3.04-9.08-4-13.73-.93-4.66-1.57-9.37-2.1-14.11-.51-4.74-.86-9.52-.82-14.37v-1.81l.08-1.83c.08-1.22.09-2.43.26-3.66.15-1.23.26-2.46.45-3.69.22-1.25.5-2.48.76-3.72a3.397 3.397 0 0 1 5.35-2.1l.11.08c2.44 1.82 4.83 3.7 7 5.8 2.19 2.08 4.25 4.28 6.17 6.58a81.45 81.45 0 0 1 5.4 7.17c.83 1.24 1.64 2.5 2.42 3.79.78 1.31 1.5 2.55 2.26 4.02.09.18.17.38.23.57l8.47 29.79 4.23 14.89 4.15 14.92-5.19 1.54-4.66-14.77-4.57-14.79-9.14-29.59.23.57c-.57-1.08-1.3-2.33-2.01-3.48-.72-1.17-1.48-2.32-2.27-3.46-1.56-2.28-3.27-4.46-5.03-6.57a72.765 72.765 0 0 0-5.61-6.02c-1.94-1.94-4.05-3.64-6.19-5.3l5.46-2.01c-.92 4.19-1.3 8.73-1.56 13.27-.26 4.56-.28 9.19-.23 13.83.03 2.32.08 4.65.15 6.98l.27 7.01c.14 4.68.21 9.39-.07 14.2zM1138.71 1262.01c-3.23-1.08-.89-.31-1.61-.56v-.02l.01-.03.02-.07.04-.13.07-.27.14-.53.28-1.06.5-2.15c.3-1.45.61-2.89.88-4.35.54-2.91.98-5.86 1.37-8.81a438.7 438.7 0 0 0 1.83-17.82c.47-5.96.83-11.94 1.09-17.93.27-5.98.53-11.99.63-17.93 0-.27.04-.53.11-.78l.02-.06 8.22-28.97.01-.03c.52-1.85 2.45-2.92 4.3-2.4 1.06.3 1.88 1.08 2.27 2.03 1.76 4.28 3.14 8.44 4.33 12.75 1.18 4.29 2.08 8.65 2.84 13.03.72 4.38 1.33 8.78 1.63 13.2.32 4.42.24 8.87-.27 13.29-1.23-4.29-2.16-8.54-3.25-12.75-1.01-4.22-2.09-8.4-3.35-12.53-1.19-4.14-2.58-8.22-3.97-12.28-1.38-4.03-2.83-8.16-4.39-11.96l6.58-.4-8.57 28.86.13-.84c-.26 6.09-.61 12.11-1.09 18.15-.5 6.03-1.1 12.06-1.81 18.08-.72 6.02-1.56 12.03-2.72 18.01-.58 2.99-1.21 5.97-1.95 8.94a85.64 85.64 0 0 1-1.21 4.44l-.7 2.2-.39 1.1-.19.55-.1.27-.05.14-.02.07-.01.03-.01.02c-.74-.21 1.6.57-1.64-.5z"/><path class="st76" d="M692.68 1311.86s16.45 46.63 49.96 65.77c22.02 35.42 25.85 41.16 25.85 41.16l17.23-49.78s50.73-28.72 119.66-34.46M939.81 1330.81s73.28-12.52 121.38 1.84c21.54 30.87 30.15 44.51 30.15 44.51s12.21-35.9 15.08-48.1c20.82-16.51 32.31-59.59 32.31-59.59"/><path class="st76" d="M804.39 1392.76s129.04 15.04 242.75-30.89c17.65 20.6 22.8 19.47 22.8 19.47s-7.36 92.68-52.96 138.29c-22.8-17.65-26.48-54.01-26.48-54.01l15.45-15.45 2.21-20.6-16.92 22.8-91.95 14.71-30.89-19.86s8.09 18.39 13.24 22.8c7.36 5.15 13.98 8.09 13.98 8.09s-14.71 54.75-20.6 59.9c-32.37-12.51-82.39-118.43-82.39-118.43s4.4-14.31 11.76-26.82z"/><path class="st69" d="m935.48 1134.47-7.8 19.7.22-2.38 31.33 119.49-1.43-2.01 22.84 15.4 1.92 1.29-.44 2.27-5.31 27.62-.63 3.27-3.29-.46-22.84-3.19 3.4-1.52-15.93 23.9-.9 1.34-1.6.19-22.31 2.66-1.49.18-1.15-.95-21.24-17.53 3.36.61-23.37 7.97-3.2 1.09-1.2-3.16-10.09-26.55-.7-1.83 1.2-1.55 14.34-18.59-.73 2.05 3.19-124.81 1.11 2.65-14.59-16.31c-.56-.63-.51-1.6.12-2.17.56-.5 1.39-.52 1.97-.07l17.28 13.43 1.16.9-.04 1.75-3.19 124.81-.03 1.14-.7.91-14.34 18.59.5-3.38 10.09 26.55-4.4-2.07 23.37-7.97 1.85-.63 1.51 1.24 21.24 17.53-2.64-.78 22.31-2.66-2.5 1.53 15.93-23.9 1.22-1.83 2.18.3 22.84 3.19-3.92 2.81 5.31-27.62 1.48 3.56-22.84-15.4-1.09-.74-.33-1.28-31.33-119.49-.35-1.35.57-1.04 10.25-18.54a2.14 2.14 0 0 1 2.92-.84c.93.54 1.33 1.69.93 2.68z"/><path d="M723.95 1155.25c1.02-3.03 2.44-5.79 4.01-8.44 1.58-2.64 3.33-5.17 5.23-7.57 1.89-2.41 3.95-4.67 6.1-6.84 2.17-2.15 4.46-4.19 6.81-6.16 4.69-3.97 9.68-7.66 14.98-11 5.29-3.34 10.92-6.33 16.92-8.69 5.98-2.38 12.32-4.18 18.9-5.2 6.59-.97 13.43-.98 20.17-.06 1.68.29 3.37.49 5.03.88 1.65.41 3.3.84 4.94 1.29.83.2 1.62.51 2.42.8l2.39.88 2.38.89c.77.33 1.53.71 2.29 1.07 1.52.72 3.04 1.45 4.53 2.23l4.28 2.59c.7.45 1.44.84 2.11 1.33l1.98 1.48c1.32.99 2.64 1.97 3.93 2.98 4.26 3.31 5.03 9.45 1.71 13.71-3.25 4.18-9.21 4.99-13.46 1.91l-.4-.3c-8.4-6.12-17.4-10.83-27.18-12.48-.61-.1-1.21-.29-1.83-.34l-1.85-.2c-1.23-.13-2.47-.33-3.72-.3-1.25-.02-2.5-.13-3.77-.09l-3.8.18c-5.08.43-10.22 1.46-15.32 2.98-1.27.42-2.55.78-3.82 1.23l-3.8 1.41-3.76 1.6c-1.26.52-2.48 1.17-3.73 1.74-4.95 2.41-9.8 5.19-14.53 8.24-9.38 6.27-18.53 12.93-29.4 18.9l-.01.01c-.26.14-.58.05-.73-.21a.767.767 0 0 1 0-.45zM1074.11 1112.06c-6.08-1.47-11.62-3.37-17.1-5.24l-8.08-2.92c-2.67-.98-5.29-2.01-7.96-2.92-5.33-1.81-10.71-3.34-16.1-4.49-1.35-.25-2.69-.58-4.04-.79l-4.04-.65-4.03-.45c-1.34-.13-2.67-.18-4.01-.28-5.33-.24-10.58-.01-15.64.8l-3.75.74c-1.24.26-2.44.68-3.66.99-1.23.28-2.39.77-3.57 1.2l-1.76.64c-.59.2-1.13.53-1.7.77-9.18 3.98-16.88 10.76-23.64 18.79l-.3.35c-3.23 3.83-8.95 4.32-12.78 1.09-3.72-3.13-4.27-8.62-1.36-12.45.99-1.3 2-2.58 3.02-3.86l1.53-1.92c.52-.64 1.13-1.21 1.69-1.81l3.46-3.57c1.23-1.13 2.51-2.21 3.79-3.28.64-.53 1.27-1.08 1.93-1.6l2.07-1.45 2.07-1.44c.69-.48 1.37-.98 2.12-1.37 1.47-.84 2.94-1.67 4.43-2.48 1.5-.78 3.08-1.41 4.62-2.1 6.25-2.58 12.83-4.29 19.43-5.01 6.6-.67 13.16-.53 19.54.27 6.39.77 12.57 2.24 18.53 4.14 5.96 1.9 11.72 4.21 17.25 6.87 2.77 1.33 5.51 2.69 8.14 4.25 2.63 1.57 5.19 3.24 7.61 5.1 2.44 1.85 4.75 3.87 6.94 6.04 2.17 2.19 4.23 4.52 5.95 7.22a.534.534 0 0 1-.57.81l-.03.01zM846.42 1219.76c-.92-4.17-1.92-8.18-3.12-12.05-.61-1.93-1.25-3.84-2.03-5.68-.78-1.84-1.69-3.62-2.67-5.33-1-1.71-2.14-3.31-3.34-4.86a43.866 43.866 0 0 0-3.98-4.3c-2.86-2.67-6.11-4.91-9.6-6.86l.92.26c-8.63-.88-17.33-.98-25.75.31-8.4 1.28-16.55 4.12-23.11 9.1-6.57 4.95-11.22 12.09-13.53 20.08-2.37 7.99-2.69 16.62-1.92 25.13l-1.96-2.68c5.59 2.56 12 3.76 18.46 4.25 6.48.48 13.08.25 19.64-.45 6.56-.71 13.11-1.85 19.55-3.45 3.22-.8 6.42-1.7 9.56-2.77 3.13-1.08 6.25-2.26 9.12-3.86l.01-.01c.24-.13.55-.05.68.19.13.23.05.52-.16.66-2.86 1.86-5.94 3.27-9.05 4.58-3.11 1.3-6.29 2.43-9.5 3.47-6.42 2.06-13 3.68-19.67 4.86-6.68 1.18-13.47 1.89-20.36 1.84-6.87-.07-13.91-.82-20.72-3.39l-1.74-.65-.23-2.03c-.75-9.08-.38-18.48 2.37-27.49 1.37-4.49 3.36-8.85 6.04-12.79 2.66-3.95 6.03-7.43 9.82-10.28 7.65-5.71 16.8-8.72 25.86-10.04 9.1-1.32 18.25-1.12 27.22-.14l.35.02.56.24c4.13 1.78 8.03 4.28 11.38 7.39 1.68 1.55 3.18 3.29 4.59 5.09 1.37 1.83 2.56 3.78 3.62 5.78 1.07 2 1.89 4.11 2.62 6.23.71 2.13 1.3 4.29 1.65 6.49.68 4.39.71 8.89-.53 13.2a.51.51 0 0 1-.63.35.498.498 0 0 1-.36-.38l-.06-.03zM962.07 1203.76c-2.38-3.81-3.59-8.13-4.14-12.55-.27-2.21-.3-4.45-.19-6.69.11-2.24.33-4.5.8-6.71.47-2.22 1.08-4.42 1.89-6.55.86-2.11 1.82-4.2 3.01-6.15 2.36-3.92 5.42-7.39 8.91-10.24l.48-.39.33-.11c8.35-3.41 17.09-6.12 26.2-7.35 9.07-1.22 18.7-.85 27.62 2.54 4.43 1.7 8.63 4.12 12.27 7.19 3.66 3.05 6.78 6.69 9.33 10.64 5.12 7.91 8.06 16.84 9.84 25.78l.34 2.01-1.49 1.11c-5.84 4.34-12.4 7-18.99 8.95-6.61 1.93-13.34 3.12-20.08 3.83-6.74.7-13.51.95-20.25.74-3.37-.11-6.74-.33-10.09-.72-3.35-.41-6.7-.91-9.96-1.91a.5.5 0 0 1-.33-.62c.08-.25.34-.4.59-.34h.01c3.2.75 6.52 1.03 9.83 1.2 3.31.16 6.63.15 9.95.04 6.63-.24 13.24-.93 19.74-2.06 6.5-1.12 12.91-2.72 19.01-4.96 6.07-2.24 11.91-5.16 16.57-9.16l-1.15 3.12c-1.6-8.39-4.28-16.61-8.76-23.63-4.42-7.04-10.85-12.63-18.53-15.58-7.68-2.99-16.29-3.47-24.72-2.4-8.46 1.07-16.8 3.57-24.85 6.78l.81-.5c-2.82 2.83-5.32 5.88-7.34 9.23-.99 1.69-1.89 3.43-2.65 5.23-.73 1.82-1.38 3.68-1.87 5.59-.48 1.92-.87 3.87-1.11 5.86-.25 1.99-.34 4-.39 6.02-.09 4.05.05 8.18.31 12.44v.04c.02.28-.2.52-.48.54a.58.58 0 0 1-.47-.26z"/><circle cx="790.35" cy="1208.21" r="20.5"/><circle class="st78" cx="778.96" cy="1200.47" r="8.66"/><circle cx="994.01" cy="1178.41" r="20.5"/><circle class="st78" cx="982.61" cy="1170.66" r="8.66"/><path class="st71" d="M698.61 1406.04s-25.13-4.31-59.59 15.08c-7.18 53.85 12.21 94.06 12.21 94.06s42.7 7.84 84.04-17.09"/><path class="st79" d="M638.6 1448.93s14.46-15.32 66.79-14.46"/><path class="st79" d="M684.88 1436.65v39.37s-11.48 7.87-39.37 12.79"/><path class="st71" d="M1151.38 1345.24s27.21-10.95 65.63-1.62c21.49 49.89 13.71 93.85 13.71 93.85s-38.99 19.1-85.53 6.3"/><path class="st79" d="M1224.95 1370.28s-18.07-10.83-68.22 4.16"/><path class="st79" d="m1177.07 1370.99 10.66 37.9s13.18 4.47 41.36 1.66"/><path class="st71" d="M659.33 1193.94s-29.78-77.81 7.68-204.61c62.27-37.91 129.17-64.46 206.79-79.8 77.62-15.34 209.38 20.76 231.04 30.69 32.49 57.76 34.3 167.87 31.59 192.24"/><path d="M955.38 985.21c16.71 4.71 32.97 10.61 48.79 17.46 7.94 3.35 15.73 7.04 23.47 10.79 7.71 3.82 15.35 7.79 22.9 11.91 7.54 4.14 15.01 8.41 22.35 12.89 3.67 2.25 7.34 4.5 10.95 6.84l2.72 1.76c.91.63 1.84 1.24 2.73 1.9 1.79 1.31 3.53 2.69 5.2 4.15a74.09 74.09 0 0 1 16.47 20.74 73.29 73.29 0 0 1 5.18 12.25c1.3 4.09 2.58 8.19 3.82 12.3 2.48 8.23 4.86 16.48 6.92 24.88.51 2.11 1 4.21 1.43 6.38.12.55.2 1.05.3 1.58l.29 1.71c.15 1.13.28 2.24.38 3.32.4 4.33.7 8.59 1.01 12.87 1.19 17.09 2.41 34.14 3.9 51.17.74 8.52 1.53 17.03 2.39 25.53.81 8.53 1.84 16.92 3.05 25.38 2.4 16.89 5.3 33.76 8.07 50.66 2.78 16.9 5.5 33.83 7.93 50.81l1.76 12.75 1.63 12.77.76 6.39.38 3.2c.13 1.09.23 2.21.31 3.32.32 4.45.24 8.93-.26 13.37-.25 2.22-.6 4.43-1.07 6.62l-.37 1.64-.41 1.58-.83 3.16c-.28 1.05-.54 2.11-.84 3.16l-.97 3.11c-.66 2.07-1.25 4.17-2.01 6.2-2.77 8.24-6.19 16.21-9.78 24.07-7.27 15.7-15.8 30.72-24.94 45.32-4.58 7.29-9.36 14.45-14.24 21.54-2.47 3.52-4.93 7.05-7.46 10.53l-1.89 2.62c-.64.87-1.32 1.74-1.98 2.6-1.34 1.72-2.62 3.5-4.06 5.14-11.06 13.53-24.43 25.15-39.25 34.43-7.41 4.64-15.19 8.68-23.25 12.09-8.05 3.41-16.41 6.1-24.9 8.16-8.46 2.03-16.91 3.65-25.46 5.04a370.38 370.38 0 0 1-25.77 3.09c-8.64.66-17.3.99-25.97.96-2.17-.03-4.34-.1-6.5-.15l-3.25-.09-3.25-.2c-2.17-.14-4.33-.24-6.5-.42l-6.49-.63c-2.17-.18-4.32-.51-6.47-.8-2.15-.32-4.31-.54-6.45-.94-4.28-.77-8.58-1.47-12.81-2.49l-3.19-.71-1.59-.36-1.58-.43-6.31-1.71c-2.08-.53-4.28-1.26-6.39-2.03-1.06-.39-2.11-.81-3.16-1.26-1.03-.45-1.98-.91-2.97-1.36-15.81-7.07-31.08-15.48-45.4-25.3-14.33-9.8-27.72-20.98-40.06-33.15-12.31-12.21-23.62-25.3-34.41-38.71-2.7-3.35-5.34-6.74-8.01-10.11l-3.94-5.09-1.97-2.54c-.65-.86-1.36-1.79-2.01-2.7a74.083 74.083 0 0 1-11.39-24.53c-.57-2.18-1.02-4.46-1.38-6.63-.33-2.14-.7-4.28-1-6.42-.63-4.28-1.18-8.56-1.71-12.83-1.03-8.55-1.9-17.1-2.71-25.65-1.6-17.1-2.9-34.2-4.09-51.3l-1.7-25.66c-.53-8.59-.92-17.17-1.31-25.71-.8-17.08-1.76-34.05-4.03-50.8a333.46 333.46 0 0 0-4.39-24.94l-1.41-6.17-1.56-6.13-.8-3.1c-.29-1.1-.55-2.21-.79-3.33-.47-2.21-.85-4.52-1.11-6.69-.53-4.24-1.09-8.55-1.4-12.95-.35-4.39-.39-8.83-.31-13.2.07-4.38.37-8.72.69-13.03.36-4.5 1.1-8.96 2.23-13.31.29-1.09.57-2.17.92-3.24.33-1.07.67-2.14 1.07-3.19l.56-1.58c.1-.56.38-1.06.56-1.59.39-1.05.84-2.08 1.3-3.1 1.83-4.1 4.02-8.03 6.56-11.73l1.97-2.73c.7-.88 1.37-1.77 2.09-2.63.73-.84 1.46-1.73 2.19-2.52l2.17-2.39c2.88-3.2 5.84-6.33 8.79-9.46 5.92-6.25 12.04-12.31 18.23-18.3 6.26-5.92 12.57-11.78 19.11-17.39 26.03-22.53 54.38-42.67 85.39-57.97l2.51 5.07c-30.37 15.22-58.2 35.24-83.76 57.65-6.42 5.58-12.62 11.41-18.77 17.29-6.08 5.96-12.09 11.98-17.9 18.2-2.9 3.11-5.8 6.22-8.63 9.4l-2.13 2.38c-.71.79-1.33 1.56-2 2.34-.65.79-1.25 1.61-1.89 2.41l-1.77 2.49a67.35 67.35 0 0 0-5.88 10.69c-.41.93-.81 1.87-1.16 2.82-.2.47-.31.97-.6 1.41-.17.48-.31.97-.47 1.45-.32.97-.59 1.95-.85 2.93-.28.98-.49 1.97-.71 2.97-.86 3.97-1.37 8.02-1.48 12.07-.12 4.23-.15 8.45-.08 12.63.07 4.18.33 8.32.73 12.45.4 4.13.96 8.31 1.51 12.57.26 2.08.56 4 .98 5.98.21.98.44 1.95.69 2.92l.8 3.11 1.59 6.31 1.43 6.35c1.81 8.49 3.3 17.05 4.46 25.64 2.29 17.19 3.22 34.46 3.98 51.57.38 8.56.75 17.09 1.25 25.59l1.64 25.59c1.15 17.06 2.4 34.11 3.95 51.11.78 8.5 1.63 16.98 2.63 25.43.51 4.22 1.05 8.43 1.65 12.63.29 2.1.65 4.18.96 6.26.33 2.05.71 3.98 1.22 5.94 1.97 7.8 5.42 15.24 10.07 21.82.59.84 1.17 1.61 1.81 2.45l1.96 2.53 3.91 5.07c2.63 3.35 5.25 6.72 7.91 10.04 10.65 13.29 21.7 26.18 33.67 38.14 11.99 11.92 24.95 22.82 38.84 32.41 13.88 9.59 28.69 17.84 44.11 24.8l2.86 1.33c.92.4 1.85.78 2.8 1.13 1.91.71 3.78 1.34 5.84 1.88l6.08 1.67 1.52.42 1.54.35 3.08.7c4.08 1.01 8.24 1.7 12.38 2.46 2.07.39 4.17.61 6.25.93 2.09.29 4.17.62 6.27.8l6.29.64c2.1.18 4.21.28 6.31.43l3.16.21 3.16.1c2.11.06 4.22.14 6.33.18 8.45.06 16.9-.22 25.34-.83 8.44-.68 16.85-1.65 25.23-2.93 8.35-1.33 16.74-2.9 24.93-4.84 8.14-1.94 16.15-4.49 23.88-7.73 7.73-3.23 15.2-7.08 22.32-11.49 14.23-8.83 27.1-19.92 37.76-32.86 5.3-6.42 10.22-13.45 15.14-20.4 4.85-7 9.61-14.06 14.16-21.25 9.08-14.38 17.55-29.16 24.73-44.52 3.55-7.69 6.92-15.47 9.63-23.45.75-1.97 1.32-4 1.97-6l.95-3.01c.3-1.01.55-2.03.82-3.04l.81-3.04.41-1.52.34-1.49c.43-2 .76-4.02 1-6.05.47-4.06.56-8.18.29-12.27-.07-1.03-.16-2.04-.28-3.07l-.37-3.18-.74-6.36-1.59-12.71-1.73-12.7c-2.38-16.92-5.06-33.81-7.8-50.7-2.73-16.9-5.59-33.78-7.98-50.8-1.2-8.49-2.24-17.1-3.02-25.61-.85-8.53-1.62-17.07-2.34-25.61-1.46-17.08-2.64-34.19-3.79-51.26-.3-4.26-.58-8.54-.97-12.74-.09-1.05-.21-2.07-.34-3.06-.14-.87-.33-2-.54-3.03-.4-2.04-.87-4.1-1.37-6.15-2-8.23-4.35-16.44-6.79-24.61-1.23-4.09-2.49-8.16-3.77-12.23a67.992 67.992 0 0 0-4.78-11.38 67.683 67.683 0 0 0-15.29-19.26 71.462 71.462 0 0 0-4.83-3.85c-.83-.61-1.7-1.17-2.54-1.76l-2.68-1.72c-3.57-2.31-7.21-4.53-10.84-6.75-7.3-4.39-14.73-8.56-22.22-12.61-15.02-8.05-30.42-15.37-46.15-21.83-3.91-1.66-7.9-3.14-11.86-4.68l-6-2.15c-2-.72-4-1.43-6.02-2.07-8.03-2.75-16.19-5.01-24.38-7.06l1.84-7.24z"/><path d="M825.07 930.43s-20.05 39.91 6.81 81.51c53.89 20.23 113.8-5.36 119.56-11.76 9.1-26.41-.93-70.72-6.14-75.71-16.34-8.07-82.39-9.2-120.23 5.96z" style="fill:none;stroke:#000;stroke-width:12.7093;stroke-miterlimit:10"/><path d="M941.31 929.11c-7.23.39-14.7 1.17-22 2.17-7.33 1.01-14.62 2.3-21.81 3.91-7.19 1.62-14.28 3.57-21.15 6.01-6.86 2.44-13.5 5.39-19.55 9.08l2.14-3.91.2 5.15c.14 1.71.23 3.42.42 5.12.21 1.69.35 3.4.65 5.08l.4 2.52.49 2.49c.69 3.31 1.54 6.58 2.63 9.72.56 1.56 1.14 3.11 1.81 4.58.33.75.68 1.46 1.04 2.16.19.33.37.69.55 1 .17.3.42.69.48.79l-3.81-1.9c3.81-.13 7.71-.34 11.55-.59 3.86-.26 7.71-.56 11.53-.95 3.82-.39 7.63-.84 11.36-1.46 1.86-.31 3.71-.64 5.48-1.05 1.77-.41 3.51-.88 4.98-1.45l-2.81 3.52c.4-2.31.76-4.63.95-6.96.24-2.34.29-4.69.29-7.04-.02-2.35-.18-4.7-.45-7.02a56.51 56.51 0 0 0-.51-3.46c-.1-.57-.21-1.14-.34-1.69-.11-.54-.27-1.15-.38-1.54l2.81 2.31c-.28-.06-.79-.14-1.23-.19-.45-.06-.91-.09-1.38-.13-.93-.06-1.87-.11-2.82-.11-1.89 0-3.81.09-5.71.34s-3.8.57-5.67 1.06c-1.88.45-3.71 1.08-5.53 1.76l-.08.03a2.178 2.178 0 0 1-1.73-3.99c1.9-.95 3.83-1.86 5.85-2.58 2-.77 4.06-1.36 6.15-1.86 2.09-.51 4.23-.85 6.39-1.08 1.08-.12 2.17-.19 3.27-.23.55-.01 1.1-.03 1.67-.02.58.01 1.08.02 1.81.08l2.04.18.76 2.14c.28.79.46 1.37.66 2.04.19.65.36 1.29.53 1.93.32 1.29.61 2.57.84 3.87.48 2.58.82 5.19 1.03 7.8.18 2.61.3 5.24.21 7.86-.04 2.63-.26 5.24-.54 7.86v2.44l-2.81 1.08c-2.18.83-4.23 1.37-6.26 1.84-2.03.47-4.03.83-6.03 1.16-3.99.65-7.95 1.13-11.91 1.53-3.95.4-7.9.71-11.84.98-3.95.26-7.87.47-11.87.61l-2.46.09-1.35-1.98c-.44-.64-.64-1-.92-1.48-.27-.45-.49-.89-.73-1.33-.45-.88-.89-1.76-1.28-2.64-.81-1.76-1.48-3.54-2.11-5.33-1.24-3.58-2.18-7.21-2.94-10.86l-.54-2.74-.43-2.75c-.32-1.83-.48-3.67-.7-5.5-.2-1.84-.3-3.67-.45-5.51l-.21-5.51-.1-2.55 2.24-1.36c6.79-4.14 13.96-7.3 21.25-9.9 7.3-2.59 14.72-4.63 22.19-6.31 7.47-1.67 15-3 22.55-4.05 7.58-1.03 15.07-1.83 22.85-2.25a4.496 4.496 0 1 1 .48 8.98l-.09-.01zM659.49 995.99l-77.45-39.83-77.62-39.52-38.89-19.6c-12.97-6.51-25.95-13.01-38.96-19.44-26-12.92-52-25.81-78.11-38.49-13.03-6.38-26.15-12.58-39.21-18.88l-19.68-9.28c-6.57-3.07-13.11-6.21-19.71-9.21l-19.77-9.05-4.94-2.26-1.24-.57-.71-.33c-.33-.16-.66-.32-.98-.5-1.29-.72-2.49-1.67-3.52-2.75-2.06-2.19-3.35-4.91-3.88-7.66-.53-2.76-.38-5.59.51-8.3.88-2.7 2.6-5.31 5.04-7.16a14.68 14.68 0 0 1 3.96-2.15c.97-.32 1.88-.64 2.83-.91 3.75-1.13 7.54-1.99 11.31-2.61 7.56-1.26 15.11-1.75 22.6-1.8 7.49-.04 14.93.36 22.3 1.1 7.38.73 14.7 1.75 21.96 3 14.54 2.47 28.83 5.93 42.95 9.92 28.2 8.08 55.59 18.57 82.03 30.96l-2.58 5.85c-26.74-10.97-54.1-20.37-81.97-27.56-13.92-3.62-28-6.57-42.13-8.78-14.13-2.18-28.38-3.5-42.46-3.33-7.03.11-14.02.65-20.77 1.84-3.38.59-6.69 1.38-9.88 2.38-.8.23-1.6.53-2.35.78-.32.12-.58.27-.81.45-.45.35-.84.89-1.09 1.64-.24.74-.29 1.65-.13 2.45.16.81.52 1.48.96 1.94.22.23.46.43.76.59l.23.11.06.03.16.07.31.14 1.24.56 4.97 2.25 19.89 8.99c6.64 2.98 13.21 6.1 19.81 9.14l19.78 9.21c13.13 6.25 26.31 12.4 39.39 18.73 13.09 6.32 26.21 12.59 39.26 19l19.59 9.57c6.53 3.18 13.02 6.46 19.53 9.68 13.02 6.45 26.02 12.96 39 19.5L510 905.55l38.85 19.78 38.73 20.01c25.8 13.39 51.56 26.82 77.23 40.49l-5.32 10.16z"/><path d="m659.61 1003.96-100.57-33.19-100.64-32.94-50.37-16.29-25.21-8.04-12.61-4-.79-.25-.53-.18-.74-.28c-.99-.42-1.94-.98-2.81-1.66-1.73-1.39-3-3.24-3.69-5.15-.72-1.92-.93-3.89-.75-5.85.2-1.95.82-3.92 2.02-5.72 1.16-1.8 3.02-3.36 5.08-4.21.51-.21 1.04-.39 1.56-.52l.78-.18.44-.07 1.76-.28c2.35-.36 4.66-.61 6.96-.81 4.6-.39 9.14-.54 13.65-.58 4.52-.05 9.01.04 13.48.2 4.48.16 8.94.37 13.38.71 8.9.64 17.75 1.49 26.58 2.49 4.41.52 8.82 1.09 13.22 1.69 4.41.6 8.78 1.24 13.21 1.97l-1.23 8.77c-8.67-.91-17.45-1.77-26.18-2.44-8.74-.74-17.49-1.34-26.22-1.72-8.73-.37-17.44-.67-26.07-.46-4.31.1-8.59.31-12.79.72-2.1.21-4.17.46-6.18.8l-1.5.26-.38.07c-.01.01-.02.01-.03.01h-.01c.03 0 .11-.09.07-.04-.03.04-.11.23-.13.47-.02.24.01.52.08.66.06.16.11.17.1.17.11.02-.39-.11 1.11.35l12.65 3.95 25.28 7.95 50.49 16.1c33.64 10.77 67.18 21.85 100.73 32.91 16.77 5.53 33.52 11.12 50.26 16.76l50.21 16.93-3.67 10.92z"/><path class="st81" d="M666.51 987.98S310.91 693.1 223.78 582.69c91.01 22.12 236.37 98.38 461.96 394.79"/><path d="M741.19 951.1c-15.99-25.05-31.68-50.2-47.28-75.45-15.59-25.25-31.02-50.59-46.25-76.06-30.51-50.91-60.26-102.3-88.68-154.48l-10.5-19.66-5.24-9.83c-1.73-3.24-3.43-6.48-5.22-9.69-3.53-6.43-7.2-12.79-10.98-19.08-3.77-6.3-7.68-12.51-11.7-18.66-16.05-24.6-33.89-48.04-53.16-70.24-19.3-22.17-40.01-43.14-62.08-62.51-11.05-9.66-22.42-18.96-34.21-27.58-5.89-4.31-11.9-8.45-18.02-12.26-3.06-1.9-6.15-3.71-9.24-5.3-1.54-.79-3.09-1.54-4.55-2.12-.73-.29-1.43-.54-2.01-.71-.17-.06-.26-.06-.38-.09-.09-.01-.27-.08-.28-.06-.02.01-.04 0-.07-.02.14.02.35.01.51-.05l4.74-5.44c-.29 10.12.53 20.34 1.97 30.52l1.37 7.61c.24 1.27.44 2.54.7 3.8l.87 3.78 1.74 7.57 2.05 7.51c5.55 20.03 13.11 39.59 21.5 58.79 8.42 19.2 17.77 38.03 27.66 56.59 9.9 18.56 20.35 36.85 31.15 54.95 21.61 36.19 44.65 71.58 68.2 106.63 23.59 35.03 47.81 69.66 72.19 104.2l-8.4 5.94c-24.48-34.51-48.83-69.14-72.57-104.22-23.71-35.1-46.93-70.57-68.77-106.96-10.92-18.2-21.5-36.61-31.55-55.34-10.04-18.73-19.56-37.78-28.18-57.3-8.59-19.52-16.37-39.49-22.17-60.22l-2.15-7.78-1.84-7.88-.91-3.94c-.28-1.32-.5-2.66-.75-3.99l-1.46-8c-1.55-10.76-2.47-21.67-2.17-32.7l.13-4.82 4.61-.62h.02c.62-.08 1.3-.13 1.9-.12.44.03.88.08 1.32.13.45.05.71.14 1.08.21.33.08.7.15.97.24 1.2.34 2.24.72 3.23 1.12 1.99.79 3.77 1.67 5.53 2.57 3.5 1.81 6.8 3.75 10.04 5.76 6.47 4.03 12.67 8.31 18.74 12.75 12.14 8.88 23.74 18.37 35.01 28.22 22.5 19.74 43.55 41.06 63.18 63.61 19.6 22.58 37.75 46.44 54.11 71.5 4.09 6.27 8.08 12.6 11.92 19.02 3.86 6.41 7.6 12.89 11.2 19.46 1.82 3.27 3.56 6.58 5.33 9.89l5.22 9.79 10.45 19.57c28.3 51.97 57.98 103.24 88.43 154.05 15.2 25.42 30.61 50.72 46.17 75.93 15.57 25.2 31.26 50.35 47.18 75.28l-9.65 6.19z"/><path d="M803.08 928.91c-10.05-22.73-19.8-45.51-29.43-68.37-9.65-22.84-19.05-45.79-28.4-68.76-18.6-45.98-36.57-92.21-53.72-138.76-17.13-46.56-33.41-93.45-48.26-140.84l-5.59-17.69-2.84-8.8-2.91-8.77a984.887 984.887 0 0 0-12.42-34.8c-8.73-23.01-18.36-45.68-29.43-67.57-5.53-10.94-11.44-21.67-17.83-32.08-6.39-10.4-13.27-20.47-20.86-29.88-3.79-4.71-7.77-9.23-11.97-13.48-4.2-4.24-8.63-8.21-13.33-11.61-2.35-1.7-4.76-3.25-7.22-4.55-2.45-1.31-4.98-2.35-7.37-2.94-2.36-.62-4.72-.58-5.72-.07-.14.05-.24.12-.33.17.01-.01-.13.07.02-.03.1-.07.17-.14.23-.18.12-.11.17-.16.2-.21.07-.11-.16.26-.33.69-.37.92-.71 2.23-.99 3.55-.55 2.7-.9 5.64-1.16 8.59-.26 2.96-.42 5.97-.53 9-.21 6.05-.2 12.16-.08 18.28.26 12.24 1 24.51 2.01 36.77 2.04 24.52 5.18 48.99 9.13 73.31 7.96 48.64 19.12 96.81 34.11 143.73 7.51 23.45 16.01 46.57 25.75 69.14 9.74 22.56 20.72 44.58 33.32 65.61l-8.68 5.21c-12.89-21.47-24.09-43.87-34.01-66.77-9.92-22.91-18.55-46.33-26.18-70.05-15.22-47.46-26.54-96.07-34.63-145.19-4.02-24.57-7.22-49.27-9.31-74.12-1.04-12.43-1.8-24.89-2.08-37.42-.14-6.27-.15-12.55.06-18.87.11-3.16.28-6.34.55-9.55.28-3.21.65-6.43 1.33-9.81.36-1.7.76-3.42 1.53-5.38.42-1 .85-2.04 1.89-3.37.28-.34.58-.68.99-1.05.2-.18.42-.36.68-.55.3-.22.34-.22.51-.33.56-.35 1.14-.67 1.72-.91 2.33-1.03 4.63-1.31 6.7-1.31 2.09.01 4.02.31 5.82.75 3.62.89 6.85 2.28 9.86 3.87 3.01 1.6 5.82 3.4 8.49 5.33 5.34 3.86 10.16 8.19 14.68 12.74 4.52 4.55 8.73 9.34 12.71 14.27 7.97 9.87 15.1 20.28 21.69 30.98 6.58 10.7 12.64 21.68 18.3 32.83 22.58 44.66 39.36 91.84 54.02 139.23 14.83 47.14 31.11 93.86 48.25 140.27 17.16 46.4 35.15 92.51 53.76 138.36 9.35 22.91 18.76 45.79 28.42 68.58 9.63 22.78 19.4 45.55 29.41 68.11l-10.53 4.7z"/><path class="st82" d="M1090.43 936.25s191.63-231.86 330.46-344.66c6.66-5.41 3.08-16.67-5.44-17.11-44.29-2.25-92.33 15.27-162.98 72"/><path class="st82" d="M1098.95 944.09s121.01-133.16 229.75-202.5c5.49-3.5 2.52-12.49-3.94-11.87-32.31 3.08-69.55 21.5-69.55 21.5M1085.29 934.66s245.33-412.42 302.01-543.16c-84.92 46.96-215.48 176.28-359.33 524.91"/><path class="st82" d="M966.38 909.05s68.26-234.19 104.6-396.44 140.43-282.79 153.77-284.2c33.23 100.54-33.55 300.3-102.59 485.79"/><path d="M902.18 903.39c5.29-50.08 10.03-100.29 14.45-150.49 4.4-50.21 8.39-100.45 11.83-150.72 3.43-50.27 6.33-100.58 8.25-150.89l.73-18.87.35-9.49.44-9.49c.63-12.66 1.49-25.31 2.6-37.94 2.23-25.27 5.47-50.5 10.36-75.49 4.93-24.97 11.36-49.79 21.16-73.64 4.96-11.89 10.73-23.56 18.36-34.38 3.86-5.38 8.15-10.57 13.53-15.09 2.72-2.23 5.7-4.32 9.31-5.88 1.82-.76 3.81-1.39 6.09-1.64 1.15-.1 2.34-.14 3.61.03.62.06 1.27.2 1.91.38.19.05.25.06.55.16.29.1.58.21.83.32.52.23.92.48 1.29.73 1.43.99 2.18 1.9 2.89 2.76.68.85 1.23 1.67 1.72 2.47.99 1.6 1.78 3.15 2.52 4.69 1.46 3.09 2.67 6.14 3.79 9.21 2.23 6.13 4.1 12.27 5.83 18.43 3.44 12.32 6.27 24.73 8.81 37.18 5.04 24.9 8.84 49.99 11.76 75.17 5.77 50.36 8.04 101.14 6 151.85-1.05 25.35-3.21 50.68-6.82 75.84-3.62 25.15-8.68 50.15-15.72 74.66l-9.91-2.84c6.86-23.98 11.8-48.53 15.34-73.29 3.53-24.77 5.63-49.75 6.64-74.79 1.96-50.09-.34-100.37-6.11-150.2-2.92-24.91-6.71-49.73-11.71-74.25-2.51-12.25-5.32-24.45-8.67-36.41-1.68-5.97-3.5-11.9-5.59-17.62-1.05-2.85-2.17-5.66-3.41-8.27-.62-1.3-1.28-2.55-1.95-3.64-.33-.54-.67-1.03-.98-1.41-.28-.36-.61-.64-.48-.53.05.03.11.07.27.15.06.03.17.07.28.11.11.03-.02 0-.02 0-.12-.03-.24-.07-.41-.07-.29-.05-.69-.03-1.11 0-.87.09-1.92.38-3 .85-2.18.94-4.45 2.46-6.59 4.23-4.29 3.6-8.14 8.18-11.6 13.04-6.91 9.81-12.42 20.88-17.14 32.25-9.36 22.85-15.64 47.1-20.44 71.57-4.77 24.51-7.94 49.38-10.11 74.35-1.09 12.48-1.92 25-2.53 37.53l-.42 9.4-.34 9.4-.71 18.92c-1.87 50.48-4.72 100.88-8.1 151.25-3.39 50.36-7.33 100.68-11.67 150.95-4.36 50.28-9.05 100.5-14.29 150.74l-11.67-1.29z"/><path class="st81" d="M862.42 911.4s-53.24-323.05-63.23-423.56S742 192.56 698.6 194.99c-43.41 2.43-43.73 177.75-16.19 332.56 27.55 154.81 88.64 312.47 88.64 312.47"/><path d="M936.2 485.1c-1.26-30.94-3.29-61.97-5.84-92.87-2.52-30.92-5.64-61.79-9.82-92.47-2.12-15.33-4.43-30.63-7.21-45.82-2.78-15.18-5.98-30.27-10.01-45.04-2.02-7.38-4.27-14.67-6.87-21.77-2.61-7.08-5.58-14-9.21-20.28-1.82-3.13-3.83-6.07-6.04-8.62-2.22-2.52-4.67-4.63-7.17-5.83-1.29-.62-2.38-.94-3.98-1.22a18.99 18.99 0 0 0-4.44-.25c-2.93.17-5.81 1.11-8.56 2.66-5.53 3.12-10.33 8.54-14.36 14.53-4.04 6.03-7.41 12.72-10.36 19.63-5.88 13.87-10.19 28.6-13.74 43.5-3.54 14.92-6.27 30.09-8.5 45.34-2.2 15.26-3.95 30.6-5.25 46-2.61 30.79-3.61 61.75-3.38 92.7.2 30.95 1.71 61.9 4.54 92.73l-9.52.93c-6.35-62.16-7.64-124.86-2.78-187.28 2.48-31.2 6.52-62.36 13.69-93.07 3.64-15.34 8.03-30.59 14.27-45.39 3.14-7.39 6.76-14.67 11.36-21.58 2.31-3.45 4.88-6.8 7.86-9.92 2.99-3.11 6.4-6.02 10.43-8.3 4-2.28 8.69-3.87 13.53-4.17 2.41-.16 4.84-.02 7.18.38 2.23.35 4.91 1.13 7.11 2.23 4.51 2.21 7.97 5.4 10.88 8.69 2.88 3.33 5.24 6.86 7.32 10.45 4.14 7.2 7.28 14.65 10.03 22.15 2.73 7.51 5.05 15.1 7.12 22.72 4.12 15.25 7.34 30.62 10.13 46.03 2.77 15.42 5.12 30.88 7.12 46.37 7.93 61.99 12.09 124.18 14.02 186.55l-9.55.29z"/><path class="st83" d="M362.13 648.44s-54.52-90.64-66.56-138.79c38.24 24.08 112.59 87.8 112.59 87.8M349.45 713.48s-74.69-25.1-116.31-1.84c53.26 26.32 101.62 55.1 101.62 55.1M443.58 470.56s-13.68-66.81-7.24-94.99c29.78 19.32 75.67 73.25 75.67 73.25M601.44 382.34s5.7-60.84 16.16-73.2c26.62 26.62 46.58 64.65 46.58 64.65M1207.61 452.19c2.79-.93 40.97-47.49 54.94-53.07 4.66 41.9-12.1 113.6-12.1 113.6M1064.22 360.94s24.21-45.62 38.18-59.59c6.52 38.18 7.45 94.97 7.45 94.97M930.18 328.94l12.98-41.56 13.86 25.11M771.75 332.4s5.19-45.88 10.39-52.81c11.25 18.18 16.45 33.76 16.45 33.76M1304.3 550.64s36.5-24.02 53.79-25.94c-4.8 31.7-24.02 67.24-24.02 67.24"/><path d="M811.28 1412.88s39.26 9.34 115.86.55c100.96-11.59 115.86-33.1 115.86-33.1" style="fill:none;stroke:#873c2f;stroke-width:7;stroke-linecap:round;stroke-miterlimit:10"/></g></svg>