<svg xmlns="http://www.w3.org/2000/svg" viewBox="0 0 1648.71 1747.87"><defs><style>.cls-1{isolation:isolate;}.cls-2{fill:#ffb531;}.cls-3{fill:#161616;}.cls-4{fill:#c47956;}.cls-5{fill:#fffefd;}.cls-6{fill:#587737;}.cls-7{fill:#dd283e;}.cls-8{fill:#e83a4f;}.cls-9{fill:#e85a6c;opacity:0.4;}.cls-19,.cls-9{mix-blend-mode:screen;}.cls-10{fill:#d99c6a;}.cls-11,.cls-14{fill:#ad523b;}.cls-12{fill:#e8bb80;}.cls-13{fill:#e8d09b;}.cls-14,.cls-15,.cls-19{opacity:0.5;}.cls-15{fill:#96422d;}.cls-16{fill:#403f3e;}.cls-17{fill:#2f5e27;}.cls-18{fill:#18401f;}.cls-19,.cls-20{fill:#93944e;}.cls-21{fill:#ffd64f;}.cls-22{fill:#ffff82;}.cls-23{fill:#cf631b;}.cls-24{fill:#ffc661;}.cls-25{fill:#fff9f0;}.cls-26{fill:#630b16;}.cls-27{fill:#941341;}.cls-28,.cls-30,.cls-32,.cls-33,.cls-34,.cls-35,.cls-36,.cls-37{fill:none;stroke-miterlimit:10;}.cls-28,.cls-30,.cls-32,.cls-33,.cls-34,.cls-35,.cls-36{stroke:#000;}.cls-28{stroke-width:12px;}.cls-29{fill:#873c2f;}.cls-30,.cls-37{stroke-linecap:round;}.cls-30,.cls-36,.cls-37{stroke-width:7px;}.cls-31{fill:#fff;}.cls-32{stroke-width:6px;}.cls-33{stroke-width:12.71px;}.cls-34{stroke-width:11.5px;}.cls-35{stroke-width:11.73px;}.cls-37{stroke:#873c2f;}</style></defs><g class="cls-1"><g id="Capa_6" data-name="Capa 6"><path d="M890.11,1614.39c-8.78-.05-17.57-.46-26.12-1.19-1.43-.14-2.84-.29-4.25-.45l-5.5-.6-3.29-.48-2.25-.32c-1.41-.2-2.83-.4-4.24-.63l-6.44-1.18c-1.72-.28-3.45-.67-5.12-1l-1.33-.3-2.24-.49c-1.38-.3-2.8-.61-4.21-1l-2.12-.56c-3.47-.91-7-1.86-10.55-3l-4.65-1.44-7.76-2.81a65,65,0,0,1-6.36-2.61c-1.08-.51-2.13-1-3.14-1.57-.67-.36-1.29-.71-1.91-1.06l-1-.56A291.7,291.7,0,0,1,744.2,1564a295.31,295.31,0,0,1-37.45-36.59c-7.55-8.84-15.07-18.55-23-29.65a136.6,136.6,0,0,1-57.13,12.14c-3.94,0-7.91-.17-11.8-.49a108.94,108.94,0,0,1-18-2.82l-3.92-1.06-1.46-3.8c-.69-1.79-16.73-44.54-4.77-99.31l.85-3.91,3.63-1.66c21.74-10,39.73-12.06,51-12.06,2.38,0,4.7.09,6.91.27,0-3.91-.06-7.82-.08-11.73-51.65-51.56-68.62-109.09-51.9-175.84l.53-2.11,1.53-1.56c6.54-6.64,15-12.68,25.24-18-1.91-9-4.71-26.63-4.6-51.92.13-29.31,4.5-76.21,24.52-133.84l-93.22-39.54L453.54,909.4,404.69,889l-24.46-10.09-13-5.33-.55-.23-.77-.36a14.87,14.87,0,0,1-3.19-2.24,14.15,14.15,0,0,1-3.82-6.38,14.92,14.92,0,0,1-.3-6.76,14.49,14.49,0,0,1,2.88-6.43,13.36,13.36,0,0,1,6.38-4.44,14.6,14.6,0,0,1,1.88-.46l.88-.12,2.3-.18c2.19-.16,4.52-.24,7.15-.24h.2c4.13,0,8.46.17,13.6.54,4.11.3,8.4.72,13.51,1.32s9.4,1.18,13.37,1.82c4.65.72,9.44,1.53,14.47,2.44l-8.71-5.26C404,833,377.86,817.24,351.85,801.84c-8-4.79-16.23-9.58-24.17-14.22l-13.35-7.82L295.5,768.94c-2.24-1.27-4.47-2.56-6.71-3.85-4-2.3-8.08-4.67-12.15-6.93l-24.88-14-.7-.39-.21-.13c-.29-.17-.58-.35-.86-.54a17,17,0,0,1-3.71-3.44,17.37,17.37,0,0,1-3.66-9,18.52,18.52,0,0,1,1.34-9.23,16.86,16.86,0,0,1,6.38-7.63,16.39,16.39,0,0,1,4.69-2.06l.88-.22c.72-.17,1.41-.34,2.13-.49a93.08,93.08,0,0,1,11.72-1.7c3.41-.29,7-.43,10.62-.43,4,0,8,.16,12.36.5a210.64,210.64,0,0,1,21.51,2.8c-18.18-12.25-42.83-28.41-68.64-43.93l-9-5.39,9.51-4.33c10.34-4.7,22.93-7.09,37.43-7.09,21.82,0,44.11,5.29,60.84,10.52-48.83-54.32-82.85-95.83-101.16-123.43l-12.42-18.73L252.18,527c37.31,12.4,74.05,31.8,112.11,59.21-14.78-32.39-37-84.76-42.42-117.84l-2.22-13.52,11,8.23c19.55,14.69,48.86,42,70,62.36l12.23,10.28q-1.51-3.4-3-6.74c-9.3-21.41-17-40.89-23.42-59.57-8.11-23.51-13.57-43.25-17.21-62.12l-1.5-7.94-1.2-8.09-.58-4c-.12-.92-.2-1.81-.29-2.7,0-.47-.09-.95-.14-1.42l-.79-8.1a193.76,193.76,0,0,1,.53-33.19l.71-6.48,6.35-.33.83,0c.47,0,.94,0,1.38.06l.12,0c.47.07.94.16,1.4.26a8.83,8.83,0,0,1,.93.24l.49.15c.34.11.69.22,1,.34a31.88,31.88,0,0,1,3.24,1.43c1.89.94,3.55,1.92,5.46,3.1,3,1.9,6.09,4,9.67,6.66,5.61,4.17,11.42,8.86,17.75,14.35,10.58,9.17,21.28,19.35,32.69,31.12,7.71,8,15.46,16.46,23.1,25.27-1.6-22.1-2.78-56,3-74.23l2.38-7.5L482,341c18.53,14.32,42.13,43.12,56.8,62.11-1.91-24.94-2.86-48.21-2.9-71,0-13.79.32-26.08,1-37.59.42-7,1-13.19,1.62-18.91.42-3.53.86-6.66,1.35-9.58a90.82,90.82,0,0,1,2.19-9.88,33.51,33.51,0,0,1,2.09-5.56l.05-.11a15.23,15.23,0,0,1,2.43-3.57,10.35,10.35,0,0,1,1.33-1.2,9.51,9.51,0,0,1,.91-.62,5.13,5.13,0,0,1,.55-.3l.1,0a13.41,13.41,0,0,1,2.09-.9,17.38,17.38,0,0,1,5.7-.92c.6,0,1.23,0,1.87.08a27,27,0,0,1,6.2,1.33,45.21,45.21,0,0,1,10,4.88,73,73,0,0,1,8.24,6.17,120.29,120.29,0,0,1,13.81,14.14A187,187,0,0,1,609,285a296.19,296.19,0,0,1,19.19,32.88c4.47,8.81,8.69,17.93,12.85,27.75,4.83-22.06,11.84-47.37,19.81-55.36l4.23-4.23,3.86,4.56c12.8,15.11,23.45,32.88,30.91,46.9,2.73-47.53,10.81-123.06,34.7-148.61,5.94-6.36,12.63-9.58,19.88-9.58h.64c13.65.36,25.71,12.72,36.88,37.77,8.75,19.65,16.91,46.9,24.24,81,.28,1.33.57,2.69.86,4.09,3.83-15.12,7.18-24.37,10-27.54l5.35-6,3.66,7.18c2.43,4.74,4.68,9.65,6.73,14.64a562.91,562.91,0,0,1,15.84-61.5c5.76-17.67,11.5-31.77,18.08-44.37A131.48,131.48,0,0,1,890,163.59a75.07,75.07,0,0,1,8.88-9.5,47.94,47.94,0,0,1,11.56-7.73,33.73,33.73,0,0,1,14.08-3.23h.64a32.23,32.23,0,0,1,7.57,1,27.62,27.62,0,0,1,7.45,3,36.64,36.64,0,0,1,10.69,10.08,68.87,68.87,0,0,1,6.64,11.35,142.48,142.48,0,0,1,8.29,23.23c2,7.15,3.68,14.8,5.26,23.4,2.59,14.06,4.6,29,6.33,46.88,1.45,15.05,2.55,30.83,3.29,46.9l0,.88,10-24.69,7.94,17.69c7.4-24.54,15.28-44.68,24.65-63,7-13.53,13.79-24.06,21.38-33.13a82.55,82.55,0,0,1,15.1-14.27,41.1,41.1,0,0,1,10.29-5.35,23.53,23.53,0,0,1,6.79-1.24h.17a17.37,17.37,0,0,1,3.9.38,13.26,13.26,0,0,1,2.12.6l.12,0,.53.2a9.51,9.51,0,0,1,1,.5,10.08,10.08,0,0,1,1.46,1,15.3,15.3,0,0,1,3,3.37,26.43,26.43,0,0,1,1.68,2.88,49.48,49.48,0,0,1,2.22,5.08c1.06,2.83,2,5.81,3.08,9.67,1.52,5.55,2.89,11.59,4.33,19,2.17,11.32,4,23.72,5.74,37.92,2.83,24.06,4.65,48.93,5.54,76,.21,6.54.36,13.25.44,20,10.47-15.16,23.55-32.79,32.72-40.55l8.11-6.88.92,10.6c1.85,21.2,1.58,47.83.89,68.71a686,686,0,0,1,40.56-59.73c16.36-21.54,33.85-41.66,49.25-56.67,22.68-22.12,29.16-22.27,31.59-22.32l6.34-.15,1.49,6.16c11.12,46.08,2.52,111.84-26.27,200.87,16-14.76,31.66-28.28,40.62-31l6.91-2.12.2,7.23c.78,27.56-8.13,66-14.75,90.38,45-44,89-75.83,131-94.72l21.06-9.47L1432,443.27c-14.17,26.48-39,67.05-73.86,120.62,4.3,1.05,8.56,2.12,12.71,3.21a55.75,55.75,0,0,1,14-2.69l7.16-.21-1.65,7c-4.4,18.57-13.52,37.63-21.22,51.58a172.33,172.33,0,0,1,49.69-7.66,153.33,153.33,0,0,1,20.29,1.36,17.16,17.16,0,0,1,14.42,13.24,17.4,17.4,0,0,1-7,18.54c-41.71,28.53-92.69,69.24-151.6,121.07,14.86-3.62,28.24-5.53,39.89-5.68h.18a14.35,14.35,0,0,1,6.53,27c-94.08,49.62-201.74,143.62-234.24,172.87,14.17,33.4,18.2,78.22,19.08,110.14.84,30.4-.87,58-2.83,74.44l.71.09a62.92,62.92,0,0,1,10.94,2.62,43.5,43.5,0,0,1,10.69,5.6l1.87,1.31.83,2.23a197.24,197.24,0,0,1,11.78,51.22,178.94,178.94,0,0,1-3.17,52.33l-1.46,6.36c-.14.62-.28,1.22-.41,1.83a45.68,45.68,0,0,1-1.21,4.62l-2.75,9.23c-.32,1.09-.65,2.17-1.07,3.23l-4.48,12.1-5.22,11.82a324.62,324.62,0,0,1-25,43.13c.13,1.88.27,3.76.4,5.65a113.92,113.92,0,0,1,20.25-1.73,137.33,137.33,0,0,1,43.26,7.15l3.79,1.26,1.27,3.79c17.87,53.17,6.58,97.39,6.09,99.24l-1,3.93-3.78,1.49c-.77.3-19.24,7.4-45,7.4-3.86,0-7.74-.16-11.55-.47a133.68,133.68,0,0,1-31.26-6.4l-1.19,2.15a413,413,0,0,1-28.73,43.33c-4.73,6.31-10,13-16,20.37l-1.32,1.58c-2.28,2.74-4.64,5.58-7,8.33l-2.09,2.45c-.48.55-1,1.1-1.46,1.64l-.75.83c-.44.47-.86.94-1.27,1.4-1.05,1.16-2.13,2.36-3.3,3.49a162.26,162.26,0,0,1-42.42,31.42A168.56,168.56,0,0,1,968,1604.31a163.4,163.4,0,0,1-25.8,6.16c-8,1.24-16.49,2.2-25.94,3-8.62.63-17.39.95-26.09,1Z"/><path d="M924.52,145.13h.59a31.4,31.4,0,0,1,7.13,1,25.85,25.85,0,0,1,6.9,2.81,35.26,35.26,0,0,1,10.13,9.56,68.36,68.36,0,0,1,6.43,11,141.88,141.88,0,0,1,8.18,22.9c2.1,7.71,3.78,15.46,5.22,23.23,2.85,15.53,4.79,31.12,6.3,46.71s2.57,31.2,3.28,46.8q.23,5.06.42,10.11l11.73-28.92,8.22,18.34c6.76-23.18,14.93-46.08,26-67.85,5.92-11.45,12.64-22.6,21.14-32.75A80.78,80.78,0,0,1,1061,194.13a38.73,38.73,0,0,1,9.77-5.09,21.56,21.56,0,0,1,6.2-1.13h.12a15.6,15.6,0,0,1,3.47.33,10.93,10.93,0,0,1,1.87.53c.19.07.25.08.54.2a7.48,7.48,0,0,1,.8.39,10.08,10.08,0,0,1,1.23.83,13.28,13.28,0,0,1,2.65,3,24,24,0,0,1,1.51,2.6,49.24,49.24,0,0,1,2.13,4.88c1.2,3.2,2.15,6.34,3,9.49,1.72,6.29,3.08,12.56,4.29,18.85,2.41,12.56,4.22,25.16,5.72,37.77,3,25.24,4.7,50.55,5.53,75.89q.42,13.15.51,26.34c9.45-14,25.48-36.54,35.94-45.41l5.17-4.37L1152,326c2.12,24.37,1.41,56.14.6,76.27A683.51,683.51,0,0,1,1197,336c16.3-21.46,33.72-41.51,49-56.45,22.12-21.57,28.24-21.71,30.25-21.76l4.72-.1,1.11,4.59c11.33,46.94,2,114.74-28.62,207.1,18.78-17.46,36.16-32.95,45.51-35.82l4.39-1.35.13,4.59c.85,30.18-10,73.61-16.68,97,53.3-53.21,99.07-83.1,135.73-99.59l15.7-7.07-8.12,15.18c-15.64,29.21-42.82,72.94-75.32,122.84q8.08,2,16,4a56.89,56.89,0,0,1,14-2.77l4.56-.12-1.06,4.43c-5,21-16.26,42.84-23.48,55.44,18.95-6.12,36.68-9.06,53.9-9.06a149.94,149.94,0,0,1,20,1.34,15.19,15.19,0,0,1,12.74,11.73,15.39,15.39,0,0,1-6.2,16.42c-48.91,33.45-105,79.84-158.08,126.77,13.81-3.81,31.29-7.53,47.53-7.73h.15a11.93,11.93,0,0,1,11.65,9.25,12.1,12.1,0,0,1-6,14c-95.46,50.34-204.65,146.09-235.72,174.11,14.46,33.14,18.6,78.31,19.49,110.72s-1.07,60.49-3.06,76.15c.88.09,1.77.19,2.66.32a60.4,60.4,0,0,1,10.58,2.52,41.61,41.61,0,0,1,10.18,5.35h0l1.36,1,.61,1.64a194.47,194.47,0,0,1,11.66,50.7,177.2,177.2,0,0,1-3.13,51.76l-1.44,6.31c-.51,2.1-.9,4.23-1.57,6.27l-1.85,6.2-.93,3.09c-.3,1-.61,2.06-1,3.06l-4.47,12.09-5.2,11.76a323.83,323.83,0,0,1-25.2,43.39q.32,4.3.61,8.59a110,110,0,0,1,22.09-2.12,135.27,135.27,0,0,1,42.63,7l2.84,1,1,2.84c17.68,52.59,6.54,96.26,6.06,98.09l-.78,3-2.84,1.11c-1.13.44-19,7.27-44.27,7.27-3.65,0-7.45-.14-11.38-.47a131.25,131.25,0,0,1-32.38-6.83c-.66,1.2-1.32,2.4-2,3.6a409.51,409.51,0,0,1-28.58,43.11c-5.17,6.89-10.52,13.64-16,20.3-2.75,3.3-5.49,6.62-8.3,9.88l-2.1,2.45c-.7.82-1.46,1.62-2.18,2.43-1.48,1.61-2.9,3.27-4.47,4.79a161,161,0,0,1-42,31.08,164.94,164.94,0,0,1-24.16,10.13,161.88,161.88,0,0,1-25.49,6.09c-8.6,1.32-17.16,2.24-25.79,2.93s-17.28.94-25.94,1-17.32-.44-26-1.19c-2.16-.2-4.31-.46-6.47-.69l-3.24-.35-3.22-.47c-2.15-.32-4.3-.6-6.44-1l-6.41-1.16c-2.15-.36-4.26-.86-6.38-1.33s-4.26-.89-6.36-1.46c-4.2-1.12-8.43-2.18-12.56-3.54l-3.12-1-1.56-.48-1.54-.56-6.14-2.22a63.78,63.78,0,0,1-6.2-2.55c-1-.48-2-1-3-1.51s-1.9-1.07-2.86-1.61a288.12,288.12,0,0,1-43.16-28.95,291.51,291.51,0,0,1-37.19-36.33c-8.47-9.91-16.33-20.27-23.81-30.86a135.72,135.72,0,0,1-57.79,12.65c-4.26,0-8.16-.19-11.65-.48a107.58,107.58,0,0,1-17.63-2.76l-2.94-.8-1.09-2.84c-.68-1.77-16.52-44-4.68-98.18l.63-2.92,2.73-1.25c21.17-9.71,38.71-11.88,50.15-11.88a80.4,80.4,0,0,1,8.94.48c0-.52,0-1,0-1.57q-.08-6.6-.09-13.21c-51.55-51.16-68.56-108.26-52-174.51l.4-1.59,1.15-1.16c7.84-8,17.57-14,26.09-18.28-1.72-7.71-5-26-4.88-53,.13-30.22,4.75-77.29,25-135L551.9,948.68l-97.58-41.12-48.86-20.38L381,877.09l-12.24-5-.76-.32-.52-.22-.72-.34a12.46,12.46,0,0,1-2.66-1.88,12,12,0,0,1-3.26-5.44,12.94,12.94,0,0,1-.26-5.89,12.6,12.6,0,0,1,2.48-5.54,11.3,11.3,0,0,1,5.41-3.77,10.35,10.35,0,0,1,1.6-.39l.79-.12.44,0,1.78-.14c2.37-.17,4.69-.23,7-.23h.19c4.55,0,9,.22,13.47.54s9,.78,13.42,1.3,8.88,1.11,13.28,1.81c8.47,1.32,16.89,2.84,25.28,4.48q-9.07-5.5-18.16-11-37.28-22.53-74.68-44.79c-12.46-7.43-25-14.69-37.53-22L296.5,767.21c-6.3-3.59-12.55-7.27-18.88-10.8l-19-10.65-4.74-2.66-1.18-.66-.68-.39c-.32-.19-.64-.38-.94-.58a14.79,14.79,0,0,1-3.28-3,15.42,15.42,0,0,1-3.23-7.95,16.41,16.41,0,0,1,1.19-8.23,14.88,14.88,0,0,1,5.61-6.73,14.72,14.72,0,0,1,4.13-1.81c1-.24,1.92-.48,2.89-.67a89.42,89.42,0,0,1,11.49-1.68c3.5-.29,7-.42,10.46-.42,4.1,0,8.17.18,12.21.49a214.1,214.1,0,0,1,22.14,2.93c2.95.54,5.89,1.14,8.82,1.77-18.12-12.35-46.72-31.38-76.91-49.53l-5.7-3.43,6.05-2.76c11-5,23.71-6.91,36.6-6.91,25.39,0,51.58,7.36,67.35,12.76-46.06-51-85.17-97.37-106-128.78l-9.22-13.89,15.83,5.26c38.87,12.91,77.78,33.86,117.77,63.46-14.26-30.74-39.66-88.84-45.48-124.32l-1.41-8.6,7,5.24c19.07,14.33,47.4,40.63,69.89,62.25l18.95,15.93q-3.3-7.3-6.51-14.68c-8.46-19.49-16.38-39.26-23.36-59.42S375.31,428,371.23,406.86l-1.5-7.93-1.18-8-.58-4c-.17-1.34-.28-2.69-.42-4l-.79-8.09a191.06,191.06,0,0,1,.53-32.77l.52-4.79,4.65-.24h0l.71,0c.41,0,.81,0,1.19.05s.87.15,1.3.24.7.2,1.06.3.69.21.95.32a30.83,30.83,0,0,1,3.13,1.38c1.92.95,3.62,2,5.3,3,3.33,2.09,6.47,4.3,9.53,6.57,6.11,4.54,11.94,9.32,17.63,14.25,11.37,9.85,22.15,20.26,32.57,31q14,14.48,27,29.8c-1.84-22.17-3.75-60.09,2.43-79.56l1.51-4.77,4,3.06c20.22,15.62,46.63,48.78,60.57,67.14-.08-1-.17-2-.26-3-2-24.81-3.13-49.7-3.18-74.64,0-12.47.26-25,1-37.46.38-6.25.88-12.51,1.61-18.8.37-3.15.8-6.3,1.34-9.47A85.56,85.56,0,0,1,544,256.7a31.94,31.94,0,0,1,2-5.23,13.49,13.49,0,0,1,2.16-3.2,9.49,9.49,0,0,1,1.07-1,5.44,5.44,0,0,1,.73-.49c.32-.2.35-.2.53-.3a12,12,0,0,1,1.79-.76,15.47,15.47,0,0,1,5.09-.83c.58,0,1.14,0,1.69.08a24.61,24.61,0,0,1,5.74,1.23,42.7,42.7,0,0,1,9.51,4.66,72.56,72.56,0,0,1,8,6,119.42,119.42,0,0,1,13.58,13.9,187.13,187.13,0,0,1,11.5,15.28,296.85,296.85,0,0,1,19.06,32.65c5.57,11,10.61,22.19,15.25,33.54,3.9-18.83,11.77-51.78,20.61-60.64l2.69-2.69,2.46,2.9c14.86,17.55,26.81,38.76,34,53.05C705,272.17,716.15,211.43,736,190.2c5.55-5.94,11.75-8.94,18.42-8.94H755c12.81.34,24.28,12.3,35.1,36.58,8.7,19.53,16.81,46.64,24.11,80.58.91,4.2,1.79,8.51,2.66,12.88,3.23-14,7.81-31.1,11.65-35.42l3.4-3.84,2.33,4.57a194.47,194.47,0,0,1,9.14,20.85,579.28,579.28,0,0,1,17.11-68c4.89-15,10.53-29.82,18-44.06a131.83,131.83,0,0,1,13.09-20.57,74.29,74.29,0,0,1,8.65-9.24,45.88,45.88,0,0,1,11.07-7.41,31.66,31.66,0,0,1,13.24-3.05m0-4a35.68,35.68,0,0,0-14.93,3.42,50,50,0,0,0-12,8,77.65,77.65,0,0,0-9.13,9.75,133.26,133.26,0,0,0-13.5,21.2c-6.64,12.72-12.43,26.91-18.22,44.68a554.92,554.92,0,0,0-14.61,55.5q-2-4.53-4.27-8.92l-2.33-4.57L832.83,265l-3.89,4.39-3.4,3.83c-1,1.17-3.72,4.19-8.28,20.33-7.14-32.34-15-58.34-23.5-77.34-11.51-25.82-24.15-38.57-38.64-38.95h-.7c-7.82,0-15,3.43-21.34,10.21-23.16,24.77-31.68,95-34.81,142.92-7.21-12.94-16.71-28-27.81-41.13l-2.46-2.9L665.19,283l-3.07,3.08-2.69,2.69c-7.56,7.57-14.18,29.58-19,50.33-3.39-7.74-6.85-15.08-10.46-22.21a297.39,297.39,0,0,0-19.33-33.1,188.75,188.75,0,0,0-11.73-15.6,122.54,122.54,0,0,0-14-14.36,75.79,75.79,0,0,0-8.47-6.34A46.73,46.73,0,0,0,566,242.44a28.38,28.38,0,0,0-6.67-1.43q-1.05-.09-2-.09a19.41,19.41,0,0,0-6.36,1,14.25,14.25,0,0,0-2.34,1h0l0,0a6.86,6.86,0,0,0-.75.41,12.73,12.73,0,0,0-1.07.73,13.06,13.06,0,0,0-1.51,1.36l0,0,0,0a17.29,17.29,0,0,0-2.72,4l0,.05,0,0,0,.05a35.9,35.9,0,0,0-2.21,5.85,94.72,94.72,0,0,0-2.24,10.13c-.5,3-.95,6.14-1.36,9.68-.67,5.76-1.21,12-1.64,19-.69,11.56-1,23.9-1,37.71,0,20.86.83,42.09,2.42,64.6-14.78-18.81-36-44.07-53.1-57.25l-4-3.06-4.53-3.5L473,338.35l-1.51,4.77c-5.23,16.47-5,44.74-3.49,69.06-6.39-7.24-12.84-14.23-19.26-20.87-11.45-11.82-22.18-22-32.82-31.25-6.37-5.52-12.22-10.24-17.86-14.44-3.63-2.69-6.74-4.83-9.8-6.75-2-1.22-3.68-2.23-5.64-3.2a33.76,33.76,0,0,0-3.44-1.52c-.37-.15-.74-.27-1.06-.37l-.16,0h-.05l-.06,0-.21-.07c-.27-.08-.63-.19-1.13-.29s-1-.2-1.49-.28l-.12,0h-.12a15.64,15.64,0,0,0-1.57-.07l-.92,0-4.66.24-3.4.18-.37,3.38-.53,4.8a195.83,195.83,0,0,0-.55,33.45v.14l.79,8.09c.05.49.09.95.14,1.42.08.89.17,1.8.29,2.73v.08l.58,4,1.18,8,0,.08v.08l1.5,7.93c3.66,19,9.15,38.81,17.29,62.41,6.37,18.41,13.9,37.6,23,58.62L402,523.9c-21.2-20.38-50.54-47.73-70.16-62.47l-7-5.23-8-6,1.61,9.83,1.41,8.6c5.1,31.09,24.86,79,39.53,111.6-36.09-25.28-71.09-43.38-106.61-55.19L237,519.79l-11-3.66,6.41,9.67,9.21,13.9c17.76,26.77,50.23,66.56,96.6,118.37-15.87-4.53-35.41-8.57-54.61-8.57-14.78,0-27.65,2.45-38.25,7.27l-6.06,2.76-6.92,3.15,6.52,3.92,5.7,3.42c22.34,13.44,43.82,27.36,61,38.8-4.3-.6-8.5-1.06-12.66-1.38-4.41-.33-8.51-.5-12.52-.5-3.69,0-7.32.15-10.79.44a92.69,92.69,0,0,0-12,1.74c-.76.15-1.49.33-2.19.5l-.82.2h-.09a18.55,18.55,0,0,0-12.4,10.86,20.49,20.49,0,0,0-1.49,10.22,19.53,19.53,0,0,0,4.08,10,18.43,18.43,0,0,0,4.18,3.86c.28.19.59.38.91.57l.18.11.05,0,0,0,.68.39,1.21.68,4.74,2.66,19,10.65c4.06,2.26,8.17,4.63,12.14,6.92l6.71,3.86,18.84,10.86c4.41,2.6,8.86,5.2,13.31,7.8,7.93,4.64,16.14,9.43,24.16,14.22,25.83,15.29,51.87,31,74.28,44.55-1.36-.23-2.72-.44-4.06-.65-4-.63-8.25-1.22-13.42-1.83s-9.46-1-13.6-1.32c-5.2-.38-9.58-.55-13.76-.55h-.19c-2.68,0-5.06.08-7.28.24l-1.81.14-.45,0h-.13l-.13,0-.79.11h-.06a16.8,16.8,0,0,0-2.16.52,15.37,15.37,0,0,0-7.37,5.14,16.47,16.47,0,0,0-3.26,7.25A17.13,17.13,0,0,0,357,865a15.61,15.61,0,0,0,7.91,9.77l.08,0,.09,0,.71.33.07,0,.06,0,.52.22h.05l.76.32,12.25,5,24.45,10.08,48.85,20.38,97.57,41.11,91.49,38.81c-19.59,57.09-23.89,103.56-24,132.72-.11,24.16,2.43,41.38,4.33,50.86a99.51,99.51,0,0,0-24.4,17.62l-1.14,1.16-.77.78-.26,1.06-.4,1.58c-16.85,67.24.11,125.21,51.85,177.16,0,3,0,5.93.05,8.76-1.59-.09-3.23-.13-4.89-.13-11.46,0-29.76,2.12-51.82,12.24l-2.72,1.25-1.82.83-.42,2-.64,2.93c-12.09,55.37,4.16,98.64,4.85,100.46l1.09,2.84.73,1.9,2,.53,2.94.8a110.9,110.9,0,0,0,18.35,2.89c3.94.32,8,.49,12,.49a139,139,0,0,0,56.44-11.64c7.58,10.59,14.83,19.92,22.12,28.44a296.08,296.08,0,0,0,37.71,36.85,292.78,292.78,0,0,0,43.76,29.35l1,.54c.62.36,1.25.72,1.91,1.07,1.07.57,2.15,1.11,3.25,1.62a68.87,68.87,0,0,0,6.56,2.7l6.12,2.21,1.54.56.08,0,.09,0,1.55.49,3.09,1c3.55,1.18,7.16,2.13,10.66,3l2.1.55c1.44.39,2.89.71,4.29,1l2.19.49h0l1.34.29c1.68.38,3.42.77,5.2,1.07l6.39,1.16h.07c1.43.23,2.87.44,4.27.64l2.23.32,3.24.47H854l3.23.36,2.27.25c1.39.15,2.83.31,4.26.45,8.63.74,17.48,1.14,26.32,1.2s17.6-.34,26.25-1c9.54-.76,18.07-1.73,26.11-3a166.21,166.21,0,0,0,26.13-6.24,169.73,169.73,0,0,0,24.74-10.37,164.22,164.22,0,0,0,42.95-31.81c1.2-1.16,2.29-2.37,3.34-3.54.41-.46.82-.92,1.24-1.37l0,0,0,0c.24-.28.5-.55.75-.83.5-.55,1-1.1,1.48-1.65l2.11-2.47c2.38-2.77,4.76-5.62,7.06-8.38l1.28-1.54c6.1-7.47,11.36-14.15,16.09-20.46a412.59,412.59,0,0,0,28.86-43.54l.41-.72a136.17,136.17,0,0,0,30.15,6c3.86.32,7.8.48,11.71.48,25.72,0,43.76-6.77,45.73-7.54l2.84-1.11,1.89-.74.52-2,.77-2.95c.5-1.88,11.92-46.69-6.13-100.39l-1-2.84-.64-1.89-1.89-.63-2.84-.94a138.94,138.94,0,0,0-43.89-7.26,118.78,118.78,0,0,0-18.41,1.39c-.07-.92-.13-1.84-.2-2.76a324.92,324.92,0,0,0,24.73-42.78l0,0,0,0,5.2-11.77,0-.11,0-.11,4.46-12c.45-1.14.78-2.25,1.11-3.37l.92-3.07,1.83-6.14c.54-1.62.89-3.22,1.24-4.76.13-.59.26-1.18.4-1.77l1.46-6.36v-.09a180.87,180.87,0,0,0,3.2-52.92,198.81,198.81,0,0,0-11.9-51.73l-.61-1.64-.43-1.17-1-.72-1.34-.94a46,46,0,0,0-11.11-5.84h-.05l0,0a63.61,63.61,0,0,0-10.09-2.5,556.07,556.07,0,0,0,2.62-72.81c-.87-31.67-4.85-76-18.69-109.54,33.67-30.24,139.89-122.65,232.79-171.64a16.36,16.36,0,0,0-7.47-30.74h-.2a170.17,170.17,0,0,0-32.62,4c56.36-49.31,105.24-88.2,145.48-115.72a19.36,19.36,0,0,0,7.83-20.65,19.16,19.16,0,0,0-16.1-14.77,155.55,155.55,0,0,0-20.55-1.37,171.49,171.49,0,0,0-45.67,6.43c7.22-13.57,15.12-30.92,19.15-47.89l1-4.43,1.2-5.07-5.21.15-4.55.13a56.91,56.91,0,0,0-14,2.61c-3.11-.81-6.27-1.61-9.46-2.4,34.07-52.46,58.43-92.27,72.42-118.4l8.12-15.18,5.54-10.35-10.71,4.82-15.7,7.06c-40.59,18.26-83.06,48.54-126.38,90.09,6.34-24.43,13.68-58.69,13-84l-.13-4.6-.15-5.25-5,1.54-4.4,1.35c-7.79,2.4-19.33,11.5-35.85,26.43,27.08-85.79,34.94-149.62,24-194.82l-1.11-4.59-.75-3.14-3.23.08-4.72.11c-2.91.06-9.7.22-33,22.88-15.47,15.08-33,35.29-49.45,56.9-13,17.08-25.29,35-36.74,53.48.51-19.55.52-42.61-1.11-61.43l-.59-6.74-.67-7.71-5.9,5-5.16,4.38c-8.31,7-19.69,21.91-29.52,35.86q-.14-7-.35-13.87c-.9-27.18-2.72-52.11-5.56-76.22-1.7-14.26-3.58-26.71-5.76-38.07-1.44-7.45-2.83-13.53-4.36-19.14-1.09-3.94-2.06-7-3.14-9.85a51.8,51.8,0,0,0-2.3-5.28,29.43,29.43,0,0,0-1.75-3l0,0,0,0a17.13,17.13,0,0,0-3.38-3.78l0,0,0,0a13.65,13.65,0,0,0-1.73-1.17,12.05,12.05,0,0,0-1.19-.58,6.44,6.44,0,0,0-.68-.27h0l-.06,0a16.15,16.15,0,0,0-2.42-.69,20,20,0,0,0-4.28-.41h-.22a25.56,25.56,0,0,0-7.35,1.33,43,43,0,0,0-10.8,5.61,84.09,84.09,0,0,0-15.49,14.62c-7.71,9.21-14.58,19.84-21.64,33.5-8.78,17.18-16.25,35.9-23.23,58.28l-3.85-8.57-3.83-8.54-3.52,8.68-4.85,11.95c-.72-13.28-1.69-26.3-2.88-38.82-1.75-18-3.77-32.95-6.36-47-1.6-8.66-3.33-16.37-5.3-23.56a144.42,144.42,0,0,0-8.41-23.55,72,72,0,0,0-6.82-11.68,38.85,38.85,0,0,0-11.3-10.63,29.29,29.29,0,0,0-8-3.26,34.4,34.4,0,0,0-8-1.08Z"/><path d="M738.33,1049.46a411.36,411.36,0,0,1,57.37-33.79l1.83,3.56c-13.67,7.54-34.66,19.48-57,33.56Z"/><path d="M796.56,1017.48c-13.84,7.63-34.79,19.56-57.09,33.62a408.23,408.23,0,0,1,57.09-33.62m-1.72-3.61a413.19,413.19,0,0,0-57.65,33.95l4.42,6.66c22.28-14,43.23-26,56.89-33.5l-3.66-7.11Z"/><path d="M657.54,1353.4q.06-6.45.14-12.9l4,0c.11,4.61.06,9-.14,13Z"/><path d="M659.68,1340.52c.1,4.32.07,8.67-.14,12.9q.06-6.45.14-12.9m4-.09-8,0q-.07,6.46-.14,12.92l8,.23c.21-4.1.26-8.54.15-13.19Z"/><path class="cls-2" d="M1111.51,1368.89s50.19-7.06,65.94,5.88c12.92,36.87,7.38,77.82,3.64,91.74-33.48,13.63-71.39,7.91-83.68,0,15.34-23.75,16.1-48.7,16.7-61.16S1111.51,1368.89,1111.51,1368.89Z"/><path class="cls-3" d="M1023.27,1567.89c-36.63,34.94-115.63,46.35-182.5,38.72s-120.52-73.24-153-113.9-30.24-42.58-29.69-125.73c5.07-28.2-3-70.71-3.43-73.08,6.8,33.23,47.43,76.59,47.43,76.59l21,39.71s9.15-21.4,20.66-45.77c127.5-49.58,278.62-15,278.62-15l27.71,47.65s2.61-6.11,17.51-46c24.78-19,38.63-59,38.63-59s3.64,96.29,8.82,123.09S1069.42,1520,1023.27,1567.89Z"/><path class="cls-4" d="M759.54,1391.62s141.27,18.29,248.56-11.53c14.52,22.83,19.13,21.21,19.13,21.21s-16.29,97.85-65.33,131.83c-18.41-20.91-20.1-54.61-20.1-54.61l16.84-14.27,2.76-24.38-20,25.19-92.15,5.07-28-22.45s5.94,27.34,26.94,35c-19.92,24.46-27.86,57.36-27.86,57.36s-55.9-45.63-72.37-126C756.19,1387.11,759.54,1391.62,759.54,1391.62Z"/><path class="cls-4" d="M654.52,1363.72s-44.37-37.31-53.55-93.27c-6.88-42,4.31-73,4.31-73l45.24-25.6s-8.17-47.25,25.22-75.55c52.81-43.95,137.52-87.85,137.52-87.85s50.07,30.88,127.45,2.77c5.13-9.93,4.48-12.57,4.48-12.57s120.7,53.1,140.08,90.07c14.59,32.26,20.46,65.53,20.46,65.53l36.56,6.47s35.71,110.78-33.85,190.44c-2-49.33-2.26-59.12-2.26-59.12s-15.07,41-38.63,59c-12.62,42.24-17.51,46-17.51,46l-27.71-47.65s-71.62-20.81-122.3-12.92l-4.78,5.64-19.2,2.73-7.36-4.92s-69.65-3.54-125,24.42c-13.21,29.72-20.66,45.77-20.66,45.77l-21-39.71S662.56,1329,656.33,1300C654.57,1331.81,654.52,1363.72,654.52,1363.72Z"/><path class="cls-5" d="M724.41,1227.88s2.54-38.45,28.6-47.07,45.2-2.6,45.2-2.6,24.3,12.78,19.08,45.3C792.48,1232.23,755,1241.18,724.41,1227.88Z"/><path class="cls-5" d="M934,1214.14s-4.11-27,17.65-44.8c26.42-13,69.43-12,76.28,43.06A139.61,139.61,0,0,1,934,1214.14Z"/><path class="cls-6" d="M1277.63,776.83c52.7-10.38,63.34,3.47,63.34,3.47s-61.52,36.93-127.38,84.94c-41.38,30.13-84.45,64.64-115.09,97.12,0,0,27.86,90.69,19.4,193.1-8.39,1.67-14.34,2.35-14.34,2.35s-5.15-51.69-20.43-73.57S982.71,1008.77,947.5,1000c-5.5,16.63-13.1,16-13.1,16s-76.46,12.54-114.56-4.16a36.46,36.46,0,0,1-3.71-5s-83.46,26.11-148.41,99.11c-15.74,26.38-16.49,64-15.86,70.56.23,2.34-9.71,3.24-22.6,3.42.4-.35.57-.52.57-.52s-13.49-114.83,23.37-190.15c-2.83-1.05-15.72-6.64-34.57-14.93-48-21.11-134.72-59.74-192.66-85.6-34.4-15.35-58.67-26.2-58.67-26.2s1.05-7.86,21.4-9.37c13.14-1,34.29.7,68.4,8.82,2.92.69,5.93,1.44,9,2.23q-3.52-1.9-7-3.84c-102.69-56.39-207.25-127-207.25-127s-20.31-32.32,85-8.89c-19.85-15-39.57-28.89-55.19-39.59-18.83-12.93-31.7-21.2-31.7-21.2s48.12-19,118.51,13.32c-76.08-70.52-112.9-138.37-112.9-138.37s64.64,23.61,122.36,66.67c-28.11-63.12-49-136.65-49.3-137.8,1.13,1,86.69,79.13,106.91,96.61-54.2-92.86-68.41-191.85-61.26-221.3,37.22,23.54,98.68,90.83,99.63,91.89-.07-1.16-5-73.62,5.16-90.9,29.83,31.34,67.26,77.44,67.26,77.44S533,268.7,555.87,248.78c13.5-6.54,54.94,41.07,84.35,113a666.18,666.18,0,0,1,23.21-67s21.71,22.42,40.43,67c5.53-31.36,5.19-155.71,49.71-173.84,20.42-4.79,52.52,70.33,61.49,140,5.49-30.77,18.26-49.76,18.26-49.76l13.23,32.32s18.86-149.86,79.62-157.81c32.23-5,40.29,82.88,46.56,178.26,12.62-10.15,17.91-31.52,17.91-31.52l12,19.26s30.29-131.25,77.54-125.58c17.08,7.3,29.21,131.45,26.51,185.43,26.06-37.32,41.28-50.2,41.28-50.2s1.11,72,2,89.14c40.57-77.37,113.33-145,127.47-152.09,13.73,47.68-25.76,197.61-31.8,213.61,29.11-24.11,53.48-40.95,53.48-40.95s-7.46,76-19,108c66-62.38,136.87-100.55,138-101.14-.44,1-27.92,62.12-66.77,119.39-5.64,8.3-11.51,16.53-17.58,24.48,25.55-11.48,39.3-15.69,46-17.24a27.46,27.46,0,0,1,5.57-.9s-.29.79-.83,2.2c-3.57,9.45-17.92,46.78-26.78,60.92,52.36-20.42,86.65-14.63,89-.3C1440,651.78,1362.76,687.82,1277.63,776.83Z"/><path class="cls-2" d="M823.27,931.68s78.17-19.39,117.56,2.05c17.46,43.56.14,79.46.14,79.46s-85.35,25.67-124.84-6.4C798.89,960.29,823.27,931.68,823.27,931.68Z"/><path class="cls-2" d="M655.17,1394s-43-5-60.63,10.12c-9.18,57-.91,81.55,5.33,91.29,35.15,7.78,56.82,7.94,85.3-8.68-31.38-27-30-92.73-30-92.73"/><path class="cls-7" d="M824.46,924.86s-19.93,24.13-8.33,81.93c-71.89,34.34-128.7,78.46-156.67,111-16,24.83-8.94,54.07-8.94,54.07l-20.69,7.48S612.22,1035.46,661.67,975C737.89,938.62,824.46,924.86,824.46,924.86Z"/><path class="cls-8" d="M814.58,936.42s-69.84,9.27-145.66,49.51c-28.14,59.23-37.92,161-26.35,186.58,10.19.84,9.42-.51,9.42-.51s-24.22-35.59,37.33-85.22c61.66-51,123.94-78.3,123.94-78.3S806.84,955.61,814.58,936.42Z"/><path class="cls-7" d="M893.78,919.25s38.68,3.47,47.05,14.48c7.38,33.6,6.67,66.25,6.67,66.25s101.63,40.77,135.63,84.26c22.46,35.56,20.43,73.57,20.43,73.57l12.81.36s20.58-123.73-17.87-195.81C1038.29,932.06,953.14,907.59,893.78,919.25Z"/><path class="cls-9" d="M982.72,927.75c2,.17,43.16,63.39,8.86,96.18,65.33,30.94,90.66,57.9,97.4,65.85,9.27-30.83,4-113.93-11.22-132.67C1035.19,935.45,982.72,927.75,982.72,927.75Z"/><path class="cls-9" d="M1069.77,952.3s29.37,84.74,6.79,126.27a432.07,432.07,0,0,0-67.95-50.29s24.41-56,7-92.58C1055.24,942.8,1069.77,952.3,1069.77,952.3Z"/><polygon class="cls-10" points="900.19 1159.23 876.7 1159.73 884.02 1323.26 893.32 1331.16 909.73 1310.04 928.9 1314.55 938.43 1293.84 922.85 1281.31 900.19 1159.23"/><path class="cls-10" d="M833.55,1435.94l23.23,20,77.16-5.89,26.6-25.07S915.51,1442,833.55,1435.94Z"/><path class="cls-10" d="M1081,1100.36c-11-18.1-76.66-63.67-125.25-77.64-37.23,18.58-100.66,28.55-148.72,1.18-54.08,24.2-112.65,79.72-112.65,79.72-25.51,25.4,4.08,28.43,4.08,28.43s44.2-44.42,97-38.89,59,44.07,59,44.07l40.39-.17s17.69-58.22,89.85-53.43,89.4,38.23,89.4,38.23,17,84.41-33.75,109.61c-38.24,19.49-104.51-6.71-104.51-6.71l2,46L963.37,1294l-5.58,11s56.9,12.7,75,20.59c10.42,13.87,15.26,23.61,15.26,23.61l27.25-56a156.3,156.3,0,0,0,18.11-73.26C1093.37,1178.51,1091.41,1117.39,1081,1100.36Z"/><path class="cls-10" d="M831.29,1234.84c-7.78,33-10.93,44-10.93,44s-50.44,26.15-85.6,30.54c-35.8-42.25-32.29-71.15-32.29-71.15S775.75,1261.69,831.29,1234.84Z"/><path class="cls-11" d="M1103.94,1281.2s12.65-19.77,13.25-41.76c3.17-31,12.53-47.93,12.53-47.93s10.4,22.28,10.11,40.62c-.39,19.56-13.63,76-30.38,93.59C1109.63,1293.91,1103.94,1281.2,1103.94,1281.2Z"/><path class="cls-12" d="M805.19,1032.06s-121.28,70.67-107.45,91c45.64-41.54,134.59-66.46,161,4,26.71-.28,32.36-1,32.36-1s20.25-49.85,73.88-52.86,104.87,30.38,104.87,30.38-51.93-55.18-115-72.81C899,1061.53,825.39,1043,805.19,1032.06Z"/><path class="cls-12" d="M946,1236.76s99.3,42.24,134.66-38.27c12.8,47.11-12.44,89.59-36.61,131.65l-7-11.93-69.27-17.56,2.15-5.85-26.26-29.53Z"/><path class="cls-13" d="M955.86,1250s81.75,29.93,121.14-29.55c-2.07,45.61-34.7,78-34.7,78S963.14,1291.82,955.86,1250Z"/><path class="cls-13" d="M804.82,1041.54s-61.77,34.89-61.44,44.36c37.73-19.66,92.17-12.94,112.15,14.27,29.56-1.45,43.4-.86,43.4-.86s24.24-51.33,119.88-25.65c-29.16-23.52-64.34-34.76-64.34-34.76S876.62,1080.24,804.82,1041.54Z"/><path class="cls-12" d="M713,1246.06c1.25.54,55.6,21.42,109.73-2.14-6.69,23.6-9,30.74-9,30.74s-51.17,19.06-76.73,20.4A162.6,162.6,0,0,1,713,1246.06Z"/><path class="cls-13" d="M732.66,1255.59s38.66,12.22,84.46-4.81c-5.23,15.67-8.44,21.3-8.44,21.3l-59.26,13.56S737.68,1270.93,732.66,1255.59Z"/><polygon class="cls-12" points="883.85 1166.99 894.42 1168.5 912.63 1283.28 927.28 1296.45 924.53 1306.92 906.19 1300.37 890.1 1312.26 883.85 1166.99"/><path class="cls-14" d="M931.6,1126.7c14.87-23.36,70.72-31.79,118.65-1.09,19,15.8,11.88,76.14-20.6,88.12-6.81-37.66-24.42-54.21-52.33-50.47-23.88,1.9-30.45,8.26-30.45,8.26s-19,25-12.85,42.62C930.38,1214.59,904.39,1168.88,931.6,1126.7Z"/><path class="cls-15" d="M929.67,1188s-10.81-41.73,5-66.27c15.79-15.1,54.6-23.78,96.46-4,18.71,8.87,30.12,39.15,22.84,58.54-4.23,11.26-11.4,21.2-18.44,27.17-4.66-27.1-19-44.51-50.25-46.66S936.56,1161.82,929.67,1188Z"/><path class="cls-14" d="M700.67,1147.6s22.82-39.55,80.65-35.23c35.6,2.94,70.77,50.53,70.77,50.53l-7.2,59L822,1223.26s12.42-32-22.08-54c-42.46-4.44-83.45,1.48-81.29,59.85C701,1223,688.56,1181.51,700.67,1147.6Z"/><path class="cls-15" d="M827.63,1216.74l17.33-1.36,7.13-52.48s-27.54-44.17-71.85-48.76c-48.74-1.7-74.64,30.14-76.79,50.45s4.46,41.8,10.9,48.38c5.18-34.49,28.36-50.26,58.53-49.16S830.29,1167.62,827.63,1216.74Z"/><path class="cls-12" d="M680.24,1097.28s-20,42-9.5,86.42,2.4,93.89,6.56,107.79c9.47,20.82,37.41,51.64,37.41,51.64l15.87,50.57-6.07,16.62-21-39.71s-39.66-39.58-44.32-75.91c2.93-71-7.28-104-7.22-122.7S659.42,1113.83,680.24,1097.28Z"/><polygon class="cls-13" points="828.12 1321.16 855.35 1311.01 877.13 1332.2 893.32 1331.16 909.73 1310.04 928.9 1314.55 937.29 1296.8 943.68 1300.18 936.7 1326.95 914.65 1320.68 895.85 1344.24 876.05 1344.93 852.18 1326.33 829.79 1331.79 828.12 1321.16"/><path class="cls-10" d="M1009.34,1387.45c.39-1.5,8.74,13.73,8.74,13.73s-15.61,75.68-54,118.8c-8.66-8.52-12.06-11.4-12.06-11.4l12.86-10.9L969.7,1458S994.14,1445.49,1009.34,1387.45Z"/><path class="cls-12" d="M1010.17,1394l4.51,6.82s-13.07,69-50,114.73c-5.5-6-6.68-8.38-6.68-8.38l8.42-7.14,6.07-40S1003,1436.29,1010.17,1394Z"/><path class="cls-12" d="M945.26,1431l-12.38,14.6-73.72,6-16.57-15.66S886.47,1445.32,945.26,1431Z"/><path class="cls-10" d="M761.57,1402.12s7.66,38.26,42.52,66.07c3.44,21,14.78,37.44,14.78,37.44l10.67,7.47-10,12.81s-42.15-30.76-62.41-110.05C759.71,1407.61,761.57,1402.12,761.57,1402.12Z"/><path class="cls-12" d="M761.66,1412.47l-1.83,5s19.4,72.63,58.24,103.59c3.81-6.27,5.79-7.52,5.79-7.52l-10.32-6s-12.87-26.46-13.38-37.32C783,1455.63,768.52,1431.86,761.66,1412.47Z"/><polygon class="cls-14" points="822.8 1302.41 757.05 1335.75 744.63 1354.11 763.3 1338.29 824.95 1315.51 822.8 1302.41"/><polygon class="cls-14" points="943.37 1305.43 1026.77 1331.11 1044.36 1360.14 1023.57 1336.04 940.26 1313.97 943.37 1305.43"/><polygon class="cls-15" points="848.3 1191.15 864.77 1156.52 904.47 1154.09 910.13 1144.03 835.71 1147.1 851.66 1161.14 848.3 1191.15"/><path class="cls-12" d="M653.35,1194.86l-.25.23a35.1,35.1,0,0,1-31.7,7.86,32.14,32.14,0,0,0-14.33-.15s22-21.7,42.46-24.25Z"/><path class="cls-14" d="M623.32,1230.13s-11.72,51.79,8.85,80.8c14,18.53,24.73,31.21,24.73,31.21l-5.12-43.25-8.46-55.32Z"/><polygon class="cls-11" points="625.15 1231.55 621.09 1262.1 633.38 1300.17 655.81 1327.76 656.33 1300.04 643.99 1246.49 625.15 1231.55"/><path class="cls-12" d="M1143.62,1165.4s-16.27,3.45-22.87,15.69-17.94-5.47-17.94-5.47l2.92-21.34S1121.25,1146,1143.62,1165.4Z"/><path class="cls-16" d="M882.28,1359l17.18-.35,8.16-12.93s57.89-6.45,102.67,9.67c-62.09,14.38-128.93,14.77-128.93,14.77Z"/><path class="cls-16" d="M1100.37,1335s-5.75,12.84-23,23.15c-12.27,53.79-21,64.81-21,64.81l-22.7-37.89,3.58,23s-15,95.84-71.38,134.24c-27.42-18.7-33.93-63.13-33.93-63.13L896.51,1481l2.22,115.31,16.12-15.11,30.92,14.3s107.86-26.32,156.23-166.38C1106.1,1369.91,1100.37,1335,1100.37,1335Z"/><path class="cls-11" d="M684.81,1093l-17.09,12.86s-10.84,63.59,1.57,90.87c9.61,33.22-.45,80.26,3,95.21,8.64,26.19,34.61,57.68,34.61,57.68l19.85,49.51,14-29.73-23.67-40.56s-30.89-37.29-26.27-93.28C692.41,1178.6,659.36,1158.11,684.81,1093Z"/><path class="cls-17" d="M645.11,973.38l-26.48.9c-76.51-33.64-251.33-111.8-251.33-111.8s1.05-7.86,21.4-9.37c39.77,4.26,76.48,15,76.48,15Z"/><path class="cls-17" d="M253,534.92s167.17,220.93,405,440.1l23.59-10S552.35,783,499.8,723.39,315.61,550.94,253,534.92Z"/><path class="cls-17" d="M741.42,940.14S595.21,685.7,568.49,560.72c-25.58-126-35.5-287.64-19.14-306.4s69.06,48,84.42,92.71,65.69,229.8,77.46,279.46S804.38,921,804.38,921Z"/><path class="cls-17" d="M859.38,908.61s-29-341.07-28.59-422.54,27-276.11,69-322.39c33.17-30.07,58.33-1.53,63.1,43.31S977,432.54,969.55,510.24s-65.67,397.81-65.67,397.81Z"/><path class="cls-17" d="M964.24,920.45s70.2-196.35,90.74-252.86,72.65-200.39,90-244.46,128.22-155.57,128.22-155.57S1288,306.88,1267,407.8,1173.33,670,1153.56,704.3s-131.15,229.42-131.15,229.42Z"/><path class="cls-17" d="M1091.15,948.4s155.08-236.08,189.63-274.71c84.29-52.73,157.44-61.44,166-40.2-59.82,53-201.84,167.76-229.2,192.81S1091.15,948.4,1091.15,948.4Z"/><path class="cls-18" d="M473.92,434.68s-.26-71.89,4.8-86.79c33.19,30.82,67.62,73.33,67.62,73.33s17.77,129,28.57,168.16C531.12,501.53,473.92,434.68,473.92,434.68Z"/><path class="cls-18" d="M644.67,362.88s9.59-60.63,18.76-68.09c29.16,28.66,42.92,63,42.92,63s0,185,28.32,321.39C703.24,596.16,657.38,409.87,644.67,362.88Z"/><polygon class="cls-18" points="815.06 327.94 827.76 278.46 846.55 310.5 829.75 408.8 815.06 327.94"/><polygon class="cls-18" points="973.03 342.79 990.64 299.43 1001.43 323.44 981.95 404.78 973.03 342.79"/><path class="cls-18" d="M1102.24,385.36l45.7-57,2,89.14-53.24,111.64S1102.69,426.24,1102.24,385.36Z"/><path class="cls-19" d="M1446.79,633.49c-2.49,6.68-14.35,15.71-32.57,28.85-30.17,21.73-77.74,54.66-128.9,106.57q-3.83,3.89-7.69,7.92c5.15-1,9.9-1.8,14.28-2.38,40.4-5.43,49.06,5.85,49.06,5.85s-10,6-26.22,16.28c-24,15.27-61.83,40-101.16,68.66-74.77-70.68-201.77-151.66-385.12-140.62-174.79,10.52-295.78,77.45-369.35,135.7-17.64-9.68-35.34-19.79-52.56-29.89-83-48.67-154.69-97.09-154.69-97.09S246,724,256.9,719c9.37-4.31,31.2-5.42,80,5.44-19.85-15-39.57-28.89-55.19-39.59,150.59,8.14,385.8.39,616.71-90,171.5-67.12,330.08-59.49,453-30.55,9.7,2.29,19.2,4.71,28.44,7.24l4.74,1.3c-3.57,9.45-17.92,46.78-26.78,60.92C1410.15,613.37,1444.44,619.16,1446.79,633.49Z"/><path class="cls-18" d="M1243.32,485.08s50-43,55.82-47c-4.69,61.46-19,108-19,108L1158.55,692.47Z"/><polyline class="cls-18" points="1333.81 588.81 1337.23 587.61 1385.4 570.67 1357.79 633.79 1266.69 680.99"/><path class="cls-18" d="M457.1,861.93c-11.57,9.24-21.94,18.24-31.13,26.75-34.4-15.35-58.67-26.2-58.67-26.2s1.05-7.86,21.4-9.37C401.84,852.14,423,853.81,457.1,861.93Z"/><path class="cls-18" d="M328.64,467.48c.82,3.36,35.44,109.59,53.41,139.15,99.77,89.92,157,154.63,157,154.63L432.29,554.63Z"/><path class="cls-20" d="M1341,780.3s-10,6-26.22,16.28a284.26,284.26,0,0,0-22.84-22.13C1332.31,769,1341,780.3,1341,780.3Z"/><path class="cls-19" d="M1414.22,662.34c-30.17,21.73-77.74,54.66-128.9,106.57-72-58.91-208.83-115.81-462.83-82.09-202,57-324.67,106.76-415.93,143.61-83-48.67-154.69-97.09-154.69-97.09S246,724,256.9,719c31.16,3.91,119.61,12.26,242.43.91l35.9,41.52-20.63-43a1430.84,1430.84,0,0,0,316.65-70c150.29-51.63,271.56-64.92,371.32-54.54l-38.1,95,75-90a525.56,525.56,0,0,1,77.86,19.45c-9.2,14.68-22.77,34.54-42.33,59.67,17.67-11.88,57.72-29.16,88.59-41.7A524.23,524.23,0,0,1,1414.22,662.34Z"/><path class="cls-21" d="M1138.58,1372.53s24.62,83.08-24.38,100.47c40.3-1.36,59.93-3.76,59.93-3.76s-1.55-70.46-10.72-97.34C1152.77,1371,1138.58,1372.53,1138.58,1372.53Z"/><path class="cls-22" d="M1160.68,1372.48s7.81,77.89,6.69,98.07c-14.91,1.51-30.51,4.6-30.51,4.6s24.71-67,9.27-105.52C1159.1,1371.8,1160.68,1372.48,1160.68,1372.48Z"/><path class="cls-22" d="M1120.64,1374s40.81,6.4,49.49,11.15c5.57,30.2,9.36,75.89,9.36,75.89s3-66.3-4.32-88.08C1162.78,1370.41,1120.64,1374,1120.64,1374Z"/><path class="cls-23" d="M1113.76,1380.81l19.49,1s11.53,63.6-13.36,80.56a31.29,31.29,0,0,1-15.24-5.17S1115.89,1436.36,1113.76,1380.81Z"/><path class="cls-23" d="M618.39,1398.76s7.5,10.69-.55,16.73c21.7-3.66,36.08,0,36.08,0l-1.4-18.58S633.14,1392.84,618.39,1398.76Z"/><path class="cls-23" d="M607.26,1431.82s15.94-5,22.6-4.43c-.4,20.11-1.29,30.94-1.29,30.94l-21.74,4.08S614.46,1441.22,607.26,1431.82Z"/><path class="cls-23" d="M644.76,1429.88l9.59.8s5.36,26.45,12.73,33.77c10,10.9,11,13.92,11,13.92s-37.31,9.92-68.74,9.42c-6.25-5.55-3.86-9.13-3.86-9.13s32.29-4.88,37.91-12A186.55,186.55,0,0,1,644.76,1429.88Z"/><path class="cls-24" d="M943.17,949.78s-22.35-7.43-61.33,13.55-68.57-3.8-68.57-3.8l3.16,36.88s27.53-2.69,70-13.46,57.94,4.79,57.94,4.79Z"/><path class="cls-25" d="M811.74,974.24s27.85,18.4,64.45-.36,67.88-13.34,67.88-13.34l0,17.52s-35.84-13.38-68.72.48-59.11,10.27-59.11,10.27Z"/><path class="cls-26" d="M629.52,1107.38c13.7-12.08,27.71-23.7,42-35.07s28.77-22.4,43.61-33,30-20.76,45.77-30.1q11.79-7,24.12-13.19a219,219,0,0,1,25.41-10.89,3,3,0,1,1,2,5.67h0a212.46,212.46,0,0,0-24.82,10.34q-12.15,5.93-23.89,12.75c-15.65,9.07-30.83,19-45.71,29.39s-29.43,21.25-43.75,32.42-28.42,22.65-42.14,34.5h0a1.88,1.88,0,0,1-2.47-2.83Z"/><path class="cls-26" d="M1114.83,1089.16c-11.83-11-24.44-21.39-37.33-31.26s-26.25-19.16-40-27.77q-10.29-6.5-21-12.37c-7.07-4-14.29-7.64-21.6-11.13S980.19,1000,972.68,997s-15.2-5.46-22.93-7.73l0,0a3,3,0,1,1,1.7-5.75h0c7.89,2.42,15.7,5.1,23.34,8.16s15.18,6.38,22.54,10,14.65,7.44,21.76,11.53,14.15,8.3,21,12.75c13.8,8.86,27.13,18.41,40,28.47q9.67,7.56,19,15.53c6.24,5.32,12.34,10.73,18.29,16.45a1.88,1.88,0,0,1-2.58,2.73Z"/><path class="cls-26" d="M808.17,949.9c-3.58.26-7.27.76-10.91,1.28S790,952.33,786.35,953s-7.24,1.43-10.85,2.21-7.19,1.71-10.77,2.63c-7.15,1.89-14.24,4-21.24,6.34s-14,4.88-20.79,7.65A286.27,286.27,0,0,0,683,991.28a224.5,224.5,0,0,0-35.66,25.77l-.06.05a3,3,0,0,1-4-4.5l.12-.11,4.44-3.5,2.22-1.74,2.26-1.68c1.52-1.11,3-2.25,4.55-3.34l4.64-3.19c6.25-4.16,12.59-8.16,19.14-11.8,3.24-1.88,6.58-3.57,9.88-5.34s6.68-3.37,10.09-4.91c6.75-3.22,13.61-6.17,20.56-8.92a412.92,412.92,0,0,1,42.51-14q5.38-1.51,10.82-2.88c3.61-.93,7.24-1.84,10.88-2.67,7.31-1.66,14.56-3.24,22.07-4.54a3,3,0,1,1,1,5.92,2.85,2.85,0,0,1-.29,0Z"/><path class="cls-26" d="M1106.77,997.13c-6-3.7-12.45-7.08-18.85-10.34-3.24-1.59-6.44-3.25-9.74-4.72s-6.55-3-9.87-4.44c-13.24-5.77-26.73-11-40.48-15.45s-27.61-8.62-41.74-11.7c-7-1.71-14.15-2.94-21.26-4.22-3.54-.7-7.13-1.12-10.71-1.6s-7.15-.95-10.74-1.36l-.11,0a3,3,0,1,1,.69-6l.3.05c7.14,1.57,14.32,2.84,21.43,4.45s14.24,3.09,21.28,4.94l5.3,1.31c1.77.44,3.55.84,5.29,1.34l10.54,2.88c3.53.89,7,2,10.48,3s7,2,10.43,3.21l10.37,3.43,10.28,3.69c3.44,1.19,6.82,2.56,10.23,3.83s6.79,2.66,10.16,4c6.76,2.73,13.41,5.71,20.07,8.7s13.16,6.23,19.73,9.78a3,3,0,1,1-2.86,5.28l-.14-.08Z"/><path class="cls-27" d="M800.45,929s-18.3,56.64,1.72,83.74c13.53-4.33,15.6-7.34,15.6-7.34s-14.62-43,7.84-83.86C812.82,922.33,800.45,929,800.45,929Z"/><path class="cls-27" d="M893.75,914.07c1.85.15,50-.08,65.26,7.26,24.47,54.34,5.4,87.33,5.4,87.33l-16.28-6.48s1.12-58.77-8.17-70.75c-37.28-12.42-53.79-10.51-53.79-10.51Z"/><path class="cls-28" d="M648.55,1174.48s-26.84,7.8-43.67,24.9c-14.94,59.64-3.42,116.06,51.46,169.9"/><path d="M1102.82,1150.06c1.06-.15,1.86-.23,2.76-.31s1.75-.16,2.62-.2c1.74-.11,3.47-.16,5.21-.15a77.67,77.67,0,0,1,10.51.72,60.19,60.19,0,0,1,10.58,2.52,41.61,41.61,0,0,1,10.18,5.35h0l1.36,1,.61,1.64a194.47,194.47,0,0,1,11.66,50.7,177.2,177.2,0,0,1-3.13,51.76l-1.44,6.31c-.51,2.1-.9,4.23-1.57,6.27l-1.85,6.2-.93,3.09c-.3,1-.61,2.06-1,3.06l-4.47,12.09-5.2,11.76A325.75,325.75,0,0,1,1113,1356l-4.74-3.2a320.24,320.24,0,0,0,23.83-44l4.68-11.55,4-11.8c.35-1,.62-2,.88-3l.79-3,1.59-6c.6-2,.9-4,1.32-6l1.19-6.07a167.55,167.55,0,0,0,1.47-49.06,183.84,183.84,0,0,0-12.45-47.35l2,2.59h0a30.13,30.13,0,0,0-7-3.62,49.4,49.4,0,0,0-8.27-2,66.14,66.14,0,0,0-8.83-.6c-1.5,0-3,0-4.48.13-.75,0-1.49.1-2.22.16s-1.52.16-2.06.24Z"/><path class="cls-29" d="M620.75,1276.05a76.37,76.37,0,0,1-2.85-14c-.54-4.72-.79-9.47-.93-14.24a123.6,123.6,0,0,1,.37-14.38l.15-1.81.23-1.82c.18-1.21.3-2.41.57-3.63s.46-2.42.75-3.64.7-2.43,1.06-3.65h0a3.4,3.4,0,0,1,4.18-2.36,3.27,3.27,0,0,1,1.32.72l.11.09a72.33,72.33,0,0,1,6.5,6.36,76,76,0,0,1,5.61,7.07,82,82,0,0,1,4.79,7.59q1.1,2,2.1,4c.68,1.37,1.29,2.66,1.92,4.2a3,3,0,0,1,.18.58l6,30.38,3,15.19,2.91,15.21-5.3,1.11-3.42-15.1-3.35-15.12L640,1248.52l.17.59c-.47-1.12-1.1-2.43-1.71-3.63s-1.29-2.44-2-3.64c-1.36-2.4-2.88-4.71-4.46-7a71.33,71.33,0,0,0-5.1-6.46,65.47,65.47,0,0,0-5.74-5.8l5.61-1.55h0a85.32,85.32,0,0,0-2.65,13.1c-.63,4.52-1,9.13-1.36,13.76-.16,2.31-.3,4.64-.43,7l-.31,7C621.75,1266.59,621.43,1271.28,620.75,1276.05Z"/><path class="cls-29" d="M1105.63,1286.65c-3.13-1.34-.86-.38-1.56-.69h0v0l0-.07.05-.13.09-.26.19-.51.37-1,.68-2.1c.42-1.41.84-2.83,1.23-4.26.77-2.86,1.46-5.75,2.09-8.66q1.83-8.76,3.29-17.62t2.56-17.77c.76-5.93,1.52-11.9,2.11-17.82a2.71,2.71,0,0,1,.17-.76l0-.06,10.57-28.2v0a3.48,3.48,0,0,1,4.48-2,3.52,3.52,0,0,1,2.1,2.2,110.42,110.42,0,0,1,3.26,13.07c.83,4.37,1.37,8.79,1.76,13.22s.6,8.85.53,13.28a71,71,0,0,1-1.36,13.23c-.86-4.38-1.45-8.69-2.18-13s-1.39-8.55-2.31-12.77-1.89-8.4-2.95-12.56-2.15-8.36-3.39-12.28l6.59.14-10.92,28.06.2-.82c-.76,6-1.6,12-2.58,18s-2.09,11.93-3.3,17.87-2.54,11.86-4.19,17.72c-.82,2.93-1.7,5.85-2.68,8.75-.49,1.45-1,2.9-1.58,4.33l-.88,2.13-.48,1.06-.23.53-.12.26-.06.14,0,.06,0,0h0C1106.5,1287,1108.76,1288,1105.63,1286.65Z"/><path class="cls-30" d="M657,1299.61s12.56,47.83,44.37,69.66c19,37.12,22.37,43.16,22.37,43.16L745,1364.24s52.93-24.45,122.09-24.5"/><path class="cls-30" d="M901.74,1338.84s74.06-6.44,120.82,11.83c18.92,32.54,26.38,46.84,26.38,46.84s15.12-34.77,19-46.7c22.11-14.74,37.11-56.73,37.11-56.73"/><path class="cls-30" d="M761.67,1389.43s127.36,25.62,244.47-10.8c15.9,22,21.12,21.28,21.12,21.28s-15,91.77-64.17,133.46c-21.27-19.47-21.94-56-21.94-56l16.67-14.12,3.89-20.34L943,1464.23l-92.85,7.09L821,1449s6.55,19,11.32,23.82a92.59,92.59,0,0,0,13.26,9.21s-19.17,53.35-25.46,58c-31.22-15.13-72.35-124.81-72.35-124.81A144.55,144.55,0,0,1,761.67,1389.43Z"/><path class="cls-29" d="M913.59,1142.81l-9.4,19,.42-2.36L926,1281.11l-1.26-2.12,21.49,17.23,1.81,1.44-.63,2.23L939.85,1327l-.9,3.21-3.24-.73-22.5-5.06,3.51-1.24-17.84,22.51-1,1.26-1.61.06-22.45.81-1.5,0-1.07-1-19.73-19.22,3.3.89-23.95,6-3.27.82-.94-3.25-7.87-27.29-.54-1.88,1.32-1.45,15.82-17.35-.9,2L847.93,1162l.89,2.73-13.19-17.46a1.54,1.54,0,0,1,2.26-2.06L854,1160l1.08,1-.19,1.74-13.45,124.12-.12,1.14-.77.84-15.82,17.35.77-3.33,7.87,27.29-4.21-2.42,23.94-6,1.9-.47,1.4,1.36,19.73,19.21-2.57-1L896,1340l-2.62,1.33,17.85-22.51,1.36-1.72,2.15.48,22.49,5.06-4.14,2.47,7.57-27.09,1.18,3.68-21.49-17.23-1-.83-.23-1.3-21.39-121.67-.24-1.37.66-1,11.75-17.64a2.15,2.15,0,0,1,3.71,2.15Z"/><path d="M701.06,1146.11a44.45,44.45,0,0,1,4.7-8.08,70,70,0,0,1,5.83-7.11,79.36,79.36,0,0,1,6.65-6.32c2.34-2,4.79-3.81,7.3-5.58a132.85,132.85,0,0,1,15.83-9.73A100.88,100.88,0,0,1,759,1102a86.53,86.53,0,0,1,19.26-3.63,72.29,72.29,0,0,1,20.11,1.6c1.65.43,3.32.77,4.94,1.29s3.22,1.11,4.82,1.69a22,22,0,0,1,2.35,1l2.3,1.07,2.31,1.08c.74.4,1.46.84,2.19,1.25,1.46.85,2.92,1.7,4.33,2.6l4.05,2.94c.66.5,1.37,1,2,1.5l1.85,1.63q1.86,1.64,3.68,3.3a9.77,9.77,0,0,1-13,14.6l-.38-.33c-7.86-6.79-16.45-12.22-26.06-14.68-.6-.15-1.18-.39-1.79-.49l-1.83-.35a30.21,30.21,0,0,0-3.69-.61c-1.24-.12-2.48-.34-3.74-.4l-3.8-.13a76.5,76.5,0,0,0-15.51,1.71c-1.3.31-2.61.56-3.91.91l-3.9,1.09-3.87,1.28c-1.3.42-2.57,1-3.86,1.43a141,141,0,0,0-15.17,7c-9.86,5.48-19.53,11.36-30.85,16.41h0a.53.53,0,0,1-.7-.27A.54.54,0,0,1,701.06,1146.11Z"/><path d="M1053.59,1131.89c-5.93-2-11.3-4.31-16.61-6.63l-7.81-3.58c-2.58-1.19-5.11-2.44-7.7-3.56a143,143,0,0,0-15.67-5.8c-1.33-.36-2.64-.8-4-1.11l-4-1-4-.78c-1.32-.24-2.65-.4-4-.61a77,77,0,0,0-15.65-.49l-3.8.42c-1.26.16-2.48.47-3.73.69a30.38,30.38,0,0,0-3.65.9l-1.81.49c-.61.15-1.17.44-1.76.64-9.48,3.2-17.71,9.33-25.11,16.77l-.32.33a9.07,9.07,0,0,1-13.17-12.48c1.09-1.21,2.21-2.4,3.33-3.6l1.68-1.78c.57-.59,1.23-1.11,1.84-1.67l3.73-3.27c1.32-1,2.68-2,4-3,.68-.47,1.35-1,2.05-1.43l2.18-1.28,2.19-1.26a22.72,22.72,0,0,1,2.23-1.2c1.53-.72,3.07-1.41,4.61-2.1s3.18-1.15,4.78-1.72a71.81,71.81,0,0,1,19.77-3.39,87,87,0,0,1,19.45,1.87,101.84,101.84,0,0,1,18.13,5.65,132.73,132.73,0,0,1,16.63,8.27c2.65,1.55,5.27,3.14,7.76,4.91a77.36,77.36,0,0,1,7.17,5.71,68.91,68.91,0,0,1,6.42,6.59,43.86,43.86,0,0,1,5.34,7.69.54.54,0,0,1-.23.72.54.54,0,0,1-.41,0Z"/><path d="M817.81,1220.48c-.58-4.23-1.24-8.31-2.12-12.27-.45-2-.93-3.93-1.56-5.83a48.38,48.38,0,0,0-2.23-5.53,44.58,44.58,0,0,0-2.93-5.12,45.89,45.89,0,0,0-3.61-4.62,49,49,0,0,0-9-7.62l.9.34h0a101.64,101.64,0,0,0-25.69-1.81c-8.47.58-16.83,2.74-23.78,7.16a38.4,38.4,0,0,0-15.13,18.9c-3,7.76-4,16.34-4,24.88h0l-1.73-2.83c5.35,3,11.65,4.73,18,5.75a109.31,109.31,0,0,0,19.61,1.17,147.52,147.52,0,0,0,19.76-1.83c3.28-.54,6.54-1.17,9.75-2a57.25,57.25,0,0,0,9.41-3.09h0a.5.5,0,0,1,.44.9,57.47,57.47,0,0,1-9.4,3.81c-3.21,1-6.47,1.91-9.75,2.68a149.46,149.46,0,0,1-20,3.22,112.47,112.47,0,0,1-20.44.16,59.78,59.78,0,0,1-20.38-5.08l-1.67-.79-.06-2h0c0-9.12,1.14-18.45,4.63-27.21a47.07,47.07,0,0,1,7.07-12.25,42.93,42.93,0,0,1,10.63-9.44c8.1-5.06,17.47-7.3,26.6-7.87a107.34,107.34,0,0,1,27.13,2.11h0l.35,0,.55.29a39.92,39.92,0,0,1,10.73,8.31,42.94,42.94,0,0,1,4.15,5.44,44.55,44.55,0,0,1,3.13,6.06,42.72,42.72,0,0,1,2.1,6.43,41.29,41.29,0,0,1,1.11,6.61,30.44,30.44,0,0,1-1.62,13.11.51.51,0,0,1-1-.11Z"/><path d="M934.38,1214.05a30.61,30.61,0,0,1-3.1-12.85,40.44,40.44,0,0,1,.36-6.68,41.93,41.93,0,0,1,1.36-6.63,44.6,44.6,0,0,1,2.42-6.37,42.18,42.18,0,0,1,3.51-5.89,39.86,39.86,0,0,1,9.71-9.47l.51-.34.34-.09h0a107.34,107.34,0,0,1,26.72-5.17c9.14-.48,18.71.69,27.32,4.8a43.15,43.15,0,0,1,11.64,8.17,47.57,47.57,0,0,1,8.42,11.37c4.45,8.31,6.64,17.45,7.68,26.5h0l.18,2-1.58,1a60,60,0,0,1-19.67,7.36,113.84,113.84,0,0,1-20.33,2.16,150.1,150.1,0,0,1-20.24-.93c-3.35-.39-6.69-.88-10-1.55a57,57,0,0,1-9.77-2.73.5.5,0,0,1-.28-.65.51.51,0,0,1,.62-.29h0a56.62,56.62,0,0,0,9.7,2c3.28.44,6.6.7,9.91.86a145.85,145.85,0,0,0,19.84-.43,108.49,108.49,0,0,0,19.35-3.38c6.24-1.74,12.3-4.16,17.28-7.77l-1.41,3h0c-.9-8.5-2.9-16.9-6.78-24.27a38.37,38.37,0,0,0-17.18-17.06c-7.41-3.61-16-4.8-24.44-4.42a102,102,0,0,0-25.32,4.71h0l.85-.44a49,49,0,0,0-8.08,8.6,43.39,43.39,0,0,0-3.07,5,46.31,46.31,0,0,0-2.33,5.42,48.87,48.87,0,0,0-1.59,5.75c-.4,2-.66,4-.88,6-.43,4-.62,8.16-.72,12.43v0a.51.51,0,0,1-1,.22Z"/><circle cx="779.27" cy="1206.08" r="20.5"/><circle class="cls-31" cx="768.55" cy="1197.42" r="8.66"/><circle cx="970.02" cy="1195.73" r="20.5"/><circle class="cls-31" cx="959.31" cy="1187.07" r="8.66"/><path class="cls-28" d="M655.17,1394s-24.69-6.36-60.63,10.12c-11.59,53.08,4.42,94.74,4.42,94.74s41.91,11.33,85.16-10.11"/><path class="cls-32" d="M591.82,1431.76s15.68-14.07,67.76-8.92"/><path class="cls-32" d="M639,1423.33l-3.24,39.23s-12.09,6.9-40.28,9.51"/><path class="cls-28" d="M1111.4,1370.64s28-8.68,65.55,3.79c17.3,51.49,5.93,94.66,5.93,94.66s-40.43,15.82-85.76-.77"/><path class="cls-32" d="M1182.66,1401.65s-17.12-12.28-68.33-1.47"/><path class="cls-32" d="M1134.88,1398.41l7.5,38.65s12.77,5.54,41.09,5.06"/><path class="cls-28" d="M633.48,1179.35s-23.27-80,24.51-203.29c65.18-32.65,134-53.6,212.65-62.5s207,37.92,227.73,49.6c27.63,60.24,20.36,170.12,15.66,194.18"/><path d="M945.71,995.7a385.67,385.67,0,0,1,47.18,21.42c7.64,4,15.09,8.31,22.51,12.68s14.65,9,21.84,13.75,14.26,9.62,21.22,14.69c3.47,2.54,6.94,5.09,10.35,7.72l2.56,2c.86.71,1.74,1.39,2.57,2.12,1.68,1.46,3.3,3,4.84,4.57a74,74,0,0,1,14.71,22,72.92,72.92,0,0,1,4.15,12.63q1.45,6.29,2.8,12.58c1.8,8.4,3.49,16.82,4.85,25.36.34,2.14.66,4.28.9,6.48.08.55.11,1.06.17,1.59l.15,1.73c.06,1.15.1,2.26.1,3.34.05,4.35,0,8.62,0,12.91-.22,17.13-.41,34.22-.33,51.32q0,12.83.28,25.64c.1,8.57.44,17,1,25.55,1,17,2.51,34.08,3.87,51.15s2.7,34.17,3.72,51.29l.7,12.85.58,12.86.23,6.43.12,3.22c0,1.1,0,2.22,0,3.33a72.48,72.48,0,0,1-1.37,13.3q-.64,3.3-1.6,6.51l-.51,1.6-.54,1.55-1.09,3.08c-.36,1-.71,2.06-1.1,3.08l-1.22,3c-.83,2-1.58,4-2.51,6a249.15,249.15,0,0,1-11.73,23.18,409.51,409.51,0,0,1-28.58,43.11c-5.17,6.89-10.52,13.64-16,20.3-2.75,3.3-5.49,6.62-8.3,9.88l-2.1,2.45c-.7.82-1.46,1.62-2.18,2.43-1.48,1.61-2.9,3.27-4.47,4.79a161,161,0,0,1-42,31.08,165.4,165.4,0,0,1-24.16,10.13,161.88,161.88,0,0,1-25.49,6.09c-8.6,1.32-17.16,2.24-25.79,2.93s-17.28.94-25.94,1-17.32-.44-26-1.19c-2.16-.2-4.31-.46-6.47-.69l-3.24-.35-3.22-.47c-2.15-.32-4.3-.6-6.44-1l-6.41-1.16c-2.15-.36-4.26-.86-6.38-1.33s-4.26-.89-6.36-1.46c-4.2-1.12-8.43-2.18-12.56-3.54l-3.12-1-1.56-.48-1.54-.56-6.14-2.22a63.78,63.78,0,0,1-6.2-2.55c-1-.48-2-1-3-1.51s-1.9-1.07-2.85-1.61a287.7,287.7,0,0,1-43.17-28.95,291.51,291.51,0,0,1-37.19-36.33,461.82,461.82,0,0,1-31.1-41.42c-2.41-3.56-4.78-7.15-7.15-10.74l-3.51-5.39-1.76-2.7c-.58-.9-1.21-1.89-1.78-2.86a74.26,74.26,0,0,1-9.33-25.38c-.39-2.22-.65-4.53-.82-6.72s-.35-4.33-.48-6.48c-.27-4.32-.47-8.63-.64-12.93-.33-8.61-.49-17.2-.59-25.79-.19-17.17-.07-34.32.15-51.46l.42-25.72c.18-8.6.5-17.18.8-25.72.61-17.09,1-34.08.17-51q-.69-12.66-2.33-25.21l-.89-6.27-1-6.24-.55-3.16c-.19-1.12-.37-2.25-.51-3.38-.29-2.24-.47-4.57-.55-6.76-.18-4.26-.38-8.61-.33-13s.34-8.82.77-13.18,1.08-8.66,1.77-12.93a78.08,78.08,0,0,1,3.31-13.08c.39-1.06.75-2.12,1.19-3.15s.85-2.08,1.33-3.1l.69-1.53a11.15,11.15,0,0,1,.69-1.54c.47-1,1-2,1.55-3a74.31,74.31,0,0,1,7.5-11.16l2.19-2.56c.76-.81,1.51-1.65,2.3-2.45s1.6-1.6,2.38-2.34l2.36-2.2c3.14-3,6.34-5.83,9.55-8.71,6.41-5.74,13-11.28,19.67-16.74s13.5-10.7,20.47-15.75c27.8-20.31,57.71-38,89.88-50.75l2.09,5.26c-31.52,12.67-60.9,30.33-88.23,50.56-6.86,5-13.52,10.33-20.13,15.69s-13,11-19.33,16.66c-3.15,2.86-6.3,5.73-9.37,8.67l-2.32,2.19c-.78.73-1.46,1.44-2.19,2.17s-1.38,1.49-2.08,2.24l-2,2.33a67.39,67.39,0,0,0-6.74,10.17c-.48.9-1,1.8-1.39,2.72a8.69,8.69,0,0,1-.71,1.35c-.22.47-.39.94-.59,1.41-.4.94-.75,1.9-1.09,2.86s-.65,1.93-1,2.89a65.61,65.61,0,0,0-2.46,11.91q-.71,6.32-1.13,12.58c-.27,4.18-.35,8.32-.3,12.47s.28,8.36.48,12.65c.08,2.09.22,4,.48,6,.12,1,.27,2,.44,3l.54,3.17,1.06,6.43.91,6.44q1.66,12.93,2.33,25.93c.87,17.32.38,34.6-.28,51.72-.32,8.56-.66,17.09-.86,25.61l-.47,25.64c-.26,17.1-.42,34.19-.27,51.26.08,8.53.23,17.06.52,25.56.17,4.25.36,8.49.61,12.72.12,2.11.3,4.21.45,6.32s.37,4,.72,6a65.83,65.83,0,0,0,8.25,22.58c.51.88,1,1.69,1.6,2.59l1.74,2.69,3.48,5.37c2.35,3.56,4.68,7.13,7.06,10.66a465.84,465.84,0,0,0,30.41,40.79,276.74,276.74,0,0,0,78,63.84l2.74,1.55c.88.48,1.78.93,2.7,1.36a58.82,58.82,0,0,0,5.66,2.35l5.92,2.17,1.48.54,1.51.47,3,.95c4,1.34,8.07,2.37,12.13,3.47,2,.57,4.1,1,6.15,1.45s4.1,1,6.18,1.31l6.22,1.15c2.08.35,4.17.63,6.26,1l3.13.47,3.14.35c2.1.23,4.2.49,6.3.7q12.61,1.14,25.32,1.26t25.39-.84c8.43-.64,16.92-1.52,25.24-2.77a154,154,0,0,0,24.43-5.74,158,158,0,0,0,23.19-9.61,154.25,154.25,0,0,0,40.34-29.65c5.8-6,11.29-12.56,16.76-19.08s10.73-13.22,15.87-20a404.05,404.05,0,0,0,28.3-42.33,244.79,244.79,0,0,0,11.54-22.58c.91-1.91,1.65-3.88,2.46-5.82l1.19-2.93c.38-1,.72-2,1.07-3l1.06-3,.53-1.48.47-1.46q.88-2.94,1.49-6a66.57,66.57,0,0,0,1.3-12.2c0-1,0-2,0-3.09l-.1-3.2-.22-6.4-.54-12.79-.67-12.8c-1-17.06-2.26-34.11-3.61-51.17s-2.79-34.13-3.76-51.29c-.5-8.56-.83-17.22-.91-25.77s-.21-17.15-.22-25.72c0-17.15.18-34.3.44-51.41,0-4.27.12-8.55.08-12.77,0-1.05,0-2.08-.08-3.07s-.17-2-.29-3.07c-.23-2.06-.53-4.15-.86-6.24-1.31-8.37-3-16.75-4.74-25.09q-1.33-6.26-2.75-12.5a69.13,69.13,0,0,0-3.83-11.74,68.13,68.13,0,0,0-13.65-20.46c-1.44-1.48-3-2.88-4.51-4.23-.77-.68-1.59-1.31-2.39-2l-2.52-1.94c-3.37-2.59-6.81-5.11-10.25-7.62-6.91-5-14-9.74-21.11-14.4a500.53,500.53,0,0,0-44.19-25.55c-3.77-2-7.61-3.79-11.44-5.64l-5.8-2.63c-1.93-.88-3.86-1.76-5.82-2.56-7.78-3.4-15.73-6.33-23.72-9.05Z"/><path class="cls-33" d="M820.35,930.37s-23.26,38.12.07,81.79c52,24.6,113.86,4,120.13-1.88,11.24-25.57,4.89-70.55.12-76C925,924.94,859.31,918.38,820.35,930.37Z"/><path d="M936.3,938.63c-7.23-.22-14.74,0-22.1.35s-14.75,1.09-22.05,2.1a184.41,184.41,0,0,0-21.57,4.25,105.3,105.3,0,0,0-20.23,7.44L852.8,949l-.22,5.15c0,1.71-.05,3.43,0,5.14s.08,3.42.23,5.11L853,967l.28,2.53a79,79,0,0,0,1.82,9.91c.43,1.6.88,3.19,1.43,4.71.26.77.56,1.51.86,2.24.16.35.31.72.47,1s.36.72.41.82l-3.64-2.2c3.81.18,7.71.3,11.56.36s7.73.08,11.57,0,7.68-.22,11.44-.52c1.88-.15,3.75-.33,5.55-.6a35.46,35.46,0,0,0,5.09-1l-3.09,3.28c.59-2.27,1.14-4.55,1.52-6.87s.67-4.64.87-7a66,66,0,0,0,.13-7c0-1.17-.11-2.34-.22-3.49-.06-.57-.12-1.15-.2-1.71s-.18-1.17-.25-1.57l2.61,2.53c-.28-.08-.78-.2-1.21-.28s-.9-.17-1.36-.25c-.92-.14-1.86-.26-2.8-.34a43.63,43.63,0,0,0-5.72-.12,44.49,44.49,0,0,0-5.74.59,46.76,46.76,0,0,0-5.66,1.3l-.08,0a2.18,2.18,0,0,1-1.4-4.12,53.19,53.19,0,0,1,6-2.09,51.11,51.11,0,0,1,12.74-1.9c1.09,0,2.18,0,3.28,0,.55,0,1.1.06,1.67.11s1.08.11,1.79.23l2,.35.59,2.19c.21.8.35,1.4.49,2.08s.25,1.32.36,2c.22,1.31.4,2.62.53,3.93a76.26,76.26,0,0,1,.38,7.85c0,2.62-.14,5.25-.44,7.85s-.69,5.21-1.18,7.79h0V992l-3.09.9A46.26,46.26,0,0,1,896,994.2c-2.07.3-4.09.5-6.11.66-4,.32-8,.47-12,.54s-7.93.06-11.89,0-7.87-.18-11.88-.37l-2.45-.12-1.19-2.09c-.38-.67-.56-1.05-.79-1.55s-.42-.92-.63-1.38c-.37-.92-.74-1.83-1.05-2.74-.66-1.83-1.18-3.66-1.67-5.49a88.69,88.69,0,0,1-2-11.06l-.31-2.78-.21-2.77c-.16-1.85-.17-3.7-.25-5.54s0-3.69,0-5.53l.24-5.51.11-2.55,2.34-1.18a114.75,114.75,0,0,1,22-8.11,192.52,192.52,0,0,1,22.63-4.46c7.59-1.06,15.19-1.76,22.81-2.18s15.17-.58,23-.36a4.5,4.5,0,0,1-.27,9h-.1Z"/><path d="M649.94,982.07,576,936l-74.11-45.77-37.14-22.74q-18.6-11.34-37.23-22.58-37.28-22.53-74.68-44.79c-12.46-7.43-25-14.69-37.53-22L296.5,767.21c-6.3-3.59-12.55-7.27-18.88-10.8l-19-10.65-4.74-2.66-1.19-.66-.67-.39c-.32-.19-.64-.38-.94-.58a14.79,14.79,0,0,1-3.28-3,15.42,15.42,0,0,1-3.23-7.95,16.41,16.41,0,0,1,1.19-8.23,14.81,14.81,0,0,1,5.61-6.72,14.46,14.46,0,0,1,4.13-1.82c1-.24,1.92-.48,2.89-.67a89.42,89.42,0,0,1,11.49-1.68,142.92,142.92,0,0,1,22.67.07,214.1,214.1,0,0,1,22.14,2.93c7.29,1.34,14.5,3,21.64,4.8a413.31,413.31,0,0,1,42,13.42,550.51,550.51,0,0,1,79.21,37.61l-3.05,5.62a631.93,631.93,0,0,0-79.42-34.22q-20.37-7.12-41.26-12.22a258.56,258.56,0,0,0-42-6.81,130.75,130.75,0,0,0-20.86.13,78.47,78.47,0,0,0-10,1.55c-.82.17-1.64.4-2.41.59a2.94,2.94,0,0,0-.84.38,3.37,3.37,0,0,0-1.22,1.54,5,5,0,0,0-.33,2.43,4,4,0,0,0,.8,2,3.35,3.35,0,0,0,.71.64l.22.13.06,0,.15.08.3.17,1.19.66,4.77,2.65,19.09,10.6c6.37,3.51,12.66,7.16,19,10.74l19,10.8c12.57,7.31,25.19,14.53,37.71,21.91s25.09,14.7,37.56,22.17l18.74,11.14c6.25,3.72,12.45,7.51,18.67,11.26q18.68,11.26,37.26,22.64l37.17,22.79,37.08,22.91,37,23.13c24.61,15.47,49.18,31,73.63,46.71Z"/><path d="M649.4,990l-97.5-41.35-97.58-41.12-48.86-20.38L381,877.09l-12.24-5-.76-.32-.52-.22-.72-.34a12.46,12.46,0,0,1-2.66-1.88,12,12,0,0,1-3.26-5.44,12.94,12.94,0,0,1-.26-5.89,12.6,12.6,0,0,1,2.48-5.54,11.3,11.3,0,0,1,5.41-3.77,10.35,10.35,0,0,1,1.6-.39l.79-.12.44,0,1.78-.14c2.37-.17,4.69-.23,7-.23,4.62,0,9.15.21,13.66.54s9,.78,13.42,1.3,8.88,1.11,13.28,1.81c8.81,1.37,17.57,3,26.28,4.67q6.54,1.33,13,2.78c4.34,1,8.64,2,13,3l-1.95,8.64c-8.57-1.62-17.24-3.2-25.89-4.59s-17.32-2.77-26-3.87S401.59,860,393,859.48c-4.3-.25-8.59-.4-12.81-.34-2.1,0-4.19.12-6.22.29l-1.52.14-.38,0h0s.12-.09.08,0a1.11,1.11,0,0,0-.18.46,1.8,1.8,0,0,0,0,.67.35.35,0,0,0,.09.18,10.17,10.17,0,0,1,1.07.44l12.29,5,24.54,10,49,20.21c32.64,13.51,65.15,27.31,97.67,41.09Q581,948,605.31,958.46l48.64,21Z"/><path class="cls-34" d="M657.59,974.67S327.48,651.51,249.73,534.3c88.88,29.54,227.47,117.51,427.89,431.49"/><path d="M735.05,944.07Q714.24,904.65,694.14,865t-39.83-79.61c-26.22-53.24-51.63-106.91-75.66-161.25l-8.84-20.46-4.42-10.23c-1.45-3.37-2.88-6.75-4.4-10.09q-4.49-10.05-9.38-19.91c-3.23-6.59-6.63-13.11-10.12-19.56a644.07,644.07,0,0,0-47.19-74.38,658,658,0,0,0-56.72-67.41c-10.22-10.54-20.79-20.74-31.83-30.3-5.52-4.78-11.16-9.41-16.95-13.71-2.89-2.14-5.82-4.2-8.77-6.05-1.47-.9-2.95-1.79-4.36-2.48a19.2,19.2,0,0,0-1.95-.87,2.34,2.34,0,0,0-.36-.13c-.09,0-.27-.09-.28-.08a.07.07,0,0,1-.06,0,1.11,1.11,0,0,0,.51,0h0l5.17-5a180.1,180.1,0,0,0-.55,30.57l.73,7.7c.14,1.28.23,2.57.39,3.85l.55,3.84,1.12,7.69,1.42,7.65c3.89,20.42,9.81,40.54,16.59,60.36s14.58,39.37,22.91,58.68,17.25,38.41,26.52,57.33C467,618.93,487,656.09,507.58,693S549.5,766.32,571,802.75L562.09,808c-21.55-36.41-43-72.92-63.74-109.84s-41-74.2-59.73-112.26c-9.38-19-18.41-38.25-26.89-57.75s-16.38-39.26-23.36-59.42S375.31,428,371.23,406.86l-1.5-7.93-1.18-8-.58-4c-.17-1.34-.28-2.69-.42-4l-.79-8.09a191.06,191.06,0,0,1,.53-32.77l.52-4.79,4.65-.24h0a15,15,0,0,1,1.9,0c.43.07.87.15,1.3.24s.7.2,1.06.3.69.21.95.32a30.83,30.83,0,0,1,3.13,1.38c1.92.95,3.62,2,5.3,3,3.33,2.09,6.47,4.3,9.53,6.57,6.11,4.54,11.94,9.32,17.63,14.25,11.37,9.85,22.15,20.26,32.57,31a667.27,667.27,0,0,1,57.72,68.59,657.08,657.08,0,0,1,48,75.71c3.56,6.58,7,13.22,10.32,19.94s6.51,13.48,9.56,20.32c1.55,3.4,3,6.85,4.49,10.29l4.4,10.18,8.8,20.37c23.93,54.12,49.28,107.66,75.45,160.8q19.59,39.88,39.77,79.48t40.82,78.91Z"/><path d="M798.56,927.05c-8.15-23.49-16-47-23.7-70.56s-15.21-47.2-22.64-70.86q-22.12-71-42.11-142.72C696.87,595.1,684.5,547,673.61,498.58l-4.12-18.09-2.1-9-2.18-9q-4.43-17.94-9.51-35.7A693.42,693.42,0,0,0,631.93,357c-4.61-11.36-9.62-22.54-15.12-33.44a287.73,287.73,0,0,0-18.33-31.5,179.47,179.47,0,0,0-10.82-14.42A109.58,109.58,0,0,0,575.33,265a63.09,63.09,0,0,0-6.83-5.13,32.43,32.43,0,0,0-7.1-3.54c-2.31-.81-4.66-1-5.7-.54a2.53,2.53,0,0,0-.35.14s-.14.07,0,0l.25-.16a1.58,1.58,0,0,0,.21-.19,4.52,4.52,0,0,0-.39.66,22.83,22.83,0,0,0-1.27,3.46,79.29,79.29,0,0,0-1.87,8.47c-.5,2.93-.91,5.91-1.27,8.92-.7,6-1.2,12.1-1.58,18.21-.74,12.21-1,24.51-1,36.81,0,24.6,1.13,49.24,3.06,73.81A1005.82,1005.82,0,0,0,573.65,552c5.55,24,12.12,47.73,20,71a557.48,557.48,0,0,0,27.8,68.13l-9.08,4.48A568.27,568.27,0,0,1,584,626.25c-8-23.64-14.67-47.7-20.33-72a1019.1,1019.1,0,0,1-22.56-147.55c-2-24.81-3.13-49.7-3.18-74.64,0-12.47.26-25,1-37.46.38-6.25.88-12.51,1.61-18.8.37-3.15.8-6.3,1.34-9.47A85.56,85.56,0,0,1,544,256.7a32.28,32.28,0,0,1,2-5.23,13.49,13.49,0,0,1,2.16-3.2,9.49,9.49,0,0,1,1.07-1,5.44,5.44,0,0,1,.73-.49c.32-.2.35-.2.53-.3a12,12,0,0,1,1.79-.76A16,16,0,0,1,559,245a24.61,24.61,0,0,1,5.74,1.23,42.7,42.7,0,0,1,9.51,4.66,72.56,72.56,0,0,1,8,6,119.42,119.42,0,0,1,13.58,13.9,187.13,187.13,0,0,1,11.5,15.28,296.85,296.85,0,0,1,19.06,32.65c5.68,11.21,10.82,22.65,15.54,34.23,18.83,46.37,31.67,94.77,42.37,143.21,10.91,48.2,23.28,96.1,36.54,143.76S748.26,735,763,782.25c7.43,23.6,14.92,47.18,22.67,70.68s15.59,47,23.71,70.3Z"/><path class="cls-35" d="M1084.33,958S1294.4,742.72,1442,641.74c7.09-4.85,4.45-16.37-4-17.5-44-5.89-93.28,7.61-168.35,58.34"/><path class="cls-35" d="M1092.18,966.54s131.56-122.74,245.64-182.9c5.76-3,3.53-12.24-3-12.16-32.45.41-71.08,15.71-71.08,15.71"/><path class="cls-35" d="M1079.33,956S1357.79,565.19,1425,439.56c-88.49,39.81-229.26,158-401.33,493.55"/><path class="cls-35" d="M963,920.7s87.31-227.78,136.88-386.48,163.24-270.28,176.64-270.58c24.84,102.93-58.16,296.52-142.23,475.69"/><path d="M899.43,909.77Q913.52,835.55,926.22,761t24.19-149.24C958,561.93,965,512,971.06,462l2.28-18.75,1.14-9.43,1.21-9.43q2.52-18.84,5.72-37.6A727,727,0,0,1,998,312.45c7-24.47,15.41-48.69,27.14-71.64,5.92-11.45,12.64-22.6,21.14-32.75A80.78,80.78,0,0,1,1061,194.13a38.73,38.73,0,0,1,9.77-5.09,21.56,21.56,0,0,1,6.2-1.13,16.1,16.1,0,0,1,3.59.33,10.93,10.93,0,0,1,1.87.53c.19.07.25.08.54.2a7.48,7.48,0,0,1,.8.39,10.08,10.08,0,0,1,1.23.83,13.28,13.28,0,0,1,2.65,3,24,24,0,0,1,1.51,2.6,49.24,49.24,0,0,1,2.13,4.88c1.2,3.2,2.15,6.34,3,9.49,1.72,6.29,3.08,12.56,4.29,18.85,2.41,12.56,4.22,25.16,5.72,37.77,3,25.24,4.7,50.55,5.53,75.89a985.24,985.24,0,0,1-6.52,151.83,752.25,752.25,0,0,1-13,75,559.43,559.43,0,0,1-21.81,73.12l-9.65-3.65a548.15,548.15,0,0,0,21.32-71.79,741.67,741.67,0,0,0,12.77-74A974.71,974.71,0,0,0,1099.15,343c-.86-25.07-2.59-50.11-5.55-75-1.49-12.42-3.29-24.8-5.64-37-1.19-6.09-2.51-12.15-4.13-18-.81-2.93-1.69-5.83-2.72-8.53a38.28,38.28,0,0,0-1.64-3.78,13.85,13.85,0,0,0-.85-1.49c-.25-.38-.56-.69-.44-.57a1.36,1.36,0,0,0,.25.17l.27.13c.11,0,0,0,0,0a1.92,1.92,0,0,0-.4-.11,5.09,5.09,0,0,0-1.1-.09,11,11,0,0,0-3.07.59,28.52,28.52,0,0,0-6.91,3.68,70.52,70.52,0,0,0-12.64,12c-7.7,9.22-14.1,19.79-19.73,30.73-11.21,22-19.47,45.65-26.26,69.65a713.35,713.35,0,0,0-16.2,73.26q-3.18,18.53-5.62,37.19l-1.19,9.33-1.11,9.35-2.26,18.8c-6,50.15-13,100.15-20.53,150.07s-15.59,99.73-24.06,149.48S920.31,862.35,911,912Z"/><path class="cls-34" d="M859.15,914.48S832.69,588.15,831,487.15s-32.69-299-76.15-300.13-58.22,173.55-43.51,330.09S774,835.82,774,835.82"/><path d="M967.77,495.7c1.29-30.94,1.82-62,1.83-93s-.54-62-2.18-93c-.85-15.46-1.9-30.89-3.42-46.26s-3.47-30.65-6.27-45.71c-1.4-7.52-3-15-5.05-22.26a130.9,130.9,0,0,0-7.51-21,56.3,56.3,0,0,0-5.31-9.09,23.88,23.88,0,0,0-6.67-6.4,13.92,13.92,0,0,0-3.87-1.55,19,19,0,0,0-4.4-.61,19.67,19.67,0,0,0-8.75,2c-5.77,2.65-11,7.66-15.5,13.29a120.3,120.3,0,0,0-11.94,18.71c-7,13.34-12.51,27.67-17.28,42.22s-8.73,29.47-12.2,44.48-6.46,30.18-9,45.41c-5.14,30.48-8.68,61.25-11,92.11s-3.4,61.83-3.11,92.79l-9.56.15c-1.21-62.47,2.67-125.07,12.65-186.87,5-30.89,11.63-61.61,21.3-91.63,4.89-15,10.53-29.82,18-44.06a131.83,131.83,0,0,1,13.09-20.57,74.29,74.29,0,0,1,8.65-9.24,45.88,45.88,0,0,1,11.07-7.41,30.7,30.7,0,0,1,21-2.08,25.85,25.85,0,0,1,6.9,2.81,35.26,35.26,0,0,1,10.13,9.56,68.36,68.36,0,0,1,6.43,11,141.88,141.88,0,0,1,8.18,22.9c2.1,7.71,3.78,15.46,5.22,23.23,2.85,15.53,4.79,31.12,6.3,46.71s2.57,31.2,3.28,46.8c2.8,62.44,1.83,124.75-1.39,187.07Z"/><path class="cls-36" d="M382.2,611.22s-46.87-94.82-54.91-143.79c36.13,27.14,105,96.77,105,96.77"/><path class="cls-36" d="M364.21,675s-72.37-31.16-115.77-11.4c50.91,30.62,96.74,63.27,96.74,63.27"/><path class="cls-36" d="M478,440.65s-8.13-67.71.61-95.26C506.71,367.1,548,424.63,548,424.63"/><path class="cls-36" d="M642.6,365.73s10.7-60.17,22.14-71.62c24.33,28.72,41.1,68.26,41.1,68.26"/><path class="cls-36" d="M1241,485.25c2.86-.7,44.74-43.95,59.12-48.37,1.19,42.14-21.41,112.21-21.41,112.21"/><path class="cls-36" d="M1105.57,382.51s27.89-43.48,43-56.25c3.35,38.58-.4,95.27-.4,95.27"/><polyline class="cls-36" points="974.62 339.58 990.99 299.23 1002.73 325.39"/><path class="cls-36" d="M816.45,330s8.95-45.3,14.7-51.78a179.32,179.32,0,0,1,13.61,35"/><path class="cls-36" d="M1329.22,591.32s38.36-20.93,55.75-21.42c-7.4,31.2-29.47,65-29.47,65"/><path class="cls-37" d="M766.88,1410.05s38.36,12.54,115.42,10.08c101.57-3.23,118.19-23.45,118.19-23.45"/></g></g></svg>